<svg id="Layer_1" data-name="Layer 1" xmlns="http://www.w3.org/2000/svg" viewBox="0 0 669.11 153.83"><defs><style>.cls-1{fill:#007cba;}.cls-2{fill:#fff;}.cls-3{fill:#2d2a26;}</style></defs><rect class="cls-1" x="165.71" y="25.08" width="84.35" height="101.22"/><polygon class="cls-2" points="224.97 66.25 231.65 66.25 230.28 61.48 226.48 61.48 229.86 51.55 236.88 72.65 242.85 72.65 232.45 44.96 226.94 44.96 216.55 72.65 222.76 72.65 224.97 66.25"/><path class="cls-2" d="M179.92,61.23h7.8v-5h-7.8V49.92h23.43a8.51,8.51,0,0,1,3,.58,6,6,0,0,1,2.31,1.75A7.23,7.23,0,0,1,210,55a15.25,15.25,0,0,1,.4,3.66,13.58,13.58,0,0,1-.46,3.7,7.61,7.61,0,0,1-1.45,2.85,6.4,6.4,0,0,1-2.59,1.85,10.4,10.4,0,0,1-3.83.64H198.3V56.31h-5.78V72.65h9.39a18.91,18.91,0,0,0,6.05-.89,11.8,11.8,0,0,0,4.54-2.68,11.64,11.64,0,0,0,2.85-4.38,16.94,16.94,0,0,0,1-6.05q0-6.78-3.55-10.24A13.09,13.09,0,0,0,203.91,45v0H174.14V72.65h5.78Z"/><path class="cls-1" d="M295.82,107h.56c4.35,0,7.32-1.48,7.32-5.81,0-4-2.41-6.1-6.49-6.1h-1.39Zm-3-14.5h4.84c4.37,0,9.27,2.29,9.27,8.47s-4.83,8.63-9.52,8.63h-4.59Z"/><polygon class="cls-1" points="324.41 109.54 322.26 109.54 316.98 96.21 316.98 109.54 313.96 109.54 313.96 92.46 318.53 92.46 323.36 104.98 328.31 92.46 332.83 92.46 332.83 109.54 329.8 109.54 329.8 96.26 324.41 109.54"/><rect class="cls-1" x="340.64" y="92.45" width="3.03" height="17.09"/><polygon class="cls-1" points="362.96 109.54 354.51 97.99 354.51 109.54 351.48 109.54 351.48 92.46 354.14 92.46 362.64 104.02 362.64 92.46 365.66 92.46 365.66 109.54 362.96 109.54"/><rect class="cls-1" x="373.48" y="92.45" width="3.03" height="17.09"/><path class="cls-1" d="M390,94.77c-1.42,0-2.54.71-2.54,2s1.68,1.88,3,2.35c2.51.85,5.35,2,5.35,5.42,0,3.76-3.42,5.3-6.25,5.3a8.57,8.57,0,0,1-6.4-2.74l2-2c1.49,1.44,2.61,2.1,4.37,2.1,1.51,0,3-.73,3-2.51,0-1.63-1.74-2.25-3.52-2.88-2.29-.83-4.71-2-4.71-4.91,0-3.25,2.59-4.76,5.4-4.76a8.76,8.76,0,0,1,5.51,1.91l-1.78,2.17A5.73,5.73,0,0,0,390,94.77"/><polygon class="cls-1" points="408.27 95.04 408.27 109.54 405.24 109.54 405.24 95.04 401.09 95.04 401.09 92.46 412.42 92.46 412.42 95.04 408.27 95.04"/><path class="cls-1" d="M423.21,100c2,0,3.44-.7,3.44-2.41,0-1.52-1.2-2.52-3-2.52h-2.17V100Zm.56-7.52c2.71,0,6.08,1.39,6.08,5a4.88,4.88,0,0,1-3.91,4.79l5.3,7.27h-3.76l-4.88-7h-1.08v7h-3V92.45Z"/><polygon class="cls-1" points="462.46 95.04 462.46 109.54 459.44 109.54 459.44 95.04 455.29 95.04 455.29 92.46 466.62 92.46 466.62 95.04 462.46 95.04"/><rect class="cls-1" x="472.7" y="92.45" width="3.03" height="17.09"/><path class="cls-1" d="M491.64,94.82c-3.27,0-5.66,2.71-5.66,6.18s2.39,6.17,5.66,6.17,5.69-2.7,5.69-6.17-2.4-6.18-5.69-6.18m0,15a8.84,8.84,0,1,1,8.89-8.84,8.77,8.77,0,0,1-8.89,8.84"/><polygon class="cls-1" points="519.05 109.54 510.61 97.99 510.61 109.54 507.58 109.54 507.58 92.46 510.24 92.46 518.74 104.02 518.74 92.46 521.76 92.46 521.76 109.54 519.05 109.54"/><polygon class="cls-1" points="283.15 109.54 286.62 109.54 280.14 92.46 277.63 92.46 270.82 109.54 274.14 109.54 275.36 106.17 280.05 106.17 279.15 103.63 276.29 103.63 278.68 97.07 278.71 97.07 283.15 109.54"/><polygon class="cls-1" points="448.5 109.54 451.97 109.54 445.49 92.46 442.98 92.46 436.17 109.54 439.49 109.54 440.71 106.17 445.4 106.17 444.5 103.63 441.64 103.63 444.03 97.07 444.06 97.07 448.5 109.54"/><rect class="cls-1" x="340.55" y="69.05" width="6.39" height="6.53"/><path class="cls-3" d="M120.3,37c.18,3.94-3,6.38-5.31,8.7L90.73,66.1c-2.18,2-5.33,3.71-6.55,6.75-1.61,4-2.21,8.49-2.9,12.93-.4,3.2-3.39,6-6.17,7.16-2.16.76-4.76.4-7.12.58l-8.46.06a2.67,2.67,0,0,0-1.7,1.12l-.31.85c-.91.13-.61-.66-.74-1.22,0-1.86.44-3.8,1.81-4.89a4.74,4.74,0,0,1,2.79-1.1l12.33-.17a3.08,3.08,0,0,0,1.7-.81l.51-1c1-6.15,1.55-12.51,4.6-17.73,2.84-3.31,6.41-5.59,9.57-8.51C97.4,54,105,47.65,112.22,41.34c2-1.93,4.21-4.49,4.72-7.55l.26-.82a4.7,4.7,0,0,1,3.1,4"/><path class="cls-3" d="M127.41,43.92c.36,3.83-2.64,5.64-5,8l-9.9,8.5L94.88,75.38c-2.5,2.81-2.62,6.8-3.26,10.4.1,1.17,1.29,1.65,1.06,2.88l-2.45,4.42c.13,1.75,2.28.73,3,1.83,0,.63-.4,1.42.1,2,.34.6,1.76-.21,1,.76-.21.16-.13.55-.07.76.29.39.84.42.89,1a2.84,2.84,0,0,0,.18,2.39c3.05,3.33,8.31-.79,11.49,2.34a3.18,3.18,0,0,1,.56,3c-1.7,5-11.75,5.35-8.31,12.41a4.06,4.06,0,0,0,3.27,2,6.12,6.12,0,0,0,3-.58c.29,0,.31.28.44.45v.19c-2.91,2.07-6.66,5.11-10.52,2.91a6,6,0,0,1-2.45-6.2c1.18-3.92,5.68-4.91,7.93-8.19a3.32,3.32,0,0,0-.13-3.16c-.72-1.28-2.38-1.63-3.83-1.89-2.42,0-6.12,1.48-7.2-1.36-.31-1.09.79-3-.94-3.24-.23-.3-.79-.57-.5-1.06.08-.29.58-.33.32-.7-.34-.09-.8,0-1.08-.31-1-1.07,1.73-2.24-.11-3-.92-.13-2.18.56-2.78-.5-.29-1,.45-1.7.82-2.51.62-1.39,2.43-2.31,2-4.11l-.89-1.51a55.8,55.8,0,0,1,1.76-10.4c1.21-3.73,4.81-5.81,7.56-8.37L110.4,55.58l10.44-9.19c1.82-1.68,3.4-3.57,3.34-6.12.55-.19.92.48,1.4.69a5.87,5.87,0,0,1,1.83,3"/><path class="cls-3" d="M123.45,62.51c-2,3.1-5.2,5.44-8.09,7.88L104,79.91a7.23,7.23,0,0,0-1.69,7.68c.11,1.29-.89,2.1-1.2,3.23,0,.34.1.76.45.86s1.18-.05,1.44.58c.07.66-.23,1.38.5,1.63.29.17.73-.34.76.18a1.39,1.39,0,0,0-.26,1c.36.66,1.18.3,1.51.84.14.77.14,1.76,1,2.08,2.95.49,5.17-1.5,7.83-2.08,4.2-1.31,8.26.34,12,1.45a20.2,20.2,0,0,0,5.81,0l.13.12c-2.39,2.92-5.33,5.75-9.5,5.47-4.39-.17-7.22-4.26-11.92-3.47-3.18.64-6.36,2.55-9.77,1.26a3.06,3.06,0,0,1-.9-3.21c-.16-.76-2-.94-.85-1.93-.35-.23-.95,0-1.14-.53s.47-1.49-.32-1.89c-.7-.11-1.62.29-2.14-.31a1.52,1.52,0,0,1-.13-1.32c.5-1.21,1.86-2.15,1.57-3.59-.92-.87-.62-2.32-.5-3.52.52-2.79.73-5.73,3.32-7.58L114,65c2.93-2.81,6.56-4.62,8.69-8.32a6.12,6.12,0,0,1,.76,5.8"/><path class="cls-3" d="M80.78,103.79a72.67,72.67,0,0,1,11.66,5.67,3.56,3.56,0,0,1,1.49,3.09c-1.21,5-8.19,5.55-7.16,11.47a5.58,5.58,0,0,0,3.91,4.72,6.18,6.18,0,0,0,3.25,0c.16.39.84.76.08,1-2.86,1.83-6.54,3.88-10,2.13a6.42,6.42,0,0,1-3.15-4.41c-.71-5.37,4.28-7,6.81-10.64a3.46,3.46,0,0,0,.38-2.39,5.26,5.26,0,0,0-2.15-2.21c-9.4-5.27-19.62-8.82-30.11-11.55-1.74-.16-4.44-1.18-5.6.84v.1c-.94.2-.58-.94-.58-1.44a4.92,4.92,0,0,1,2.9-3.79c2.72-.81,5.61.16,8.26.64a176,176,0,0,1,20,6.75"/><path class="cls-3" d="M76.69,126.15c0-.31-.06-.33-.57-.33-1.49,0-2.1.73-2.06,2.4s.67,2.34,2.16,2.31c.5,0,.56,0,.56-.2Zm1.84-.42c-.84.07-.88.09-.9.31s0,.89,0,2.09,0,1.81.07,2.09.08.23.92.27v.33l-2.66.05a2.57,2.57,0,0,1-2.11-.67,2.63,2.63,0,0,1-.81-2A2.67,2.67,0,0,1,76,125.45l2.54,0Z"/><path class="cls-3" d="M72.57,125.81c-.74,0-.77,0-.81.23s-.12.87-.21,2.09-.16,1.79-.15,2.07,0,.23.76.35l0,.34-2.92-.26a7,7,0,0,0-1.21,0,14.41,14.41,0,0,0,0-1.49l.33,0c.13,1,.29,1.16,1.37,1.24l.69.05c.09,0,.14,0,.16-.13l.15-1.77c0-.11,0-.14-.24-.17h-.23c-.83-.08-.9.06-1,.59l-.33,0c0-.26.07-.51.1-.87s0-.66,0-.88l.35,0c0,.56.09.7.69.75l.54.06a.12.12,0,0,0,.14-.14l.17-2c0-.1,0-.16-.12-.16l-1.32-.11c-.62-.06-.8.1-1,.59l-.22.53-.35-.13a9.82,9.82,0,0,0,.34-1.47l4.35.36Z"/><path class="cls-3" d="M65.34,127.54a2.33,2.33,0,0,0-.36-.08c-.77-.14-1.5-.14-1.69.88s.42,1.22,1.25,1.37c.36.06.39,0,.42-.12Zm2.23-2.16c-.79-.09-.84-.08-.9.12s-.2.88-.42,2-.33,1.8-.35,2.07,0,.24.8.45l-.06.32-2.8-.52a2.07,2.07,0,0,1-1.27-.67,1.24,1.24,0,0,1-.28-1c.22-1.08,1.22-1.36,2.59-1.11l.53.12.34-1.83c0-.21,0-.25-.9-.47l.05-.32,2.72.51Z"/><path class="cls-3" d="M59.68,125.58c-.06,0-.09,0-.09,0a1,1,0,0,0,0,.18l.2,2.07,1.28-1.7a.9.9,0,0,0,.07-.11s0-.06-.07-.08Zm3.74-.92c-.61-.13-.76,0-1.18.59L60,128.14a7.45,7.45,0,0,0-.61.87l-.4-.12a5.22,5.22,0,0,0,0-1l-.47-4c-.05-.54-.08-.64-.71-.8l.09-.33,2.56.73-.1.31c-.75-.19-.83-.13-.89.06a7.34,7.34,0,0,0,.07,1.18.16.16,0,0,0,.07.09c.19.07.57.19,1.31.4.48.13.51.11.62,0a8.71,8.71,0,0,0,.57-.84c.06-.24,0-.31-.71-.57l.1-.32,2,.58Z"/><path class="cls-3" d="M55,124.91c0-.13,0-.18-.4-.36-1.06-.44-1.52.09-1.69.5-.24.58,0,1.18.8,1.49.49.2.53.2.61,0Zm2.64-1.9c-.73-.24-.78-.23-.87-.05a18.54,18.54,0,0,0-.82,1.92c-.47,1.12-.7,1.69-.77,2s0,.25.65.59l-.12.3L53,126.63a1.87,1.87,0,0,1-1-.74,1.15,1.15,0,0,1-.06-1.13c.43-1.06,1.65-.77,1.68-.84a.43.43,0,0,0,0-.21l-.51-2c-.12-.51-.18-.6-.51-.75l.11-.3,1.19.49.61,2.89c0,.09.08.13.37.24s.31.13.34,0a17.36,17.36,0,0,0,.66-1.71c.07-.19,0-.24-.65-.57l.13-.31,2.39,1Z"/><path class="cls-3" d="M52.15,120.67c-.77-.34-.82-.34-.95-.17s-.22.38-.44.78l-1.64,3.17.79.41c.23.13.43,0,1.13-.67l.29.23a7.12,7.12,0,0,0-.81,1.23l-.39-.26a1.6,1.6,0,0,0-.38-.23l-2.37-1.24a6.64,6.64,0,0,0-.85-.35,9.08,9.08,0,0,0,.54-1.36l.35.09c-.13,1-.14,1.21.1,1.33l.79.41L50,120.87c.21-.41.32-.66.39-.81s0-.24-.68-.67l.15-.3,2.47,1.28Z"/><path class="cls-3" d="M48.59,118.89c-.72-.43-.77-.43-.92-.28s-.52.72-1.19,1.71-1,1.51-1.17,1.74-.07.23.6.76l-.19.27L44,121.91a1.65,1.65,0,0,1,.09-.21l1.11-4.15h0L41.5,120.2,39.79,119l.2-.27c.73.43.77.44.91.27s.53-.72,1.2-1.71,1-1.51,1.16-1.74.08-.23-.59-.76l.18-.27,2.24,1.53-.18.28c-.7-.41-.77-.41-.87-.25l-2.44,3.56,3.81-2.74a3.38,3.38,0,0,0,.33-.26l.47.34-.11.31-1.22,4.59h0l2-3a5.2,5.2,0,0,0,.34-.62c.1-.19.08-.23-.51-.7l.19-.26,1.84,1.24Z"/><path class="cls-3" d="M42.6,114.69c-.58-.44-.63-.44-.79-.31s-.6.66-1.39,1.56-1.2,1.38-1.35,1.59-.11.22.4.74l-.22.25L37,116.59a9.22,9.22,0,0,0-1-.72,13.32,13.32,0,0,0,.87-1.2l.28.17c-.49.91-.43,1.09.38,1.81l.53.45c.08.07.13.06.21,0l1.16-1.33c.07-.08.08-.13-.1-.27l-.15-.14c-.64-.56-.77-.5-1.19-.14L37.8,115c.18-.18.34-.35.6-.65s.42-.51.56-.68l.27.23c-.35.46-.36.62.11,1l.39.37c.07,0,.14.07.21,0l1.3-1.49c.07-.07.06-.14,0-.22l-1-.86a.79.79,0,0,0-1.16-.11l-.46.3-.22-.32a12,12,0,0,0,1.15-1l3.28,2.88Z"/><path class="cls-3" d="M38.87,111.44c-.55-.51-.59-.52-.77-.4s-.67.58-1.55,1.4-1.34,1.24-1.51,1.44-.13.22.34.81l-.24.21-1.09-1.16a3.53,3.53,0,0,0,.1-.41l1-4.21h0l-.88.82c-.89.82-1.34,1.24-1.52,1.45s-.13.22.41.86l-.24.23-1.5-1.61.24-.23c.49.53.58.55.89.29s.69-.6,1-.88c1.11-1,2-1.91,2.45-2.37l.38.42a12.22,12.22,0,0,0-.51,1.87l-.7,3.24h0l1.15-1.06c.88-.82,1.33-1.23,1.52-1.45s.12-.21-.48-1l.24-.22,1.56,1.69Z"/><path class="cls-3" d="M34.3,106.31c-.56-.65-.6-.66-.78-.56a6.54,6.54,0,0,0-.73.51l-2.87,2.15.53.71c.16.21.41.16,1.33-.12l.15.33a8.25,8.25,0,0,0-1.26.75l-.23-.4c-.08-.12-.17-.26-.26-.37l-1.59-2.14a7,7,0,0,0-.62-.68,8.74,8.74,0,0,0,1.09-1l.27.23c-.54.81-.64,1-.49,1.24l.53.71,2.88-2.14c.36-.28.57-.46.69-.56s.15-.19-.32-.91l.27-.19,1.67,2.22Z"/><path class="cls-3" d="M29.25,98.41c-.38-.74-1.42-1-2.89-.21s-1.84,1.77-1.45,2.51,1.42,1,2.89.21,1.84-1.78,1.45-2.51m-4.67,2.47a2.59,2.59,0,0,1,1.31-3.57,2.61,2.61,0,0,1,3.7.91,2.64,2.64,0,0,1-1.32,3.6,2.61,2.61,0,0,1-3.69-.94"/><path class="cls-3" d="M27.78,95.69c-.32-.64-.35-.67-.56-.61s-.84.3-1.94.75-1.7.68-1.94.82-.19.14,0,.83l-.29.11L22,94.89a10.07,10.07,0,0,0-.54-1.09,10.4,10.4,0,0,0,1.31-.68l.18.28c-.85.59-.88.78-.47,1.78l.25.65c0,.09.1.11.21.07l1.64-.66c.08,0,.11-.07,0-.28l-.08-.21c-.32-.77-.46-.77-1-.64l-.14-.32.82-.31.81-.34.13.32c-.5.25-.58.4-.36,1l.21.49c0,.09.07.12.18.08l1.74-.7c.2-.07.2-.15-.08-1l.3-.13,1,2.37Z"/><path class="cls-3" d="M25.3,89.18c-.23-.77-.27-.8-.48-.77s-.87.17-2,.44-1.77.42-2,.51-.22.12-.07.91l-.34.07-.61-2.62.32-.08c.23.77.26.8.48.77a6.68,6.68,0,0,0,1-.19l.5-.11c.23-.06.25-.09.2-.29l-.46-2c-.05-.19-.09-.2-.3-.15l-.52.11c-.35.1-.8.2-.95.25s-.22.13-.09.91l-.32.08-.63-2.61.34-.09c.23.76.26.81.47.78s.88-.18,2-.44,1.78-.42,2-.51.21-.13.08-.91l.32-.08.61,2.63-.32.08c-.23-.77-.26-.81-.47-.78s-.84.16-1.73.37c-.22,0-.25.08-.2.28l.46,2c.05.2.08.22.31.16.88-.2,1.5-.36,1.71-.43s.22-.13.08-.91l.34-.08.6,2.64Z"/><path class="cls-3" d="M23.91,83c-.15-.71-.18-.74-.39-.74s-.89.07-2.08.21-1.81.22-2.07.29-.23.08-.19.81l-.34,0-.35-2.9a7.4,7.4,0,0,0-.23-1.19c.37-.06,1.25-.24,1.45-.31l.1.31c-1,.35-1.07.51-.93,1.59l.08.7q0,.14.18.12l1.76-.22c.11,0,.13,0,.11-.26l0-.21c-.1-.84-.24-.88-.8-.89l0-.33c.26,0,.5,0,.88-.09l.87-.13,0,.34c-.55.13-.67.25-.6.84l.07.54c0,.09.05.13.16.12l1.95-.24c.11,0,.15,0,.15-.15l-.16-1.32c-.07-.62-.26-.75-.79-.86L22.15,79l.05-.38a9.83,9.83,0,0,0,1.52,0l.51,4.32Z"/><path class="cls-3" d="M21.35,74.93c0-.06,0-.09,0-.09a.61.61,0,0,0-.18,0l-1.93.77,2,.74.13,0s0,0,0-.09Zm2,3.29c0-.6-.24-.7-.91-1L19,76a9.65,9.65,0,0,0-1-.36v-.4a4.45,4.45,0,0,0,.91-.31l3.74-1.61c.49-.2.58-.26.57-.91h.32l.05,2.65h-.33c0-.78-.12-.83-.32-.83a5.7,5.7,0,0,0-1.1.4.14.14,0,0,0-.07.1c0,.19,0,.59,0,1.37,0,.49,0,.51.21.58a5.55,5.55,0,0,0,1,.29c.23,0,.29-.09.34-.83h.32l0,2.08Z"/><path class="cls-3" d="M23.25,72.22c0-.74,0-.79-.22-.82s-.88-.1-2.07-.21S19.14,71,18.87,71s-.24,0-.36.78l-.34,0,.23-2.48.31,0c0,.75,0,.79.23.83l1,.12,3.08.26c.27,0,.34,0,.36-.28l.07-.89c.07-.75-.15-.89-1.19-1.42l.13-.33A10.31,10.31,0,0,0,24,68l-.37,4.28Z"/><path class="cls-3" d="M23.76,67.1c.09-.84.08-.87-.14-.94a6.41,6.41,0,0,0-.86-.19l-3.54-.61-.13.89c-.06.26.14.41,1,.87l-.13.35a9.73,9.73,0,0,0-1.41-.4l.12-.44c0-.15.06-.3.1-.44l.45-2.64a5,5,0,0,0,.08-.91,11.35,11.35,0,0,0,1.46.11l0,.36c-.95.16-1.2.22-1.24.48l-.16.89,3.54.61a5.53,5.53,0,0,0,.88.11c.21,0,.25,0,.44-.84l.33,0-.48,2.74Z"/><path class="cls-3" d="M24.36,63.39c.16-.78.16-.84,0-.91s-.85-.28-2-.61-1.76-.49-2-.54-.25,0-.53.76l-.31-.1.73-2.58.32.09c-.16.78-.15.83,0,.91s.6.2,1,.31l.5.14c.21.06.25,0,.31-.15l.56-2c0-.2,0-.24-.19-.3l-.51-.14c-.34-.11-.8-.21-1-.25s-.25,0-.52.76l-.31-.1.73-2.58.32.08c-.16.79-.16.83,0,.92s.85.27,2,.6,1.75.49,2,.54.24,0,.51-.75l.32.08-.72,2.6-.34-.09c.17-.78.16-.83,0-.91s-.81-.27-1.68-.52c-.22-.06-.26,0-.32.14l-.56,2c-.05.19,0,.22.2.29l1.7.45c.21,0,.24,0,.52-.75l.31.08-.74,2.59Z"/><path class="cls-3" d="M27.88,53A1.5,1.5,0,0,0,28,52a14.19,14.19,0,0,1-2.64.28A1.16,1.16,0,0,0,26,53.44,1.49,1.49,0,0,0,27.88,53M25,51.52a.9.9,0,0,0-.56-.87.59.59,0,0,0-.83.18.51.51,0,0,0,.33.7,1.45,1.45,0,0,0,1.06,0m4.45-1.64a2.23,2.23,0,0,1-.13,1.28c-.16.34-.45.53-1,.73a2.28,2.28,0,0,1-.12,1.65,1.56,1.56,0,0,1-2.14.82c-.68-.32-1-.92-1.05-2a2.59,2.59,0,0,1-1.36-.07c-.47-.23-.75-.72-.39-1.51s.83-1,1.42-.69a1.36,1.36,0,0,1,.65,1.42c.84-.05,1.63-.12,2.42-.24a2.15,2.15,0,0,0-.75-1c-.21-.11-.36,0-.54.26l-.29-.15.76-1.62.31.14A1,1,0,0,0,27.41,50a5,5,0,0,1,.67,1.15c.65-.15.82-.22,1-.52a1.61,1.61,0,0,0,.08-.91Z"/><path class="cls-3" d="M30.76,47.55c.42-.68.42-.73.26-.88s-.71-.53-1.7-1.21-1.49-1.05-1.71-1.17-.25-.09-.75.53l-.27-.19,1.55-2.2.27.18c-.42.69-.42.75-.27.88s.51.39.82.6l.41.3c.18.12.23.12.35,0l1.17-1.67c.11-.17.11-.21-.09-.34l-.43-.3c-.29-.22-.68-.46-.83-.55s-.23-.07-.73.54l-.27-.18,1.54-2.2.28.18c-.41.68-.41.73-.27.87s.71.54,1.71,1.23,1.48,1,1.72,1.18.24.08.73-.55l.28.19L33,45l-.28-.19c.41-.68.43-.74.27-.87s-.7-.52-1.45-1c-.18-.14-.22-.13-.33,0L30,44.57c-.11.16-.1.2.09.33.75.53,1.27.88,1.46,1s.24.08.75-.55l.25.2L31,47.74Z"/><path class="cls-3" d="M30.67,38.91l1.81-2,.24.21c-.49.63-.5.68-.37.85s.64.61,2.1,1.92a1.37,1.37,0,0,0,2.11,0c.91-1,.53-1.6-.65-2.68-.95-.85-1.42-1.26-1.64-1.42s-.21-.11-.82.49l-.24-.24,1.5-1.65.25.2c-.5.64-.51.69-.37.86s.65.6,1.89,1.74c.91.82,1.64,1.7.31,3.16a1.89,1.89,0,0,1-3,.15c-1.44-1.29-1.9-1.71-2.12-1.86s-.22-.11-.79.44Z"/><path class="cls-3" d="M38.39,37.9c.61-.59.62-.64.51-.82s-.55-.7-1.34-1.6-1.19-1.39-1.4-1.57-.2-.14-.87.37L35.07,34l1.6-1.37a.74.74,0,0,0,.18.15L40.55,35h0L39,30.69l1.56-1.34.22.25c-.6.59-.63.65-.5.82s.55.69,1.33,1.6,1.2,1.38,1.4,1.56.2.15.88-.37l.21.25-2,1.77L41.78,35c.58-.57.59-.64.48-.78l-2.82-3.28,0,0L41.1,35.3a2.71,2.71,0,0,0,.17.39l-.45.38a2.44,2.44,0,0,0-.29-.19l-4.1-2.37,0,0,2.36,2.72a6,6,0,0,0,.51.51c.17.14.2.13.81-.31l.22.24-1.69,1.45Z"/><path class="cls-3" d="M45.94,29.6c.06,0,.07-.07.06-.1a1.09,1.09,0,0,1-.13-.11l-1.69-1.22.43,2.09a.55.55,0,0,0,0,.12s.07,0,.1,0ZM44.18,33c.49-.37.47-.59.34-1.28l-.73-3.56a8,8,0,0,0-.24-1l.34-.2a5.47,5.47,0,0,0,.74.59L48,29.84c.44.31.54.35,1.08,0l.18.28L47,31.56l-.19-.29c.65-.45.66-.54.54-.7a6.13,6.13,0,0,0-.92-.73.13.13,0,0,0-.12,0c-.16.1-.51.29-1.17.72-.41.26-.4.31-.38.49a5.23,5.23,0,0,0,.27,1c.13.2.23.2.88-.17l.18.29-1.75,1.13Z"/><path class="cls-3" d="M49.3,29.71c.65-.39.68-.43.59-.63s-.36-.81-.9-1.88-.8-1.63-1-1.86-.17-.18-.85.1L47,25.15l1.44-.71.36.21,3.76,2.11h0l-.54-1.09c-.53-1.08-.81-1.63-1-1.86s-.16-.18-.94.14L50,23.66l2-1,.15.3c-.66.32-.69.39-.52.78s.36.82.54,1.19c.68,1.36,1.25,2.49,1.58,3l-.51.24a10.1,10.1,0,0,0-1.65-1L48.67,25.6h0l.7,1.41c.53,1.07.81,1.63,1,1.86s.17.18,1-.19l.14.29-2.06,1Z"/><path class="cls-3" d="M57.45,24.48c.51.81,1.1,1.29,1.88,1s1.09-.85,1-1.31-.58-.55-1.17-.57h-.64c-1.45,0-1.75-.44-1.92-1A1.77,1.77,0,0,1,58,20.4a5.83,5.83,0,0,1,1.51-.26,3.4,3.4,0,0,0,.09.33c.11.35.24.7.39,1.06l-.35.11c-.41-.88-1-1.06-1.67-.84A1.09,1.09,0,0,0,57.1,22c.11.33.34.5.95.53l1.37.05A1.41,1.41,0,0,1,61,23.66c.31,1-.32,1.86-1.53,2.24-.54.16-1.18.12-1.7.27-.13-.37-.4-1-.6-1.51Z"/><path class="cls-3" d="M61.75,24.7c.69-.2.71-.23.71-.43s-.17-.88-.41-2.06-.36-1.79-.45-2-.11-.22-.82-.13l-.07-.31,2.86-.6a8.27,8.27,0,0,0,1.16-.34,10.27,10.27,0,0,0,.45,1.41l-.32.12c-.42-.94-.6-1-1.66-.78l-.69.14c-.09,0-.13.07-.11.18l.37,1.72c0,.12,0,.14.26.1l.22,0c.84-.17.85-.31.82-.87l.33-.07c0,.25.08.5.15.86l.21.85-.34.08c-.16-.54-.28-.65-.89-.52l-.52.09c-.1,0-.13.08-.11.18l.4,1.93c0,.11.08.14.18.12L64.77,24c.62-.14.73-.33.78-.86l.06-.56.37,0a13,13,0,0,0,.1,1.5l-4.27.9Z"/><path class="cls-3" d="M68.18,20.74c0,.14,0,.17.54.13,1.21-.11,1.37-.8,1.33-1.23-.07-.64-.61-1-1.45-.94-.57.05-.61.08-.59.27Zm-1.51,2.93c.78-.13.83-.16.83-.38s-.06-.88-.18-2.08-.18-1.81-.23-2.08-.09-.22-.89-.2l0-.32,3-.3a2,2,0,0,1,1.28.18,1.13,1.13,0,0,1,.6,1c.12,1.13-1.14,1.46-1.14,1.52s0,.09.12.19l1.45,1.53c.35.39.45.46.83.42l0,.33L71,23.57l-2-2.26c-.07-.07-.13-.08-.46,0s-.34,0-.34.12c.15,1.39.18,1.61.22,1.82s.09.23.89.2l0,.33L66.7,24Z"/><path class="cls-3" d="M71.29,18.1l2.67,0v.32h-.37c-.36,0-.43.13-.43.25s.41,1.17.82,2.21l.59,1.46.6-1.57a18.41,18.41,0,0,0,.72-2.15c0-.22-.13-.22-.82-.22V18l2.09,0,0,.33h-.23c-.36,0-.5.16-.85,1.09a24.25,24.25,0,0,0-1.45,4.18h-.51a43,43,0,0,0-1.84-4.5c-.33-.66-.37-.67-1-.67Z"/><path class="cls-3" d="M77.33,23.19c.84,0,.89,0,.93-.22s.1-.88.19-2.07.15-1.82.14-2.09,0-.23-.89-.36l0-.33,2.78.22,0,.33c-.84,0-.89,0-.92.21a18.75,18.75,0,0,0-.2,2.09c-.1,1.2-.16,1.82-.14,2.08s0,.24.88.36l0,.34-2.78-.22Z"/><path class="cls-3" d="M85.64,23.34a2.76,2.76,0,0,1-2.58,1A2.57,2.57,0,0,1,81,21.1a2.7,2.7,0,0,1,3.24-2.37,7,7,0,0,1,1.59.51,13,13,0,0,0,0,1.5l-.38,0c-.12-1-.51-1.53-1.39-1.68s-1.77.67-2,2.14.45,2.49,1.35,2.62a2.21,2.21,0,0,0,2-.76Z"/><path class="cls-3" d="M85.7,24.29c.71.14.76.13.83-.07s.27-.85.58-2,.47-1.76.52-2,0-.24-.69-.49l.08-.32,2.82.77a7.38,7.38,0,0,0,1.2.22,13.72,13.72,0,0,0-.25,1.47l-.33,0c0-1-.08-1.18-1.12-1.46l-.68-.18c-.1,0-.16,0-.18.12L88,22c0,.09,0,.14.19.2l.23.06c.8.22.9.1,1.11-.41l.33.09c-.08.25-.16.47-.25.84s-.16.64-.21.86l-.34-.08c.11-.57,0-.73-.55-.87L88,22.51a.13.13,0,0,0-.18.11l-.51,1.91c0,.1,0,.15.09.18l1.29.34a.78.78,0,0,0,1.09-.41l.29-.48.32.2a11.07,11.07,0,0,0-.59,1.39l-4.21-1.14Z"/><path class="cls-3" d="M91.6,24.44c-.11.95.07,1.68.85,2s1.38,0,1.55-.47-.12-.78-.57-1.15l-.51-.4c-1.13-.92-1.11-1.42-.9-2a1.81,1.81,0,0,1,2.5-.86,6.47,6.47,0,0,1,1.35.7c0,.1-.09.23-.13.33-.13.35-.23.7-.34,1.08l-.35-.12c.22-1-.1-1.42-.79-1.68a1.07,1.07,0,0,0-1.44.44c-.12.32,0,.61.43,1l1,.89a1.41,1.41,0,0,1,.56,1.77c-.36,1-1.39,1.28-2.57.84-.53-.2-1-.64-1.52-.82.13-.39.34-1.07.45-1.57Z"/><path class="cls-3" d="M97.88,25.52a.54.54,0,0,1,.25.73.54.54,0,0,1-.72.25.53.53,0,0,1-.25-.72.53.53,0,0,1,.72-.26"/><path class="cls-3" d="M100.39,24.2l2.32,1.35-.17.28c-.72-.35-.75-.35-.89-.18s-.47.76-1.47,2.45a1.37,1.37,0,0,0,.41,2.07c1.17.68,1.67.2,2.48-1.19.64-1.09,1-1.64,1.07-1.88s0-.24-.65-.71l.17-.29,1.94,1.14-.17.28c-.71-.35-.77-.36-.89-.18s-.48.74-1.33,2.2c-.61,1.05-1.34,1.94-3,1a1.91,1.91,0,0,1-.76-2.87c1-1.68,1.29-2.22,1.39-2.47s.06-.23-.58-.68Z"/><path class="cls-3" d="M104.6,31c-.36.88-.39,1.65.27,2.14s1.34.37,1.63,0,.08-.79-.25-1.27l-.36-.51c-.85-1.21-.69-1.67-.31-2.17A1.77,1.77,0,0,1,108.2,29a6.71,6.71,0,0,1,1.11,1.05c-.06.08-.15.18-.21.27-.22.3-.43.62-.63.95l-.3-.22a1.23,1.23,0,0,0-.31-1.83,1.08,1.08,0,0,0-1.5,0c-.2.28-.2.58.14,1.07l.77,1.13a1.42,1.42,0,0,1,.06,1.87c-.61.83-1.68.85-2.7.11-.46-.36-.79-.89-1.24-1.22.22-.34.61-.93.86-1.39Z"/><path class="cls-3" d="M110.68,35.36s.08,0,.1,0a.35.35,0,0,0,.08-.16l.76-1.93-1.91.94-.11.07a.07.07,0,0,0,0,.1ZM107,34.52c.47.38.67.31,1.31,0l3.26-1.59c.55-.28.69-.35.94-.5l.3.27a5.35,5.35,0,0,0-.4.87L111,37.4c-.18.51-.2.6.29,1l-.22.24-2-1.78.21-.25c.6.51.71.51.83.35a7.08,7.08,0,0,0,.47-1.08.13.13,0,0,0,0-.12c-.13-.15-.42-.43-1-.95-.37-.33-.41-.32-.56-.24a5.59,5.59,0,0,0-.89.51c-.16.17-.13.27.38.81l-.23.24-1.54-1.4Z"/><path class="cls-1" d="M290.14,63.34a5.78,5.78,0,0,1-1.47,4.23,5,5,0,0,1-3.76,1.48,4.91,4.91,0,0,1-3.74-1.5,5.63,5.63,0,0,1-1.5-4.19V42H273V63.88a11.38,11.38,0,0,0,3.5,8.62,11.79,11.79,0,0,0,8.38,3.34h0a11.59,11.59,0,0,0,11.88-12V42h-6.66Z"/><rect class="cls-1" x="300.18" y="69.05" width="6.39" height="6.53"/><path class="cls-1" d="M327.62,55.54c-1.43-.19-2.56-.36-3.38-.49a5,5,0,0,1-2.75-1.26,2.56,2.56,0,0,1-.76-1.77,3.22,3.22,0,0,1,1.14-2.65,4.68,4.68,0,0,1,2.94-.89,12.81,12.81,0,0,1,7,2.25l.84.58,3.67-5.59-.76-.57a17.94,17.94,0,0,0-10.53-3.46c-3.42,0-6.11,1-8,2.84a9.8,9.8,0,0,0-3,7.41,9.61,9.61,0,0,0,2.37,6.53,11,11,0,0,0,6.62,3.35l4,.58c2.83.5,3.18,2,3.17,3.24,0,1.43-.59,3.35-5,3.41a12,12,0,0,1-8.05-2.91l-.78-.65-4.33,5.13.74.65a18.12,18.12,0,0,0,12.36,4.57h0c9.49-.12,11.62-5.61,11.74-10.21a10.15,10.15,0,0,0-2.26-6.53,10.4,10.4,0,0,0-7-3.56"/><rect class="cls-1" x="340.55" y="69.05" width="6.39" height="6.53"/><polygon class="cls-1" points="365.87 75.5 372.52 75.5 372.52 62 382.45 62 382.45 55.73 372.52 55.73 372.52 48.41 387.44 48.41 387.44 41.88 365.87 41.88 365.87 75.5"/><path class="cls-1" d="M407.61,64.81a4.92,4.92,0,0,1-1.07,2.29A4.32,4.32,0,0,1,405,68.4a4.91,4.91,0,0,1-4.73,0A4.67,4.67,0,0,1,398.63,67a4.56,4.56,0,0,1-1-2.21,39.2,39.2,0,0,1-.31-6.12,39.06,39.06,0,0,1,.32-6.19,4.39,4.39,0,0,1,1-2.2A5,5,0,0,1,400.29,49a5.14,5.14,0,0,1,2.33-.55A5.63,5.63,0,0,1,405,49a4.87,4.87,0,0,1,1.58,1.42,4.5,4.5,0,0,1,1,2.14,40.75,40.75,0,0,1,.3,6.18,39.44,39.44,0,0,1-.3,6.12m5.51-17a11.69,11.69,0,0,0-3.81-4.28,11.53,11.53,0,0,0-6.69-2,11.29,11.29,0,0,0-6.58,2,11.66,11.66,0,0,0-3.85,4.2A9.92,9.92,0,0,0,391,51.14a57,57,0,0,0-.32,7.55,56.85,56.85,0,0,0,.32,7.49,9.93,9.93,0,0,0,.49,1.92c.19.45.4.92.64,1.43a12,12,0,0,0,10.47,6.23h0a11.66,11.66,0,0,0,6.64-2A11,11,0,0,0,413,69.64a8.44,8.44,0,0,0,1.24-3.48,63.15,63.15,0,0,0,.28-7.47,63.69,63.69,0,0,0-.28-7.53,8.41,8.41,0,0,0-1.16-3.3"/><path class="cls-1" d="M436.71,64.81a4.84,4.84,0,0,1-1.08,2.29,4.24,4.24,0,0,1-1.54,1.3,4.91,4.91,0,0,1-4.73,0A4.55,4.55,0,0,1,427.73,67a4.38,4.38,0,0,1-1-2.21,37.56,37.56,0,0,1-.32-6.12,39.06,39.06,0,0,1,.32-6.19,4.39,4.39,0,0,1,1-2.2A5.08,5.08,0,0,1,429.38,49a5.15,5.15,0,0,1,2.34-.55,5.62,5.62,0,0,1,2.39.54,4.8,4.8,0,0,1,1.59,1.42,4.69,4.69,0,0,1,1,2.14,42.64,42.64,0,0,1,.29,6.18,41.25,41.25,0,0,1-.29,6.12m5.5-17a11.49,11.49,0,0,0-10.49-6.24,11.27,11.27,0,0,0-6.58,2,11.6,11.6,0,0,0-3.86,4.2,9.92,9.92,0,0,0-1.16,3.37,54.71,54.71,0,0,0-.33,7.55,54.56,54.56,0,0,0,.33,7.49,9.93,9.93,0,0,0,.49,1.92c.18.45.39.92.63,1.43a12,12,0,0,0,10.47,6.23h.05a11.66,11.66,0,0,0,6.64-2,11.15,11.15,0,0,0,3.74-4.12,8.43,8.43,0,0,0,1.23-3.48,63.15,63.15,0,0,0,.28-7.47,63.69,63.69,0,0,0-.28-7.53,8.25,8.25,0,0,0-1.16-3.3"/><path class="cls-1" d="M466.79,64.51a4.55,4.55,0,0,1-.85,2.18A5.25,5.25,0,0,1,461.12,69h-4.55V48.4h4.76a5.14,5.14,0,0,1,4.49,2.32,4.53,4.53,0,0,1,1,2.34c.12,1.15.18,3.11.18,5.8s-.06,4.68-.17,5.65m5-16.8a11.22,11.22,0,0,0-10.2-5.83H449.92V75.51h11.41a11.42,11.42,0,0,0,6.34-1.71,12,12,0,0,0,4.08-4,18.68,18.68,0,0,0,.93-1.75,9.77,9.77,0,0,0,.57-2,48,48,0,0,0,.37-7.29,63.85,63.85,0,0,0-.25-6.89,10.56,10.56,0,0,0-1.53-4.09"/><path class="cls-1" d="M556,64.51a4.44,4.44,0,0,1-.84,2.18A5.25,5.25,0,0,1,550.38,69h-4.55V48.4h4.76a5.14,5.14,0,0,1,4.49,2.32,4.53,4.53,0,0,1,1,2.34c.12,1.15.18,3.11.18,5.8s-.06,4.68-.18,5.65m5.06-16.8a11.22,11.22,0,0,0-10.2-5.83H539.18V75.51h11.41a11.42,11.42,0,0,0,6.34-1.71,12,12,0,0,0,4.08-4,18.68,18.68,0,0,0,.93-1.75,9.2,9.2,0,0,0,.56-2,46.36,46.36,0,0,0,.38-7.29,63.85,63.85,0,0,0-.25-6.89,10.56,10.56,0,0,0-1.53-4.09"/><path class="cls-1" d="M585,54.52a4,4,0,0,1-3.15,1.22h-6v-7.6h6.27a4.28,4.28,0,0,1,2.81.78A3.3,3.3,0,0,1,586,51.7a4,4,0,0,1-1,2.82m7.43-2.84A9.49,9.49,0,0,0,589,44.21a10.22,10.22,0,0,0-6.9-2.33h-13V75.51h6.65V62h4.29l6.33,13.51h7.79L586.88,61c3.62-1.8,5.49-4.9,5.54-9.28"/><path class="cls-1" d="M614.82,63.27a5.78,5.78,0,0,1-1.47,4.23A5,5,0,0,1,609.59,69a4.91,4.91,0,0,1-3.74-1.5,5.66,5.66,0,0,1-1.5-4.2V41.88H597.7V63.81a11.39,11.39,0,0,0,3.49,8.61,11.78,11.78,0,0,0,8.39,3.35h0a11.61,11.61,0,0,0,11.88-12V41.88h-6.66Z"/><path class="cls-1" d="M505.67,69.61a6.67,6.67,0,0,1-5,.47,4.62,4.62,0,0,1-3.37-4.51,4.46,4.46,0,0,1,1.25-3.26,14.8,14.8,0,0,1,2.18-1.89l6.75,7.92a7.74,7.74,0,0,1-1.78,1.27M501.29,47.3A2.89,2.89,0,0,1,505.77,49a2.66,2.66,0,0,1-.78,2.54,15.56,15.56,0,0,1-2.55,1.91,14.12,14.12,0,0,1-2-2.77,2.83,2.83,0,0,1,.85-3.33m14.29,21a12,12,0,0,0,2.34-4.06,21.45,21.45,0,0,0,.94-4.33c.08-.62.12-1.24.18-1.88H513.2a17.6,17.6,0,0,1-.45,3.08,7.65,7.65,0,0,1-1.27,2.82c-1.92-2.26-3.8-4.5-5.7-6.74.14-.12.27-.2.4-.3a34,34,0,0,0,3.24-2.49A7.19,7.19,0,0,0,511.2,52a7.29,7.29,0,0,0,.21-4.57,7.05,7.05,0,0,0-2.18-3.72,8.29,8.29,0,0,0-4.56-2,11.45,11.45,0,0,0-5.88.64,7.51,7.51,0,0,0-4.58,8.9,10.72,10.72,0,0,0,2.28,4.35c.28.35.58.69.87,1l-.27.19a17.41,17.41,0,0,0-3.4,2.9,9.74,9.74,0,0,0-2.19,4.12,10.34,10.34,0,0,0,0,4.22,8.66,8.66,0,0,0,6.66,7.39,16.32,16.32,0,0,0,6.26.39,11.34,11.34,0,0,0,5.28-2c.5-.36,1-.74,1.53-1.14a1.4,1.4,0,0,0,.13.18l2.17,2.6a.45.45,0,0,0,.4.18h7.31c.06,0,.15,0,.22-.06l-6-7.1c.06-.08.1-.15.15-.21"/><path class="cls-1" d="M645,56.1h-6.81v6.52h6.25v.63a5.77,5.77,0,0,1-1.54,4.14A4.84,4.84,0,0,1,639.14,69a4.43,4.43,0,0,1-2.37-.61A4.72,4.72,0,0,1,635.14,67a4.34,4.34,0,0,1-1-2.21,37.56,37.56,0,0,1-.32-6.12,38.82,38.82,0,0,1,.32-6.18,4.39,4.39,0,0,1,1-2.21A4.87,4.87,0,0,1,636.8,49a5.33,5.33,0,0,1,2.32-.56,4.94,4.94,0,0,1,3.12,1.07A5.91,5.91,0,0,1,644,52.28l.22.72h6.89l-.22-1.19a13.12,13.12,0,0,0-3.82-7.2,12,12,0,0,0-14.52-1,11.77,11.77,0,0,0-3.86,4.2,10,10,0,0,0-1.15,3.37,54.11,54.11,0,0,0-.34,7.54,54,54,0,0,0,.34,7.49A9.44,9.44,0,0,0,628,68.1c.19.45.39.91.64,1.43a11.31,11.31,0,0,0,3.88,4.22,11.58,11.58,0,0,0,6.59,2h0A12.16,12.16,0,0,0,645,74.25v1.32h6.13V56.1H645Z"/><path class="cls-3" d="M120.3,37c.18,3.94-3,6.38-5.31,8.7L90.73,66.1c-2.18,2-5.33,3.71-6.56,6.75-1.6,4-2.2,8.49-2.89,12.93-.4,3.2-3.39,6-6.17,7.16-2.16.76-4.76.4-7.12.58l-8.46.06a2.67,2.67,0,0,0-1.7,1.12l-.31.85c-.91.13-.61-.66-.73-1.22,0-1.86.43-3.8,1.8-4.89a4.74,4.74,0,0,1,2.79-1.1l12.33-.17a3.08,3.08,0,0,0,1.7-.81l.51-1c1-6.15,1.55-12.51,4.6-17.73,2.84-3.31,6.41-5.59,9.57-8.51C97.4,54,105,47.65,112.22,41.34c2-1.93,4.21-4.49,4.71-7.55l.27-.82a4.7,4.7,0,0,1,3.1,4"/><path class="cls-3" d="M127.41,43.92c.36,3.83-2.64,5.64-5,8l-9.9,8.5L94.88,75.38c-2.5,2.81-2.62,6.8-3.26,10.4.1,1.17,1.29,1.65,1.06,2.88l-2.45,4.42c.13,1.75,2.28.73,3,1.83,0,.63-.4,1.42.1,2,.34.6,1.76-.21,1,.76-.21.16-.13.55-.07.76.29.39.84.42.89,1a2.84,2.84,0,0,0,.18,2.39c3.05,3.33,8.31-.79,11.49,2.34a3.18,3.18,0,0,1,.56,3c-1.7,5-11.75,5.35-8.32,12.41a4.09,4.09,0,0,0,3.28,2,6.05,6.05,0,0,0,2.94-.58c.3,0,.32.28.44.45v.19c-2.9,2.07-6.66,5.11-10.51,2.91a6,6,0,0,1-2.45-6.2c1.18-3.92,5.68-4.91,7.93-8.19a3.32,3.32,0,0,0-.13-3.16c-.72-1.28-2.38-1.63-3.83-1.89-2.42,0-6.12,1.48-7.2-1.36-.31-1.09.79-3-.94-3.24-.23-.3-.79-.57-.5-1.06.08-.29.58-.33.32-.7-.34-.09-.8,0-1.08-.31-1-1.07,1.73-2.24-.11-3-.92-.13-2.18.56-2.78-.5-.29-1,.45-1.7.82-2.51.62-1.39,2.43-2.31,2-4.11l-.89-1.51a55.8,55.8,0,0,1,1.76-10.4c1.21-3.73,4.81-5.81,7.56-8.37L110.4,55.58l10.44-9.19c1.82-1.68,3.4-3.57,3.34-6.12.55-.19.92.48,1.4.69a5.87,5.87,0,0,1,1.83,3"/><path class="cls-3" d="M123.44,62.51c-1.94,3.1-5.19,5.44-8.08,7.88L104,79.91a7.23,7.23,0,0,0-1.69,7.68c.11,1.29-.89,2.1-1.2,3.23,0,.34.1.76.44.86s1.19-.05,1.45.58c.07.66-.23,1.38.5,1.63.29.17.73-.34.76.18a1.39,1.39,0,0,0-.26,1c.36.66,1.18.3,1.51.84.14.77.14,1.76,1,2.08,2.94.49,5.17-1.5,7.83-2.08,4.2-1.31,8.26.34,12,1.45a20.2,20.2,0,0,0,5.81,0l.13.12c-2.39,2.92-5.33,5.75-9.5,5.47-4.39-.17-7.22-4.26-11.92-3.47-3.18.64-6.36,2.55-9.77,1.26a3.06,3.06,0,0,1-.9-3.21c-.16-.76-2-.94-.85-1.93-.35-.23-.95,0-1.14-.53s.47-1.49-.32-1.89c-.7-.11-1.62.29-2.15-.31a1.55,1.55,0,0,1-.12-1.32c.5-1.21,1.86-2.15,1.57-3.59-.92-.87-.62-2.32-.5-3.52.52-2.79.73-5.73,3.32-7.58L114,65c2.94-2.81,6.57-4.62,8.7-8.32a6.09,6.09,0,0,1,.75,5.8"/><path class="cls-3" d="M80.78,103.79a72.16,72.16,0,0,1,11.65,5.67,3.54,3.54,0,0,1,1.5,3.09c-1.21,5-8.19,5.55-7.16,11.47a5.58,5.58,0,0,0,3.91,4.72,6.18,6.18,0,0,0,3.25,0c.16.39.85.76.08,1-2.86,1.83-6.54,3.88-10,2.13a6.42,6.42,0,0,1-3.15-4.41c-.71-5.37,4.28-7,6.81-10.64a3.46,3.46,0,0,0,.38-2.39,5.26,5.26,0,0,0-2.15-2.21c-9.4-5.27-19.62-8.82-30.11-11.55-1.74-.16-4.44-1.18-5.6.84v.1c-.94.2-.58-.94-.58-1.44a4.92,4.92,0,0,1,2.9-3.79c2.72-.81,5.61.16,8.26.64a176,176,0,0,1,20,6.75"/><path class="cls-3" d="M76.69,126.15c0-.31-.06-.33-.57-.33-1.49,0-2.1.73-2.06,2.4s.67,2.34,2.16,2.31c.5,0,.56,0,.56-.2Zm1.84-.42c-.84.07-.88.09-.9.31a18.45,18.45,0,0,0,0,2.09c0,1.19,0,1.81.07,2.09s.08.23.92.27v.33l-2.66.05a2.57,2.57,0,0,1-2.11-.67,2.63,2.63,0,0,1-.81-2A2.67,2.67,0,0,1,76,125.45l2.54,0Z"/><path class="cls-3" d="M72.57,125.81c-.74,0-.77,0-.81.23s-.12.87-.21,2.09-.16,1.79-.15,2.07,0,.23.76.35l0,.34-2.92-.26a7,7,0,0,0-1.21,0,14.41,14.41,0,0,0,0-1.49l.33,0c.13,1,.29,1.16,1.37,1.24l.69.05c.09,0,.14,0,.16-.13l.15-1.77c0-.11,0-.14-.24-.17h-.23c-.83-.08-.9.06-1,.59l-.33,0c0-.26.07-.51.1-.87s0-.66,0-.88l.36,0c0,.56.09.7.69.75l.53.06c.1,0,.15,0,.15-.14l.17-2a.12.12,0,0,0-.13-.16l-1.31-.11c-.62-.06-.8.1-1,.59l-.22.53-.35-.13a9.82,9.82,0,0,0,.34-1.47l4.35.36Z"/><path class="cls-3" d="M65.34,127.54a2.33,2.33,0,0,0-.36-.08c-.77-.14-1.5-.14-1.69.88s.42,1.22,1.25,1.37c.36.06.39,0,.42-.12Zm2.23-2.16c-.8-.09-.84-.08-.9.12s-.2.88-.42,2-.34,1.8-.35,2.07,0,.24.8.45l-.06.32-2.8-.52a2.07,2.07,0,0,1-1.27-.67,1.24,1.24,0,0,1-.28-1c.22-1.08,1.22-1.36,2.59-1.11l.53.12.34-1.83c0-.21,0-.25-.9-.47l.05-.32,2.72.51Z"/><path class="cls-3" d="M59.68,125.58c-.06,0-.09,0-.09,0a1,1,0,0,0,0,.18l.2,2.07,1.28-1.7a.9.9,0,0,0,.07-.11s0-.06-.07-.08Zm3.74-.92c-.61-.13-.76,0-1.18.59L60,128.14a7.45,7.45,0,0,0-.61.87l-.4-.12a5.22,5.22,0,0,0,0-1l-.47-4c-.05-.54-.08-.64-.71-.8l.09-.33,2.56.73-.1.31c-.75-.19-.83-.13-.89.06a7.34,7.34,0,0,0,.07,1.18.16.16,0,0,0,.07.09c.19.07.57.19,1.31.4.48.13.51.11.62,0a8.71,8.71,0,0,0,.57-.84c.06-.24,0-.31-.71-.57l.1-.32,2,.58Z"/><path class="cls-3" d="M55,124.91c.05-.13.05-.18-.4-.36-1-.44-1.51.09-1.68.5a1.13,1.13,0,0,0,.79,1.49c.5.2.54.2.61,0Zm2.65-1.9c-.73-.24-.78-.23-.87-.05a18.54,18.54,0,0,0-.82,1.92c-.47,1.12-.7,1.69-.77,2s0,.25.65.59l-.12.3L53,126.63a1.87,1.87,0,0,1-1-.74,1.15,1.15,0,0,1-.06-1.13c.43-1.06,1.65-.77,1.68-.84a.43.43,0,0,0,0-.21l-.51-2c-.13-.51-.18-.6-.51-.75l.11-.3,1.19.49.61,2.89c0,.09.08.13.37.24s.3.13.33,0a16.32,16.32,0,0,0,.67-1.71c.07-.19,0-.24-.65-.57l.13-.31,2.39,1Z"/><path class="cls-3" d="M52.15,120.67c-.77-.34-.82-.34-.95-.17s-.22.38-.44.78l-1.64,3.17.79.41c.23.13.43,0,1.13-.67l.29.23a7.12,7.12,0,0,0-.81,1.23l-.39-.26a1.6,1.6,0,0,0-.38-.23l-2.37-1.24a7.29,7.29,0,0,0-.85-.35,9.08,9.08,0,0,0,.54-1.36l.35.09c-.13,1-.14,1.21.1,1.33l.79.41L50,120.87l.39-.81c.06-.21,0-.24-.68-.67l.15-.3,2.47,1.28Z"/><path class="cls-3" d="M48.59,118.89c-.72-.43-.78-.43-.92-.28s-.52.72-1.2,1.71-1,1.51-1.16,1.74-.07.23.6.76l-.19.27L44,121.91a1.65,1.65,0,0,1,.09-.21l1.11-4.15h0L41.5,120.2,39.79,119l.2-.27c.72.43.77.44.91.27s.53-.72,1.2-1.71,1-1.51,1.16-1.74.08-.23-.59-.76l.18-.27,2.24,1.53-.18.28c-.7-.41-.77-.41-.87-.25l-2.44,3.56,3.81-2.74a3.38,3.38,0,0,0,.33-.26l.47.34-.11.31-1.22,4.59h0l2-3a4.27,4.27,0,0,0,.35-.62c.09-.19.08-.23-.51-.7l.19-.26,1.84,1.24Z"/><path class="cls-3" d="M42.6,114.69c-.58-.44-.63-.44-.79-.31s-.6.66-1.39,1.56-1.2,1.38-1.35,1.59-.11.22.4.74l-.22.25L37,116.59a8.32,8.32,0,0,0-1-.72,11.86,11.86,0,0,0,.88-1.2l.28.17c-.49.91-.43,1.09.38,1.81l.53.45c.08.07.13.06.21,0l1.16-1.33c.07-.08.08-.13-.11-.27l-.14-.14c-.64-.56-.77-.5-1.19-.14L37.8,115c.18-.18.34-.35.6-.65s.42-.51.56-.68l.27.23c-.35.46-.36.62.11,1l.39.37a.13.13,0,0,0,.21,0l1.3-1.49c.07-.07.06-.14,0-.22l-1-.86a.79.79,0,0,0-1.16-.11l-.46.3-.22-.32a12,12,0,0,0,1.15-1l3.28,2.88Z"/><path class="cls-3" d="M38.87,111.44c-.55-.51-.59-.52-.77-.4s-.67.58-1.55,1.4-1.34,1.24-1.51,1.44-.13.22.34.81l-.24.21-1.09-1.16a3.53,3.53,0,0,0,.1-.41l1-4.21h0l-.88.82c-.89.82-1.34,1.24-1.52,1.45s-.13.22.41.86l-.24.23-1.5-1.61.24-.23c.49.53.58.55.89.29s.69-.6,1-.88c1.11-1,2-1.91,2.45-2.37l.38.42a12.22,12.22,0,0,0-.51,1.87l-.7,3.24h0l1.15-1.06c.88-.82,1.33-1.23,1.52-1.45s.12-.21-.48-1l.24-.22,1.56,1.69Z"/><path class="cls-3" d="M34.3,106.31c-.56-.65-.6-.66-.78-.56a6.54,6.54,0,0,0-.73.51l-2.87,2.15.53.71c.16.21.41.16,1.33-.12l.15.33a7.79,7.79,0,0,0-1.26.75c-.09-.13-.15-.27-.23-.4s-.17-.26-.26-.37l-1.59-2.14a7,7,0,0,0-.62-.68,8.74,8.74,0,0,0,1.09-1l.27.23c-.54.81-.64,1-.49,1.24l.53.71,2.88-2.14c.36-.28.57-.46.69-.56s.15-.19-.32-.91l.27-.19,1.67,2.22Z"/><path class="cls-3" d="M29.25,98.41c-.38-.74-1.42-1-2.89-.21s-1.84,1.77-1.45,2.51,1.42,1,2.89.21,1.84-1.78,1.45-2.51m-4.67,2.47a2.59,2.59,0,0,1,1.31-3.57,2.61,2.61,0,0,1,3.7.91,2.64,2.64,0,0,1-1.32,3.6,2.61,2.61,0,0,1-3.69-.94"/><path class="cls-3" d="M27.78,95.69c-.32-.64-.35-.67-.56-.61s-.84.3-1.94.75-1.7.68-1.94.82-.19.14,0,.83l-.29.11L22,94.89a10.07,10.07,0,0,0-.54-1.09,10.4,10.4,0,0,0,1.31-.68l.18.28c-.85.59-.88.78-.47,1.78l.25.65c0,.09.1.11.21.07l1.63-.66c.09,0,.12-.07,0-.28l-.08-.21c-.32-.77-.46-.77-1-.64l-.14-.32.82-.31.81-.34.13.32c-.5.25-.59.4-.36,1l.2.49c0,.09.08.12.19.08l1.74-.7c.2-.07.2-.15-.08-1l.3-.13,1,2.37Z"/><path class="cls-3" d="M25.3,89.18c-.23-.77-.27-.8-.48-.77s-.87.17-2,.44-1.77.42-2,.51-.22.12-.07.91l-.35.07-.6-2.62.32-.08c.23.77.26.8.48.77a6.68,6.68,0,0,0,1-.19l.5-.11c.23-.06.25-.09.2-.29l-.46-2c-.05-.19-.09-.2-.31-.15l-.51.11c-.35.1-.81.2-.95.25s-.22.13-.1.91l-.31.08-.63-2.61.34-.09c.23.76.26.81.47.78s.88-.18,2-.44,1.78-.42,2-.51.21-.13.08-.91l.32-.08.61,2.63-.32.08c-.23-.77-.26-.81-.47-.78s-.84.16-1.73.37c-.22,0-.25.08-.2.28l.46,2c.05.2.08.22.31.16.88-.2,1.5-.36,1.71-.43s.22-.13.08-.91l.34-.08.6,2.64Z"/><path class="cls-3" d="M23.91,83c-.15-.71-.18-.74-.39-.74s-.89.07-2.08.21-1.81.22-2.07.29-.23.08-.19.81l-.34,0-.35-2.9a7.4,7.4,0,0,0-.23-1.19c.37-.06,1.25-.24,1.45-.31l.1.31c-1,.35-1.07.51-.93,1.59l.08.7q0,.14.18.12l1.76-.22c.11,0,.13,0,.11-.26l0-.21c-.1-.84-.25-.88-.8-.89l0-.33c.26,0,.5,0,.88-.09l.87-.13,0,.34c-.55.13-.67.25-.6.84l.07.54c0,.09.05.13.16.12l1.95-.24c.11,0,.15,0,.15-.15l-.16-1.32c-.07-.62-.26-.75-.8-.86L22.15,79l.05-.38a9.83,9.83,0,0,0,1.52,0l.51,4.32Z"/><path class="cls-3" d="M21.35,74.93c0-.06,0-.09,0-.09a.61.61,0,0,0-.18,0l-1.93.77,2,.74.13,0s0,0,0-.09Zm2,3.29c0-.6-.24-.7-.91-1L19,76a9.65,9.65,0,0,0-1-.36v-.4a4.45,4.45,0,0,0,.91-.31l3.74-1.61c.49-.2.58-.26.57-.91h.32l.05,2.65h-.33c0-.78-.12-.83-.32-.83a5.7,5.7,0,0,0-1.1.4.14.14,0,0,0-.07.1c0,.19,0,.59,0,1.37,0,.49,0,.51.21.58a5.55,5.55,0,0,0,1,.29c.23,0,.29-.09.34-.83h.32l0,2.08Z"/><path class="cls-3" d="M23.25,72.22c0-.74,0-.79-.22-.82s-.88-.1-2.07-.21S19.14,71,18.87,71s-.24,0-.36.78l-.34,0,.23-2.48.31,0c0,.75,0,.79.23.83l1,.12,3.08.26c.27,0,.33,0,.36-.28l.07-.89c.07-.75-.15-.89-1.19-1.42l.13-.33A10.31,10.31,0,0,0,24,68l-.37,4.28Z"/><path class="cls-3" d="M23.76,67.1c.09-.84.08-.87-.14-.94a6.41,6.41,0,0,0-.86-.19l-3.54-.61-.13.89c-.06.26.14.41,1,.87l-.13.35a10,10,0,0,0-1.42-.4c.05-.15.09-.29.13-.44s.06-.3.09-.44l.45-2.64a4.31,4.31,0,0,0,.09-.91,11.35,11.35,0,0,0,1.46.11l0,.36c-.95.16-1.2.22-1.24.48l-.16.89,3.54.61a5.53,5.53,0,0,0,.88.11c.21,0,.25,0,.44-.84l.33,0-.49,2.74Z"/><path class="cls-3" d="M24.36,63.39c.16-.78.15-.84,0-.91s-.85-.28-2-.61-1.76-.49-2-.54-.25,0-.53.76l-.31-.1.73-2.58.32.09c-.16.78-.15.83,0,.91s.6.2,1,.31l.5.14c.21.06.25,0,.31-.15l.56-2c0-.2,0-.24-.19-.3l-.51-.14c-.34-.11-.8-.21-1-.25s-.25,0-.52.76l-.31-.1.73-2.58.32.08c-.16.79-.16.83,0,.92s.85.27,2,.6,1.75.49,2,.54.24,0,.51-.75l.32.08-.73,2.6-.33-.09c.17-.78.16-.83,0-.91s-.81-.27-1.68-.52c-.22-.06-.26,0-.32.14l-.56,2c-.05.19,0,.22.2.29l1.7.45c.21,0,.24,0,.52-.75l.3.08-.73,2.59Z"/><path class="cls-3" d="M27.88,53A1.57,1.57,0,0,0,28,52a14.19,14.19,0,0,1-2.64.28A1.16,1.16,0,0,0,26,53.44,1.49,1.49,0,0,0,27.88,53M25,51.52a.9.9,0,0,0-.56-.87.59.59,0,0,0-.83.18.51.51,0,0,0,.33.7,1.45,1.45,0,0,0,1.06,0m4.45-1.64a2.23,2.23,0,0,1-.13,1.28c-.16.34-.45.53-1,.73a2.28,2.28,0,0,1-.12,1.65,1.56,1.56,0,0,1-2.14.82c-.68-.32-1-.92-1-2a2.63,2.63,0,0,1-1.37-.07c-.47-.23-.75-.72-.39-1.51s.83-1,1.42-.69a1.36,1.36,0,0,1,.65,1.42c.84-.05,1.62-.12,2.42-.24a2.15,2.15,0,0,0-.75-1c-.21-.11-.36,0-.54.26l-.29-.15.76-1.62.31.14A1,1,0,0,0,27.41,50a5,5,0,0,1,.67,1.15c.65-.15.82-.22,1-.52a1.61,1.61,0,0,0,.08-.91Z"/><path class="cls-3" d="M30.76,47.55c.42-.68.42-.73.26-.88s-.71-.53-1.7-1.21-1.49-1.05-1.71-1.17-.25-.09-.75.53l-.27-.19,1.55-2.2.26.18c-.41.69-.41.75-.26.88s.51.39.82.6l.41.3c.18.12.23.12.34,0l1.18-1.67c.11-.17.11-.21-.09-.34l-.43-.3c-.29-.22-.68-.46-.83-.55s-.23-.07-.73.54l-.27-.18,1.54-2.2.28.18c-.42.68-.42.73-.27.87s.71.54,1.71,1.23,1.48,1,1.72,1.18.23.08.73-.55l.28.19L33,45l-.28-.19c.41-.68.42-.74.27-.87s-.7-.52-1.45-1c-.18-.14-.22-.13-.33,0L30,44.57c-.11.16-.1.2.09.33.75.53,1.27.88,1.46,1s.24.08.74-.55l.26.2L31,47.74Z"/><path class="cls-3" d="M30.67,38.91l1.81-2,.24.21c-.49.63-.5.68-.37.85s.64.61,2.1,1.92a1.37,1.37,0,0,0,2.11,0c.91-1,.53-1.6-.65-2.68-.95-.85-1.42-1.26-1.64-1.42s-.21-.11-.82.49l-.24-.24,1.5-1.65.25.2c-.5.64-.51.69-.37.86s.65.6,1.89,1.74c.91.82,1.64,1.7.31,3.16a1.89,1.89,0,0,1-3,.15c-1.44-1.29-1.9-1.71-2.12-1.86s-.22-.11-.79.44Z"/><path class="cls-3" d="M38.39,37.9c.61-.59.62-.64.5-.82a20.1,20.1,0,0,0-1.33-1.6c-.79-.92-1.19-1.39-1.4-1.57s-.2-.14-.87.37L35.07,34l1.59-1.37a1.14,1.14,0,0,0,.19.15L40.55,35h0L39,30.69l1.56-1.34.22.25c-.6.59-.63.65-.5.82s.55.69,1.33,1.6,1.2,1.38,1.4,1.56.2.15.88-.37l.21.25-2,1.77L41.78,35c.58-.57.59-.64.48-.78l-2.82-3.28,0,0L41.1,35.3a2.71,2.71,0,0,0,.17.39l-.45.38a2.44,2.44,0,0,0-.29-.19l-4.1-2.37,0,0,2.36,2.72a6,6,0,0,0,.51.51c.17.14.2.13.81-.31l.22.24-1.69,1.45Z"/><path class="cls-3" d="M45.94,29.6c.06,0,.07-.07.06-.1a1.09,1.09,0,0,1-.13-.11l-1.69-1.22.43,2.09a.55.55,0,0,0,0,.12s.07,0,.1,0ZM44.18,33c.49-.37.47-.59.34-1.28l-.73-3.56a8,8,0,0,0-.24-1l.34-.2a5.47,5.47,0,0,0,.74.59L48,29.84c.44.31.54.35,1.08,0l.18.28L47,31.56l-.19-.29c.65-.45.66-.54.54-.7a6.13,6.13,0,0,0-.92-.73.13.13,0,0,0-.12,0c-.16.1-.51.29-1.17.72-.41.26-.4.31-.38.49a5.23,5.23,0,0,0,.27,1c.13.2.23.2.88-.17l.18.29-1.75,1.13Z"/><path class="cls-3" d="M49.3,29.71c.65-.39.68-.43.59-.63s-.36-.81-.9-1.88-.8-1.63-1-1.86-.17-.18-.85.1L47,25.15l1.44-.71.36.21,3.76,2.11h0l-.54-1.09c-.53-1.08-.81-1.63-1-1.86s-.16-.18-.94.14L50,23.66l2-1,.15.3c-.66.32-.69.39-.52.78s.36.82.54,1.19c.68,1.36,1.25,2.49,1.58,3l-.51.24a11,11,0,0,0-1.65-1L48.67,25.6h0l.7,1.41c.53,1.07.81,1.63,1,1.86s.17.18,1-.19l.15.29-2.06,1Z"/><path class="cls-3" d="M57.44,24.48c.52.81,1.1,1.29,1.89,1s1.09-.85,1-1.31-.58-.55-1.17-.57h-.64c-1.45,0-1.75-.44-1.93-1A1.79,1.79,0,0,1,58,20.4a5.76,5.76,0,0,1,1.51-.26,3.4,3.4,0,0,0,.09.33c.11.35.24.7.39,1.06l-.35.11c-.41-.88-1-1.06-1.67-.84A1.09,1.09,0,0,0,57.1,22c.1.33.34.5.95.53l1.37.05A1.41,1.41,0,0,1,61,23.66c.31,1-.32,1.86-1.53,2.24-.54.16-1.18.12-1.7.27-.13-.37-.4-1-.6-1.51Z"/><path class="cls-3" d="M61.75,24.7c.69-.2.71-.23.71-.43s-.17-.88-.41-2.06-.36-1.79-.45-2-.11-.22-.82-.13l-.07-.31,2.86-.6a8.27,8.27,0,0,0,1.16-.34,10.27,10.27,0,0,0,.45,1.41l-.32.12c-.42-.94-.6-1-1.67-.78l-.68.14c-.09,0-.13.07-.11.18l.37,1.72c0,.12,0,.14.26.1l.22,0c.83-.17.85-.31.81-.87l.34-.07c0,.25.08.5.15.86s.16.65.2.85l-.33.08c-.16-.54-.28-.65-.89-.52l-.52.09c-.1,0-.13.08-.11.18l.4,1.93c0,.11.08.14.18.12L64.77,24c.62-.14.73-.33.78-.86l.06-.56.37,0a13,13,0,0,0,.1,1.5l-4.27.9Z"/><path class="cls-3" d="M68.18,20.74c0,.14,0,.17.54.13,1.21-.11,1.37-.8,1.33-1.23-.07-.64-.61-1-1.46-.94-.56.05-.6.08-.58.27Zm-1.51,2.93c.78-.13.82-.16.82-.38s0-.88-.17-2.08-.18-1.81-.23-2.08-.09-.22-.89-.2l0-.32,3-.3a2,2,0,0,1,1.28.18,1.13,1.13,0,0,1,.6,1c.12,1.13-1.14,1.46-1.14,1.52s0,.09.12.19l1.45,1.53c.35.39.45.46.83.42l0,.33L71,23.57l-2-2.26c-.06-.07-.12-.08-.46,0s-.33,0-.33.12c.14,1.39.18,1.61.22,1.82s.09.23.89.2l0,.33L66.7,24Z"/><path class="cls-3" d="M71.29,18.1l2.67,0v.32h-.37c-.36,0-.43.13-.43.25s.41,1.17.82,2.21l.59,1.46.59-1.57a17.21,17.21,0,0,0,.73-2.15c0-.22-.13-.22-.82-.22V18l2.09,0v.33h-.22c-.36,0-.5.16-.85,1.09a24.25,24.25,0,0,0-1.45,4.18h-.51a43,43,0,0,0-1.84-4.5c-.33-.66-.37-.67-1-.67Z"/><path class="cls-3" d="M77.33,23.19c.84,0,.89,0,.93-.22s.1-.88.19-2.07.15-1.82.14-2.09,0-.23-.89-.36l0-.33,2.78.22,0,.33c-.84,0-.89,0-.92.21a18.75,18.75,0,0,0-.2,2.09c-.1,1.2-.16,1.82-.14,2.08s0,.24.88.36l0,.34-2.78-.22Z"/><path class="cls-3" d="M85.64,23.34a2.76,2.76,0,0,1-2.58,1A2.57,2.57,0,0,1,81,21.1a2.7,2.7,0,0,1,3.24-2.37,7.2,7.2,0,0,1,1.59.51,13,13,0,0,0,0,1.5l-.38,0c-.12-1-.51-1.53-1.39-1.68s-1.77.67-2,2.14.45,2.49,1.35,2.62a2.19,2.19,0,0,0,2-.76Z"/><path class="cls-3" d="M85.7,24.29c.71.14.75.13.83-.07s.27-.85.57-2,.48-1.76.53-2,0-.24-.69-.49l.08-.32,2.82.77a7.38,7.38,0,0,0,1.2.22c-.09.37-.24,1.25-.26,1.47l-.32,0c0-1-.08-1.18-1.12-1.46l-.69-.18c-.09,0-.15,0-.17.12L88,22c0,.09,0,.14.19.2l.22.06c.81.22.91.1,1.12-.41l.33.09c-.08.25-.16.47-.25.84s-.16.64-.21.86l-.34-.08c.11-.57,0-.73-.55-.87L88,22.51a.13.13,0,0,0-.18.11l-.52,1.91c0,.1,0,.15.1.18l1.29.34a.78.78,0,0,0,1.09-.41l.29-.48.32.2a11.07,11.07,0,0,0-.59,1.39l-4.21-1.14Z"/><path class="cls-3" d="M91.6,24.44c-.1.95.07,1.68.85,2s1.38,0,1.55-.47-.12-.78-.57-1.15l-.51-.4c-1.13-.92-1.11-1.42-.9-2a1.8,1.8,0,0,1,2.5-.86,6.47,6.47,0,0,1,1.35.7c0,.1-.09.23-.13.33-.13.35-.23.7-.35,1.08l-.34-.12c.22-1-.11-1.42-.8-1.68a1.06,1.06,0,0,0-1.43.44c-.12.32,0,.61.43,1l1,.89a1.41,1.41,0,0,1,.56,1.77c-.37,1-1.39,1.28-2.57.84-.53-.2-1-.64-1.52-.82.13-.39.34-1.07.45-1.57Z"/><path class="cls-3" d="M97.88,25.52a.54.54,0,0,1,.25.73.54.54,0,0,1-.72.25.53.53,0,0,1-.25-.72.53.53,0,0,1,.72-.26"/><path class="cls-3" d="M100.39,24.2l2.32,1.35-.17.28c-.72-.35-.75-.35-.89-.18s-.47.76-1.47,2.45a1.37,1.37,0,0,0,.41,2.07c1.17.68,1.67.2,2.48-1.19.64-1.09,1-1.64,1.07-1.88s0-.24-.65-.71l.17-.29,1.94,1.14-.17.28c-.72-.35-.77-.36-.89-.18s-.48.74-1.33,2.2c-.61,1.05-1.34,1.94-3,1a1.91,1.91,0,0,1-.76-2.87c1-1.68,1.29-2.22,1.39-2.47s.06-.23-.58-.68Z"/><path class="cls-3" d="M104.6,31c-.36.88-.39,1.65.27,2.14s1.34.37,1.63,0,.08-.79-.25-1.27l-.36-.51c-.85-1.21-.69-1.67-.31-2.17A1.77,1.77,0,0,1,108.2,29a6.71,6.71,0,0,1,1.11,1.05c-.06.08-.15.18-.21.27-.22.3-.43.62-.63.95l-.3-.22a1.23,1.23,0,0,0-.31-1.83,1.08,1.08,0,0,0-1.5,0c-.2.28-.2.58.14,1.07l.77,1.13a1.43,1.43,0,0,1,.06,1.87c-.61.83-1.68.85-2.7.11-.46-.36-.79-.89-1.24-1.22.22-.34.61-.93.86-1.39Z"/><path class="cls-3" d="M110.68,35.36s.08,0,.1,0a.8.8,0,0,0,.08-.16l.76-1.93-1.91.94-.11.07a.07.07,0,0,0,0,.1ZM107,34.52c.47.38.67.31,1.31,0l3.25-1.59c.56-.28.7-.35.95-.5l.3.27a4.62,4.62,0,0,0-.4.87L111,37.4c-.18.51-.2.6.29,1l-.22.24-2-1.78.21-.25c.6.51.71.51.83.35a7.08,7.08,0,0,0,.47-1.08.13.13,0,0,0,0-.12c-.13-.15-.42-.43-1-.95-.37-.33-.41-.32-.56-.24a5.59,5.59,0,0,0-.89.51c-.16.17-.13.27.38.81l-.23.24-1.54-1.4Z"/></svg>