<svg id="Layer_1" data-name="Layer 1" xmlns="http://www.w3.org/2000/svg" viewBox="0 0 244.06 126.56"><defs><style>.cls-1{fill:#007cba;}.cls-2{fill:#fff;}.cls-3{fill:#2d2a26;}</style></defs><rect class="cls-1" x="153.71" y="13.08" width="84.35" height="101.22"/><polygon class="cls-2" points="212.97 54.26 219.65 54.26 218.28 49.48 214.48 49.48 217.86 39.55 224.88 60.66 230.85 60.66 220.45 32.96 214.95 32.96 204.55 60.66 210.76 60.66 212.97 54.26"/><path class="cls-2" d="M167.92,49.23h7.8v-5h-7.8V37.92h23.43a8.5,8.5,0,0,1,3,.59,6,6,0,0,1,2.31,1.74A7.09,7.09,0,0,1,198,43a15.29,15.29,0,0,1,.41,3.66,13.69,13.69,0,0,1-.47,3.71,7.69,7.69,0,0,1-1.45,2.85,6.47,6.47,0,0,1-2.59,1.84,10.33,10.33,0,0,1-3.83.64H186.3V44.31h-5.78V60.65h9.39a18.91,18.91,0,0,0,6.05-.89,11.43,11.43,0,0,0,7.39-7.06,16.9,16.9,0,0,0,1-6.05q0-6.78-3.55-10.24A13.08,13.08,0,0,0,191.92,33v0H162.14V60.65h5.78Z"/><path class="cls-3" d="M108.3,25c.18,3.94-2.94,6.38-5.31,8.7L78.73,54.1c-2.18,2-5.32,3.72-6.55,6.76-1.61,4-2.21,8.49-2.9,12.92-.4,3.2-3.39,6-6.17,7.16-2.16.76-4.76.41-7.12.59l-8.45,0a2.68,2.68,0,0,0-1.71,1.13l-.31.84c-.91.13-.61-.66-.74-1.21,0-1.86.44-3.81,1.81-4.9a4.76,4.76,0,0,1,2.79-1.1l12.33-.17a3,3,0,0,0,1.7-.8l.51-1c1-6.14,1.55-12.51,4.6-17.72,2.84-3.32,6.41-5.6,9.57-8.51C85.4,42,93,35.65,100.22,29.34c2-1.93,4.21-4.48,4.72-7.54l.26-.82a4.67,4.67,0,0,1,3.1,4"/><path class="cls-3" d="M115.41,31.92c.36,3.83-2.64,5.65-5,8l-9.89,8.5L82.88,63.38c-2.49,2.81-2.62,6.8-3.26,10.4.11,1.18,1.29,1.66,1.06,2.89l-2.45,4.41c.13,1.76,2.28.74,3,1.84,0,.63-.4,1.42.09,1.94s1.76-.21,1,.76c-.2.16-.13.55-.07.76.3.39.84.42.89,1a2.87,2.87,0,0,0,.18,2.4c3.05,3.32,8.31-.8,11.49,2.33a3.21,3.21,0,0,1,.57,3c-1.7,5-11.76,5.35-8.32,12.42a4.11,4.11,0,0,0,3.27,2,6.12,6.12,0,0,0,3-.59c.29,0,.32.29.44.45v.19c-2.91,2.07-6.66,5.12-10.52,2.91a6,6,0,0,1-2.44-6.2c1.17-3.91,5.67-4.91,7.92-8.19A3.32,3.32,0,0,0,88.55,95c-.71-1.28-2.38-1.63-3.83-1.89-2.42,0-6.12,1.48-7.2-1.36-.31-1.08.79-3-.94-3.24-.23-.3-.79-.57-.5-1.06.08-.29.58-.33.32-.7-.34-.09-.8,0-1.08-.31-1-1.07,1.73-2.23-.1-3-.93-.13-2.19.56-2.79-.5-.29-1,.45-1.71.82-2.52.62-1.39,2.44-2.3,2-4.1l-.9-1.52a56.78,56.78,0,0,1,1.76-10.4c1.21-3.73,4.81-5.81,7.56-8.36L98.4,43.59l10.44-9.2c1.82-1.68,3.4-3.57,3.34-6.12.55-.18.92.48,1.4.69a5.91,5.91,0,0,1,1.83,3"/><path class="cls-3" d="M111.45,50.51c-2,3.11-5.2,5.44-8.09,7.89L92,67.91a7.23,7.23,0,0,0-1.69,7.68c.11,1.29-.89,2.1-1.2,3.23,0,.34.1.77.45.86s1.18-.05,1.45.58c.06.66-.24,1.38.49,1.63.29.17.73-.34.76.18A1.39,1.39,0,0,0,92,83c.37.66,1.18.3,1.51.85.15.77.15,1.75,1,2.07,2.95.49,5.17-1.5,7.83-2.07,4.2-1.32,8.26.33,12,1.45a20.56,20.56,0,0,0,5.81,0l.13.11c-2.39,2.92-5.33,5.76-9.5,5.47-4.39-.16-7.22-4.25-11.92-3.47-3.18.64-6.35,2.55-9.77,1.26a3.07,3.07,0,0,1-.9-3.2c-.16-.76-2-.95-.85-1.94-.35-.23-.95,0-1.14-.53s.47-1.49-.31-1.89c-.71-.11-1.63.29-2.15-.31a1.5,1.5,0,0,1-.13-1.31c.5-1.21,1.86-2.16,1.57-3.6-.92-.87-.61-2.32-.5-3.52.52-2.79.74-5.72,3.32-7.57L102,53c2.94-2.8,6.56-4.62,8.69-8.32a6.12,6.12,0,0,1,.76,5.8"/><path class="cls-3" d="M68.78,91.79a71.88,71.88,0,0,1,11.66,5.68,3.54,3.54,0,0,1,1.5,3.08c-1.22,5-8.2,5.55-7.17,11.47a5.6,5.6,0,0,0,3.91,4.73,6.43,6.43,0,0,0,3.26,0c.15.38.84.75.07,1-2.86,1.83-6.53,3.89-10,2.13a6.45,6.45,0,0,1-3.15-4.41c-.71-5.36,4.29-7,6.81-10.64a3.46,3.46,0,0,0,.38-2.39,5.26,5.26,0,0,0-2.15-2.21C64.47,95,54.26,91.42,43.76,88.7c-1.74-.17-4.44-1.19-5.6.84v.09c-.94.2-.58-.93-.58-1.43a4.88,4.88,0,0,1,2.9-3.79c2.72-.81,5.62.16,8.26.63a178,178,0,0,1,20,6.75"/><path class="cls-3" d="M64.69,114.15c0-.31-.06-.33-.57-.33-1.49,0-2.09.73-2.06,2.41s.67,2.34,2.16,2.31c.5,0,.56-.05.56-.2Zm1.84-.42c-.84.07-.88.09-.9.31s0,.89,0,2.09,0,1.82.07,2.09.08.24.93.27v.33l-2.66.05a2.55,2.55,0,0,1-2.91-2.63A2.66,2.66,0,0,1,64,113.45l2.54,0Z"/><path class="cls-3" d="M60.57,113.81c-.73,0-.77,0-.81.23s-.12.87-.21,2.09-.15,1.79-.14,2.07,0,.24.75.35l0,.34-2.92-.25a5.41,5.41,0,0,0-1.21,0,14.38,14.38,0,0,0,0-1.49l.34,0c.12,1,.28,1.15,1.36,1.23l.69.06c.1,0,.14,0,.16-.14l.15-1.77c0-.11,0-.14-.24-.16h-.23c-.82-.08-.9,0-1,.59l-.34,0c0-.25.07-.5.11-.87s0-.65,0-.88l.36,0c0,.57.08.71.68.76l.54,0c.09,0,.14,0,.15-.13l.17-2c0-.1,0-.15-.13-.15l-1.32-.12c-.62-.06-.8.11-1,.6l-.22.52-.35-.13a9.82,9.82,0,0,0,.34-1.47l4.35.36Z"/><path class="cls-3" d="M53.34,115.54l-.36-.08c-.77-.13-1.5-.13-1.69.89s.42,1.21,1.25,1.36c.36.06.39,0,.42-.12Zm2.23-2.16c-.79-.08-.83-.07-.9.13s-.2.87-.42,2-.33,1.79-.35,2.06,0,.24.81.45l-.07.32-2.8-.52a2.07,2.07,0,0,1-1.27-.67,1.23,1.23,0,0,1-.28-1c.22-1.07,1.22-1.36,2.59-1.11l.54.12.33-1.83c0-.21,0-.24-.9-.47l0-.32,2.73.51Z"/><path class="cls-3" d="M47.69,113.58c-.06,0-.1,0-.1,0a1,1,0,0,0,0,.18l.2,2.07,1.28-1.7a.9.9,0,0,0,.07-.11s0-.05-.07-.07Zm3.73-.91c-.61-.13-.76,0-1.18.59L48,116.14a10.47,10.47,0,0,0-.61.87l-.4-.12a6.23,6.23,0,0,0,0-1l-.48-4c-.05-.55-.08-.65-.71-.81l.09-.33,2.56.73-.09.31c-.75-.18-.84-.12-.89.07a7.26,7.26,0,0,0,.06,1.17.14.14,0,0,0,.08.09c.18.07.56.2,1.3.4.48.13.51.11.62,0a7.26,7.26,0,0,0,.57-.85c.06-.24,0-.31-.7-.57l.09-.31,2,.57Z"/><path class="cls-3" d="M43,112.92c0-.14,0-.18-.4-.37-1.06-.43-1.52.09-1.69.5-.24.58,0,1.18.8,1.49.49.2.53.2.61,0ZM45.63,111c-.73-.23-.78-.23-.87,0a17.91,17.91,0,0,0-.82,1.91,18.53,18.53,0,0,0-.76,2c-.07.2,0,.25.64.59l-.12.31L41,114.63a1.82,1.82,0,0,1-1-.74,1.15,1.15,0,0,1-.06-1.13c.43-1.06,1.66-.77,1.68-.83a.47.47,0,0,0,0-.22l-.51-2c-.12-.52-.18-.61-.51-.76l.11-.3,1.19.49.62,2.89c0,.1.07.13.37.25s.3.12.33,0a15.46,15.46,0,0,0,.66-1.71c.07-.2,0-.25-.65-.58l.13-.31,2.39,1Z"/><path class="cls-3" d="M40.15,108.67c-.77-.34-.82-.34-.95-.17s-.22.38-.43.78l-1.65,3.17.79.42c.23.12.44,0,1.13-.68l.29.23a7.12,7.12,0,0,0-.81,1.23l-.38-.26a2.5,2.5,0,0,0-.39-.23l-2.37-1.23a6.74,6.74,0,0,0-.85-.36,8.31,8.31,0,0,0,.54-1.36l.35.09c-.13,1-.13,1.21.1,1.33l.8.41L38,108.87c.21-.41.33-.66.39-.81s0-.24-.68-.67l.15-.3,2.47,1.29Z"/><path class="cls-3" d="M36.59,106.89c-.72-.43-.77-.43-.91-.28s-.53.72-1.2,1.71-1,1.51-1.17,1.74-.07.24.6.76l-.19.27L32,109.91a1.65,1.65,0,0,1,.09-.21l1.11-4.15h0l-3.68,2.67-1.71-1.16.2-.28c.72.43.76.44.9.28s.53-.73,1.2-1.72,1-1.5,1.16-1.74.08-.23-.58-.75l.17-.28,2.24,1.54-.18.27c-.7-.41-.77-.41-.87-.25l-2.44,3.57,3.81-2.75a3.38,3.38,0,0,0,.33-.26l.48.34a2.93,2.93,0,0,0-.12.31l-1.22,4.59h0l2-3a4.75,4.75,0,0,0,.35-.62c.09-.19.07-.23-.52-.7l.19-.26,1.84,1.24Z"/><path class="cls-3" d="M30.6,102.69c-.57-.44-.62-.44-.78-.3s-.61.65-1.4,1.55-1.2,1.38-1.35,1.6-.11.21.4.73l-.22.25L25,104.59a10.88,10.88,0,0,0-1-.72,13.32,13.32,0,0,0,.87-1.2l.28.17c-.49.91-.43,1.09.38,1.81l.53.46c.08.06.13,0,.21,0l1.16-1.34c.07-.08.08-.12-.1-.27l-.15-.14c-.64-.56-.77-.5-1.19-.14L25.8,103c.18-.18.34-.35.6-.64s.42-.52.56-.68l.27.23c-.35.45-.36.62.11,1l.39.37c.07,0,.14.07.21,0l1.3-1.49c.08-.07.06-.14,0-.21l-1-.87a.79.79,0,0,0-1.16-.1l-.46.3-.22-.32a13.54,13.54,0,0,0,1.15-1l3.28,2.87Z"/><path class="cls-3" d="M26.87,99.44c-.54-.51-.59-.52-.76-.4s-.68.58-1.56,1.4-1.34,1.25-1.51,1.45-.13.22.34.8l-.24.22-1.09-1.17a3.08,3.08,0,0,0,.1-.41l1-4.21h0l-.88.82c-.89.82-1.34,1.24-1.52,1.45s-.13.22.41.86l-.24.23-1.5-1.61.24-.22c.5.52.58.54.89.28s.69-.6,1-.88c1.11-1,2-1.9,2.45-2.36l.39.41A12.56,12.56,0,0,0,23.82,98l-.7,3.25h0l1.15-1.06c.88-.82,1.34-1.23,1.52-1.45s.12-.21-.48-.94l.24-.22,1.56,1.68Z"/><path class="cls-3" d="M22.3,94.31c-.56-.65-.6-.66-.78-.56s-.36.24-.73.51l-2.87,2.15.53.72c.16.21.41.16,1.33-.12l.15.33a8.76,8.76,0,0,0-1.26.75c-.08-.14-.15-.28-.23-.4a4.28,4.28,0,0,0-.26-.38l-1.59-2.14a7,7,0,0,0-.62-.68,8.74,8.74,0,0,0,1.09-1l.27.23c-.54.81-.64,1-.49,1.24l.53.72,2.88-2.15c.36-.28.57-.46.69-.56s.15-.19-.32-.9l.27-.2,1.67,2.22Z"/><path class="cls-3" d="M17.25,86.41c-.38-.73-1.42-1-2.89-.21S12.52,88,12.91,88.72s1.42,1,2.9.2,1.84-1.78,1.44-2.51m-4.67,2.48a2.6,2.6,0,0,1,1.31-3.58,2.61,2.61,0,0,1,3.7.91,2.64,2.64,0,0,1-1.31,3.6,2.61,2.61,0,0,1-3.7-.93"/><path class="cls-3" d="M15.78,83.7c-.32-.65-.35-.67-.56-.62a19.48,19.48,0,0,0-1.94.76,19.89,19.89,0,0,0-1.94.82c-.19.09-.19.13,0,.83l-.29.11L10,82.89a10.07,10.07,0,0,0-.54-1.09,11.36,11.36,0,0,0,1.32-.68l.18.28c-.86.59-.89.78-.48,1.79l.26.65c0,.08.09.1.2.07l1.64-.66c.08,0,.12-.08,0-.29l-.08-.21c-.32-.77-.46-.77-1-.64l-.13-.32.81-.31c.31-.12.61-.25.81-.34l.14.32c-.51.25-.59.4-.37,1l.21.49c0,.09.07.13.18.09l1.74-.71c.2-.07.2-.14-.08-1l.3-.13,1,2.37Z"/><path class="cls-3" d="M13.3,77.18c-.23-.76-.27-.79-.48-.77s-.87.17-2,.44-1.77.43-2,.51-.22.12-.07.91l-.34.07-.61-2.61.33-.08c.23.76.26.8.47.77s.62-.11,1-.19l.5-.12c.24-.06.25-.08.21-.28l-.47-2c-.05-.2-.09-.21-.3-.16l-.51.11L8,74c-.22.08-.22.13-.09.91L7.57,75l-.63-2.61.34-.09c.23.76.26.81.47.78s.88-.17,2.05-.44,1.77-.42,2-.51.21-.13.08-.91l.32-.08.61,2.63-.32.08c-.23-.77-.26-.81-.47-.78s-.84.16-1.73.37c-.22,0-.25.08-.2.28l.46,2c.05.2.08.22.31.17.88-.2,1.5-.36,1.71-.44s.22-.13.08-.91l.34-.08.61,2.64Z"/><path class="cls-3" d="M11.91,71c-.15-.71-.17-.75-.39-.75s-.88.08-2.08.21-1.81.22-2.07.3-.23.07-.19.81l-.34,0-.35-2.9a7,7,0,0,0-.23-1.18c.37-.07,1.25-.25,1.45-.32l.1.32c-1,.34-1.07.5-.93,1.58l.08.7c0,.1.07.13.18.13l1.76-.22c.11,0,.13,0,.11-.26l0-.21c-.1-.84-.24-.89-.8-.9l0-.33c.26,0,.5,0,.88-.09l.87-.13,0,.34c-.55.13-.67.25-.59.84l.06.54c0,.09,0,.13.16.12l2-.24c.1,0,.14,0,.14-.15l-.15-1.32c-.08-.62-.27-.75-.8-.85l-.55-.1.06-.38a9.7,9.7,0,0,0,1.51,0L12.23,71Z"/><path class="cls-3" d="M9.36,62.93c0-.06,0-.09,0-.09a.61.61,0,0,0-.18,0l-1.93.77,2,.74.14,0s0,0,0-.09Zm2,3.3c-.05-.6-.24-.7-.91-1L7,64a7.25,7.25,0,0,0-1-.35v-.41a3.92,3.92,0,0,0,.91-.31l3.74-1.6c.5-.21.58-.26.57-.91h.33l0,2.65h-.33c0-.78-.12-.83-.32-.83a6.45,6.45,0,0,0-1.1.4.14.14,0,0,0-.07.1c0,.19,0,.59,0,1.37,0,.49.05.51.21.58a5.55,5.55,0,0,0,1,.29c.24,0,.29-.08.34-.83h.32l0,2.08Z"/><path class="cls-3" d="M11.26,60.23c0-.75,0-.8-.23-.83s-.88-.09-2.07-.21S7.14,59,6.87,59s-.24,0-.36.77l-.34,0L6.4,57.3l.31,0c0,.75,0,.79.23.83l1,.12,3.09.26c.27,0,.33-.05.35-.28l.07-.89c.07-.75-.15-.89-1.19-1.41l.14-.34A9.9,9.9,0,0,0,12,56l-.37,4.29Z"/><path class="cls-3" d="M11.76,55.1c.09-.84.08-.87-.14-.94L10.76,54l-3.54-.61-.13.89c-.06.27.14.41,1,.87l-.13.35a9.73,9.73,0,0,0-1.41-.4l.12-.44c0-.15.07-.29.1-.44l.45-2.64a5,5,0,0,0,.08-.91,9.83,9.83,0,0,0,1.46.11l0,.36c-.95.16-1.19.22-1.24.48l-.15.89,3.53.61a7.86,7.86,0,0,0,.88.12c.21,0,.25,0,.44-.84l.33.05-.48,2.73Z"/><path class="cls-3" d="M12.36,51.39c.16-.77.16-.83,0-.91s-.85-.27-2-.61-1.76-.49-2-.54-.25,0-.52.76L7.46,50l.74-2.58.31.09c-.16.78-.15.83.05.91s.6.2.95.31l.5.14c.21.06.25,0,.31-.15l.56-2c0-.2,0-.23-.19-.3l-.51-.14c-.34-.11-.8-.21-1-.25s-.25,0-.52.76l-.31-.09.73-2.59.32.09c-.16.79-.16.83,0,.91s.85.27,2,.6,1.75.49,2,.54.24,0,.52-.75l.31.08-.72,2.6-.34-.09c.17-.77.16-.83,0-.91s-.81-.27-1.68-.51c-.22-.07-.26,0-.32.13l-.56,2c0,.19,0,.23.2.29.87.24,1.48.41,1.7.45s.24,0,.52-.75l.31.09-.73,2.59Z"/><path class="cls-3" d="M15.88,41A1.49,1.49,0,0,0,16,40a13.42,13.42,0,0,1-2.64.29A1.15,1.15,0,0,0,14,41.44,1.47,1.47,0,0,0,15.88,41M13,39.52a.9.9,0,0,0-.56-.87.58.58,0,0,0-.83.19.51.51,0,0,0,.33.69,1.4,1.4,0,0,0,1.06,0m4.45-1.64a2.22,2.22,0,0,1-.12,1.28c-.17.35-.45.53-1,.73a2.35,2.35,0,0,1-.11,1.66,1.56,1.56,0,0,1-2.15.81c-.68-.32-1-.92-1-2a2.68,2.68,0,0,1-1.36-.08c-.47-.23-.75-.72-.39-1.51s.83-1,1.42-.69a1.37,1.37,0,0,1,.65,1.43c.84-.06,1.63-.13,2.42-.24a2.07,2.07,0,0,0-.75-1c-.21-.11-.36,0-.54.26l-.29-.15.76-1.62.31.14A1,1,0,0,0,15.41,38a5.2,5.2,0,0,1,.67,1.15c.65-.15.82-.22,1-.52a1.71,1.71,0,0,0,.07-.91Z"/><path class="cls-3" d="M18.76,35.56c.42-.68.42-.74.26-.88s-.7-.53-1.7-1.22-1.49-1.05-1.71-1.17-.25-.09-.75.53l-.27-.19,1.55-2.2.27.19c-.42.68-.42.74-.27.88s.51.38.82.59l.41.3c.18.12.23.12.35,0l1.17-1.68c.11-.17.11-.2-.09-.34l-.43-.3c-.29-.21-.68-.45-.83-.54s-.23-.08-.73.54l-.27-.19,1.54-2.2.28.18c-.41.68-.41.74-.26.87a20.4,20.4,0,0,0,1.7,1.23c1,.7,1.48,1.05,1.72,1.18s.24.08.73-.55l.28.19L21,33l-.28-.19c.41-.68.43-.74.27-.87s-.69-.52-1.45-1c-.18-.14-.22-.13-.33,0L18,32.57c-.11.16-.1.2.1.33.74.53,1.27.88,1.45,1s.24.08.75-.55l.25.2L19,35.75Z"/><path class="cls-3" d="M18.67,26.91l1.81-2,.24.22c-.49.62-.5.67-.37.84s.64.61,2.1,1.93a1.37,1.37,0,0,0,2.11,0c.92-1,.53-1.61-.65-2.69-.95-.85-1.42-1.26-1.64-1.42s-.21-.11-.81.49l-.25-.24,1.5-1.65.25.21c-.5.63-.51.69-.37.85s.65.61,1.89,1.74c.91.82,1.64,1.7.32,3.17a1.91,1.91,0,0,1-3,.15c-1.44-1.3-1.9-1.72-2.11-1.87s-.22-.11-.8.44Z"/><path class="cls-3" d="M26.39,25.9c.62-.59.62-.64.51-.82s-.55-.7-1.34-1.6a20.78,20.78,0,0,0-1.4-1.56c-.16-.15-.2-.14-.87.36L23.07,22l1.6-1.38a.74.74,0,0,0,.18.15L28.56,23h0L27,18.69l1.56-1.34.22.25c-.6.59-.63.65-.5.82s.55.69,1.33,1.61,1.2,1.38,1.4,1.56.2.14.88-.38l.21.26-2,1.76L29.78,23c.58-.58.59-.64.48-.79l-2.82-3.28,0,0L29.1,23.3a2.71,2.71,0,0,0,.17.39l-.45.38a1.66,1.66,0,0,0-.29-.18l-4.1-2.37h0l2.36,2.72a6,6,0,0,0,.51.51c.17.14.21.13.81-.31l.22.24-1.68,1.45Z"/><path class="cls-3" d="M33.94,17.61c.06-.05.07-.08.06-.1a1.5,1.5,0,0,0-.13-.11l-1.69-1.23.43,2.1a.83.83,0,0,0,0,.12s.07,0,.1,0ZM32.18,21c.49-.37.47-.58.34-1.28l-.73-3.55a7.83,7.83,0,0,0-.24-1l.34-.2a5.53,5.53,0,0,0,.74.6L36,17.84c.44.31.54.36,1.08,0l.18.27L35,19.56l-.19-.29c.65-.44.66-.53.54-.7a6.85,6.85,0,0,0-.92-.73.17.17,0,0,0-.12,0c-.16.09-.51.28-1.17.71-.41.26-.4.32-.38.49a5.23,5.23,0,0,0,.27,1c.13.2.23.2.88-.17l.18.29-1.75,1.13Z"/><path class="cls-3" d="M37.3,17.71c.65-.38.68-.43.59-.63s-.36-.8-.9-1.88-.8-1.63-1-1.86-.17-.18-.85.1L35,13.15l1.43-.71.36.21,3.77,2.11h0l-.54-1.09c-.53-1.07-.81-1.63-1-1.86s-.16-.18-.94.15L38,11.67l2-1,.15.29c-.65.32-.69.4-.52.79s.36.81.55,1.19c.67,1.35,1.24,2.48,1.57,3l-.51.25a10.15,10.15,0,0,0-1.65-1L36.67,13.6h0l.7,1.41c.53,1.07.81,1.64,1,1.86s.17.18,1-.19l.14.29-2.06,1Z"/><path class="cls-3" d="M45.45,12.48c.51.81,1.1,1.29,1.89,1s1.08-.85.94-1.31-.58-.54-1.16-.57h-.64c-1.46,0-1.76-.44-1.93-1A1.78,1.78,0,0,1,46,8.4a5.83,5.83,0,0,1,1.51-.26,3.4,3.4,0,0,0,.09.33c.11.35.24.71.39,1.06l-.35.11c-.41-.88-1-1.06-1.67-.84A1.09,1.09,0,0,0,45.1,10c.11.33.34.5.95.53l1.37,0A1.42,1.42,0,0,1,49,11.67c.31,1-.32,1.85-1.53,2.23-.54.17-1.17.12-1.7.27-.13-.37-.4-1-.6-1.51Z"/><path class="cls-3" d="M49.75,12.7c.69-.2.71-.23.71-.43s-.17-.88-.41-2.06-.36-1.79-.45-2S49.49,8,48.78,8l-.07-.31,2.86-.6a7.89,7.89,0,0,0,1.16-.34,10.27,10.27,0,0,0,.45,1.41l-.31.12c-.43-.94-.61-1-1.67-.78l-.69.14c-.09,0-.13.07-.11.19l.37,1.72c0,.11,0,.13.26.09l.22,0c.84-.17.85-.3.82-.87l.33-.06c.05.24.09.49.15.85l.21.86-.33.07c-.17-.53-.29-.65-.9-.51l-.52.09c-.09,0-.13.07-.1.17l.39,1.94c0,.1.08.14.18.11L52.77,12c.62-.13.74-.32.79-.86l0-.56.38,0a13.48,13.48,0,0,0,.09,1.51L49.81,13Z"/><path class="cls-3" d="M56.18,8.74c0,.15,0,.18.55.13,1.2-.11,1.36-.79,1.32-1.22-.07-.65-.6-1-1.45-1C56,6.75,56,6.78,56,7Zm-1.51,2.93c.78-.13.83-.16.83-.37s0-.89-.18-2.09-.18-1.81-.23-2.08-.09-.22-.89-.2l0-.32,3-.3a2,2,0,0,1,1.28.18,1.14,1.14,0,0,1,.6,1C59.16,8.58,57.9,8.91,57.9,9s0,.08.13.19l1.44,1.53c.35.39.45.45.83.42l0,.32L59,11.57,57,9.31c-.07-.07-.12-.08-.46-.05s-.33.05-.33.13c.14,1.39.17,1.61.21,1.82s.09.23.89.2l0,.33L54.7,12Z"/><path class="cls-3" d="M59.29,6.1l2.67,0v.33h-.37c-.36,0-.43.12-.43.24s.41,1.17.82,2.21l.59,1.47.6-1.58a18.41,18.41,0,0,0,.72-2.15c0-.21-.13-.22-.82-.21V6l2.1,0v.33h-.23c-.36,0-.49.16-.85,1.09a24.58,24.58,0,0,0-1.45,4.18h-.51a43.91,43.91,0,0,0-1.84-4.5c-.32-.66-.37-.67-1-.67Z"/><path class="cls-3" d="M65.33,11.2c.84,0,.89,0,.93-.22s.11-.88.19-2.08.16-1.81.15-2.08,0-.24-.89-.37l0-.33,2.78.23,0,.33c-.83,0-.89,0-.92.21s-.11.88-.2,2.08-.15,1.82-.14,2.08.06.24.89.37l0,.33-2.79-.22Z"/><path class="cls-3" d="M73.64,11.35a2.79,2.79,0,0,1-2.58,1A2.59,2.59,0,0,1,69,9.1a2.71,2.71,0,0,1,3.24-2.37,7.05,7.05,0,0,1,1.59.52,12.78,12.78,0,0,0,0,1.49l-.38,0c-.12-1-.51-1.53-1.39-1.67s-1.77.66-2,2.13.45,2.49,1.34,2.63a2.2,2.2,0,0,0,2-.77Z"/><path class="cls-3" d="M73.7,12.29c.71.14.76.13.83-.07s.27-.84.58-2,.47-1.76.52-2,0-.24-.69-.49L75,7.37l2.82.77a7.38,7.38,0,0,0,1.2.22,13.72,13.72,0,0,0-.25,1.47l-.33,0c0-1-.08-1.18-1.12-1.46l-.68-.18c-.1,0-.16,0-.18.12L76,10c0,.09,0,.15.19.2l.23.06c.8.22.9.11,1.11-.41l.34.1a5.11,5.11,0,0,0-.25.84,8.78,8.78,0,0,0-.21.86l-.35-.09c.11-.56,0-.72-.54-.87L76,10.51a.13.13,0,0,0-.18.11l-.51,1.92c0,.1,0,.15.09.17l1.29.35a.8.8,0,0,0,1.09-.41l.29-.48.32.2a11.89,11.89,0,0,0-.59,1.38l-4.21-1.13Z"/><path class="cls-3" d="M79.6,12.44c-.1,1,.07,1.69.85,2s1.38,0,1.55-.48-.12-.78-.57-1.15l-.51-.4c-1.13-.91-1.11-1.42-.9-2a1.8,1.8,0,0,1,2.5-.86,6.46,6.46,0,0,1,1.35.69,2.26,2.26,0,0,1-.13.33c-.13.35-.22.71-.34,1.08l-.35-.12c.22-.95-.1-1.42-.79-1.68a1.07,1.07,0,0,0-1.44.44c-.12.33,0,.61.43,1l1,.88a1.42,1.42,0,0,1,.57,1.77c-.37,1-1.4,1.29-2.58.84-.53-.19-1-.64-1.52-.82.13-.39.34-1.07.45-1.57Z"/><path class="cls-3" d="M85.88,13.52a.54.54,0,1,1-.72.26.55.55,0,0,1,.72-.26"/><path class="cls-3" d="M88.39,12.2l2.32,1.35-.17.28c-.72-.34-.75-.34-.89-.17s-.47.75-1.47,2.44a1.37,1.37,0,0,0,.41,2.07c1.17.68,1.67.2,2.48-1.19.64-1.09,1-1.63,1.07-1.87s0-.24-.65-.72l.17-.28,1.94,1.13-.17.29c-.71-.36-.76-.36-.89-.19s-.48.74-1.33,2.2c-.61,1.05-1.34,1.94-3,1a1.91,1.91,0,0,1-.76-2.87c1-1.68,1.29-2.21,1.39-2.46s.07-.23-.58-.69Z"/><path class="cls-3" d="M92.6,19c-.36.89-.39,1.65.27,2.14s1.34.37,1.63,0,.09-.79-.25-1.26l-.36-.52c-.85-1.2-.69-1.67-.31-2.17A1.77,1.77,0,0,1,96.2,17a7.15,7.15,0,0,1,1.11,1.05l-.21.27c-.22.31-.43.62-.63.95l-.3-.22a1.23,1.23,0,0,0-.3-1.83,1.1,1.1,0,0,0-1.51,0c-.19.28-.19.58.14,1.07l.77,1.14a1.41,1.41,0,0,1,.06,1.86c-.61.83-1.68.85-2.7.11-.46-.36-.79-.89-1.24-1.22.22-.33.61-.93.86-1.39Z"/><path class="cls-3" d="M98.68,23.36c0,.05.08.05.11,0a.56.56,0,0,0,.07-.16l.76-1.94-1.91.95-.11.06a.07.07,0,0,0,0,.1ZM95,22.53c.47.38.68.3,1.31,0l3.26-1.6c.55-.28.69-.34,1-.5l.29.27a5.35,5.35,0,0,0-.4.87L99,25.4c-.18.51-.2.6.29,1l-.22.24-2-1.78.21-.25c.6.51.71.51.83.35a6.68,6.68,0,0,0,.47-1.08.13.13,0,0,0,0-.12c-.13-.15-.42-.42-1-.94-.37-.33-.41-.32-.56-.25a5.59,5.59,0,0,0-.89.51c-.16.18-.13.27.38.81l-.23.25-1.53-1.41Z"/><path class="cls-3" d="M108.3,25c.18,3.94-2.94,6.38-5.31,8.7L78.73,54.1c-2.18,2-5.33,3.72-6.55,6.76-1.61,4-2.21,8.49-2.9,12.92-.4,3.2-3.39,6-6.17,7.16-2.16.76-4.76.41-7.12.59l-8.46,0a2.68,2.68,0,0,0-1.7,1.13l-.31.84c-.91.13-.61-.66-.73-1.21,0-1.86.43-3.81,1.8-4.9a4.76,4.76,0,0,1,2.79-1.1l12.33-.17a3,3,0,0,0,1.7-.8l.51-1c1-6.14,1.55-12.51,4.6-17.72,2.84-3.32,6.41-5.6,9.57-8.51C85.4,42,93,35.65,100.22,29.34c2-1.93,4.21-4.48,4.72-7.54l.26-.82a4.69,4.69,0,0,1,3.1,4"/><path class="cls-3" d="M115.41,31.92c.36,3.83-2.64,5.65-5,8l-9.9,8.5L82.88,63.38c-2.49,2.81-2.62,6.8-3.26,10.4.11,1.18,1.29,1.66,1.06,2.89l-2.45,4.41c.13,1.76,2.28.74,3,1.84,0,.63-.39,1.42.1,1.94s1.76-.21,1,.76c-.2.16-.13.55-.07.76.29.39.84.42.89,1a2.87,2.87,0,0,0,.18,2.4c3.05,3.32,8.31-.8,11.49,2.33a3.18,3.18,0,0,1,.56,3c-1.69,5-11.75,5.35-8.31,12.42a4.11,4.11,0,0,0,3.27,2,6.12,6.12,0,0,0,3-.59c.29,0,.31.29.44.45v.19c-2.91,2.07-6.66,5.12-10.52,2.91a6,6,0,0,1-2.45-6.2c1.18-3.91,5.68-4.91,7.93-8.19A3.32,3.32,0,0,0,88.55,95c-.72-1.28-2.38-1.63-3.83-1.89-2.42,0-6.12,1.48-7.2-1.36-.31-1.08.79-3-.94-3.24-.23-.3-.79-.57-.5-1.06.08-.29.58-.33.32-.7-.34-.09-.8,0-1.08-.31-1-1.07,1.73-2.23-.11-3-.92-.13-2.18.56-2.78-.5-.29-1,.45-1.71.82-2.52.62-1.39,2.43-2.3,2-4.1l-.89-1.52a56.78,56.78,0,0,1,1.76-10.4c1.21-3.73,4.81-5.81,7.56-8.36L98.4,43.59l10.44-9.2c1.82-1.68,3.4-3.57,3.34-6.12.55-.18.92.48,1.4.69a5.91,5.91,0,0,1,1.83,3"/><path class="cls-3" d="M111.45,50.51c-2,3.11-5.2,5.44-8.09,7.89L92,67.91a7.23,7.23,0,0,0-1.69,7.68c.11,1.29-.89,2.1-1.2,3.23,0,.34.1.77.44.86s1.19-.05,1.45.58c.07.66-.23,1.38.5,1.63.29.17.73-.34.76.18A1.39,1.39,0,0,0,92,83c.37.66,1.18.3,1.51.85.15.77.15,1.75,1,2.07,2.95.49,5.17-1.5,7.83-2.07,4.2-1.32,8.26.33,12,1.45a20.56,20.56,0,0,0,5.81,0l.13.11c-2.39,2.92-5.33,5.76-9.5,5.47-4.39-.16-7.22-4.25-11.92-3.47-3.18.64-6.35,2.55-9.77,1.26a3.07,3.07,0,0,1-.9-3.2c-.16-.76-2-.95-.85-1.94-.35-.23-.95,0-1.14-.53s.47-1.49-.31-1.89c-.71-.11-1.63.29-2.16-.31a1.53,1.53,0,0,1-.12-1.31c.5-1.21,1.86-2.16,1.57-3.6-.92-.87-.61-2.32-.5-3.52.52-2.79.74-5.72,3.32-7.57L102,53c2.94-2.8,6.57-4.62,8.7-8.32a6.12,6.12,0,0,1,.76,5.8"/><path class="cls-3" d="M68.78,91.79a71.88,71.88,0,0,1,11.66,5.68,3.54,3.54,0,0,1,1.5,3.08c-1.22,5-8.2,5.55-7.17,11.47a5.6,5.6,0,0,0,3.91,4.73,6.43,6.43,0,0,0,3.26,0c.15.38.84.75.07,1-2.86,1.83-6.54,3.89-10,2.13a6.42,6.42,0,0,1-3.15-4.41c-.71-5.36,4.29-7,6.81-10.64a3.46,3.46,0,0,0,.38-2.39,5.26,5.26,0,0,0-2.15-2.21C64.47,95,54.26,91.42,43.76,88.7c-1.74-.17-4.44-1.19-5.6.84v.09c-.94.2-.58-.93-.58-1.43a4.88,4.88,0,0,1,2.9-3.79c2.72-.81,5.62.16,8.26.63a178,178,0,0,1,20,6.75"/><path class="cls-3" d="M64.69,114.15c0-.31-.06-.33-.57-.33-1.49,0-2.09.73-2.06,2.41s.67,2.34,2.16,2.31c.5,0,.56-.05.56-.2Zm1.84-.42c-.84.07-.88.09-.9.31s0,.89,0,2.09,0,1.82.07,2.09.08.24.92.27v.33l-2.66.05a2.57,2.57,0,0,1-2.11-.67,2.63,2.63,0,0,1-.81-2A2.68,2.68,0,0,1,64,113.45l2.54,0Z"/><path class="cls-3" d="M60.57,113.81c-.73,0-.77,0-.81.23s-.12.87-.21,2.09-.15,1.79-.14,2.07,0,.24.75.35l0,.34-2.92-.25a5.41,5.41,0,0,0-1.21,0,14.38,14.38,0,0,0,0-1.49l.34,0c.12,1,.28,1.15,1.36,1.23l.69.06c.09,0,.14,0,.16-.14l.15-1.77c0-.11,0-.14-.24-.16h-.23c-.82-.08-.9,0-1,.59l-.34,0c0-.25.07-.5.11-.87s0-.65,0-.88l.35,0c0,.57.09.71.69.76l.54,0c.09,0,.14,0,.15-.13l.16-2c0-.1,0-.15-.12-.15l-1.32-.12c-.62-.06-.8.11-1,.6l-.22.52-.35-.13a9.82,9.82,0,0,0,.34-1.47l4.35.36Z"/><path class="cls-3" d="M53.34,115.54l-.36-.08c-.77-.13-1.5-.13-1.69.89s.42,1.21,1.25,1.36c.36.06.39,0,.42-.12Zm2.23-2.16c-.79-.08-.83-.07-.9.13s-.2.87-.42,2-.33,1.79-.35,2.06,0,.24.8.45l-.06.32-2.8-.52a2.07,2.07,0,0,1-1.27-.67,1.23,1.23,0,0,1-.28-1c.22-1.07,1.22-1.36,2.59-1.11l.54.12.33-1.83c0-.21,0-.24-.9-.47l0-.32,2.73.51Z"/><path class="cls-3" d="M47.69,113.58c-.07,0-.1,0-.1,0a1,1,0,0,0,0,.18l.2,2.07,1.28-1.7a.9.9,0,0,0,.07-.11s0-.05-.07-.07Zm3.73-.91c-.61-.13-.76,0-1.18.59L48,116.14a10.47,10.47,0,0,0-.61.87l-.4-.12a6.23,6.23,0,0,0,0-1l-.48-4c-.05-.55-.08-.65-.71-.81l.09-.33,2.56.73-.09.31c-.76-.18-.84-.12-.89.07a7.26,7.26,0,0,0,.06,1.17.16.16,0,0,0,.07.09c.19.07.57.2,1.31.4.48.13.51.11.62,0a7.26,7.26,0,0,0,.57-.85c.06-.24,0-.31-.7-.57l.09-.31,2,.57Z"/><path class="cls-3" d="M43,112.92c0-.14,0-.18-.4-.37-1.06-.43-1.52.09-1.69.5-.24.58,0,1.18.8,1.49.49.2.53.2.61,0ZM45.63,111c-.73-.23-.78-.23-.87,0a17.91,17.91,0,0,0-.82,1.91,18.53,18.53,0,0,0-.76,2c-.07.2,0,.25.64.59l-.12.31L41,114.63a1.82,1.82,0,0,1-1-.74,1.15,1.15,0,0,1-.06-1.13c.43-1.06,1.66-.77,1.68-.83a.47.47,0,0,0,0-.22l-.51-2c-.12-.52-.18-.61-.51-.76l.11-.3,1.19.49.62,2.89c0,.1.07.13.36.25s.31.12.34,0a15.46,15.46,0,0,0,.66-1.71c.07-.2,0-.25-.65-.58l.13-.31,2.39,1Z"/><path class="cls-3" d="M40.15,108.67c-.77-.34-.82-.34-.95-.17s-.22.38-.44.78l-1.64,3.17.79.42c.23.12.44,0,1.13-.68l.29.23a7.12,7.12,0,0,0-.81,1.23l-.38-.26a2.5,2.5,0,0,0-.39-.23l-2.37-1.23a6.74,6.74,0,0,0-.85-.36,8.31,8.31,0,0,0,.54-1.36l.35.09c-.13,1-.13,1.21.1,1.33l.79.41L38,108.87c.21-.41.32-.66.39-.81s0-.24-.68-.67l.15-.3,2.47,1.29Z"/><path class="cls-3" d="M36.59,106.89c-.72-.43-.77-.43-.92-.28s-.52.72-1.19,1.71-1,1.51-1.17,1.74-.07.24.6.76l-.19.27L32,109.91a1.65,1.65,0,0,1,.09-.21l1.11-4.15h0l-3.69,2.67-1.7-1.16.2-.28c.72.43.76.44.9.28s.53-.73,1.2-1.72,1-1.5,1.16-1.74.08-.23-.58-.75l.17-.28,2.24,1.54-.18.27c-.7-.41-.77-.41-.87-.25l-2.44,3.57,3.81-2.75a3.38,3.38,0,0,0,.33-.26l.48.34a2.93,2.93,0,0,0-.12.31l-1.22,4.59h0l2-3a4.75,4.75,0,0,0,.35-.62c.09-.19.07-.23-.52-.7l.19-.26,1.84,1.24Z"/><path class="cls-3" d="M30.6,102.69c-.57-.44-.63-.44-.78-.3s-.61.65-1.4,1.55-1.2,1.38-1.35,1.6-.11.21.4.73l-.22.25L25,104.59a10.88,10.88,0,0,0-1-.72,13.32,13.32,0,0,0,.87-1.2l.28.17c-.49.91-.43,1.09.38,1.81l.53.46c.08.06.13,0,.21,0l1.16-1.34c.07-.08.08-.12-.1-.27l-.15-.14c-.64-.56-.77-.5-1.19-.14L25.8,103c.18-.18.34-.35.6-.64s.42-.52.56-.68l.27.23c-.35.45-.36.62.11,1l.39.37c.08,0,.14.07.21,0l1.3-1.49a.13.13,0,0,0,0-.21l-1-.87a.79.79,0,0,0-1.16-.1l-.46.3-.22-.32a13.54,13.54,0,0,0,1.15-1l3.28,2.87Z"/><path class="cls-3" d="M26.87,99.44c-.54-.51-.59-.52-.76-.4s-.68.58-1.56,1.4-1.34,1.25-1.51,1.45-.13.22.34.8l-.24.22-1.09-1.17a3.08,3.08,0,0,0,.1-.41l1-4.21h0l-.88.82c-.89.82-1.34,1.24-1.52,1.45s-.13.22.41.86l-.24.23-1.5-1.61.24-.22c.49.52.58.54.89.28s.69-.6,1-.88c1.11-1,2-1.9,2.45-2.36l.39.41A12.56,12.56,0,0,0,23.82,98l-.7,3.25h0l1.15-1.06c.88-.82,1.33-1.23,1.52-1.45s.12-.21-.48-.94l.24-.22,1.56,1.68Z"/><path class="cls-3" d="M22.3,94.31c-.56-.65-.6-.66-.78-.56a8.36,8.36,0,0,0-.73.51l-2.87,2.15.53.72c.16.21.41.16,1.33-.12l.15.33a8.76,8.76,0,0,0-1.26.75c-.08-.14-.15-.28-.23-.4s-.17-.26-.26-.38l-1.59-2.14a7,7,0,0,0-.62-.68,8.74,8.74,0,0,0,1.09-1l.27.23c-.54.81-.64,1-.49,1.24l.53.72,2.88-2.15c.36-.28.57-.46.69-.56s.15-.19-.32-.9l.27-.2,1.67,2.22Z"/><path class="cls-3" d="M17.25,86.41c-.38-.73-1.42-1-2.89-.21S12.52,88,12.91,88.72s1.42,1,2.89.2,1.85-1.78,1.45-2.51m-4.67,2.48a2.6,2.6,0,0,1,1.31-3.58,2.61,2.61,0,0,1,3.7.91,2.64,2.64,0,0,1-1.32,3.6,2.6,2.6,0,0,1-3.69-.93"/><path class="cls-3" d="M15.78,83.7c-.32-.65-.35-.67-.56-.62a19.48,19.48,0,0,0-1.94.76,19.89,19.89,0,0,0-1.94.82c-.19.09-.19.13,0,.83l-.29.11L10,82.89a10.07,10.07,0,0,0-.54-1.09,11.36,11.36,0,0,0,1.32-.68l.18.28c-.85.59-.89.78-.48,1.79l.26.65c0,.08.09.1.2.07l1.64-.66c.08,0,.11-.08,0-.29l-.08-.21c-.32-.77-.46-.77-1-.64l-.13-.32.81-.31c.31-.12.61-.25.81-.34l.14.32c-.51.25-.59.4-.37,1l.21.49c0,.09.07.13.18.09l1.74-.71c.2-.07.2-.14-.08-1l.3-.13,1,2.37Z"/><path class="cls-3" d="M13.3,77.18c-.23-.76-.27-.79-.48-.77s-.87.17-2,.44-1.77.43-2,.51-.22.12-.07.91l-.34.07-.61-2.61.33-.08c.23.76.26.8.47.77s.61-.11,1-.19l.5-.12c.23-.06.25-.08.2-.28l-.46-2c-.05-.2-.09-.21-.3-.16l-.51.11L8,74c-.22.08-.22.13-.09.91L7.57,75l-.63-2.61.34-.09c.23.76.26.81.47.78s.88-.17,2-.44,1.78-.42,2-.51.21-.13.08-.91l.32-.08.61,2.63-.32.08c-.23-.77-.26-.81-.47-.78s-.84.16-1.73.37c-.22,0-.25.08-.2.28l.46,2c.05.2.08.22.31.17.88-.2,1.5-.36,1.71-.44s.22-.13.08-.91l.34-.08.61,2.64Z"/><path class="cls-3" d="M11.91,71c-.15-.71-.18-.75-.39-.75s-.88.08-2.08.21-1.81.22-2.07.3-.23.07-.19.81l-.34,0-.35-2.9a7,7,0,0,0-.23-1.18c.37-.07,1.25-.25,1.45-.32l.1.32c-1,.34-1.07.5-.93,1.58l.08.7c0,.1.07.13.18.13l1.76-.22c.11,0,.13,0,.11-.26l0-.21c-.1-.84-.24-.89-.8-.9l0-.33c.26,0,.5,0,.88-.09l.87-.13,0,.34c-.55.13-.67.25-.59.84l.06.54c0,.09,0,.13.16.12l1.95-.24c.11,0,.15,0,.15-.15l-.16-1.32c-.07-.62-.26-.75-.79-.85l-.55-.1.06-.38a9.7,9.7,0,0,0,1.51,0L12.23,71Z"/><path class="cls-3" d="M9.35,62.93c0-.06,0-.09,0-.09a.61.61,0,0,0-.18,0l-1.93.77,2,.74.13,0s0,0,0-.09Zm2,3.3c-.05-.6-.24-.7-.91-1L7,64a7.25,7.25,0,0,0-1-.35v-.41a3.92,3.92,0,0,0,.91-.31l3.74-1.6c.5-.21.58-.26.57-.91h.32l.05,2.65h-.33c0-.78-.12-.83-.32-.83a6.45,6.45,0,0,0-1.1.4.14.14,0,0,0-.07.1c0,.19,0,.59,0,1.37,0,.49,0,.51.21.58a5.55,5.55,0,0,0,1,.29c.24,0,.29-.08.34-.83h.32l0,2.08Z"/><path class="cls-3" d="M11.25,60.23c0-.75,0-.8-.22-.83s-.88-.09-2.07-.21S7.14,59,6.87,59s-.24,0-.36.77l-.34,0L6.4,57.3l.31,0c0,.75,0,.79.23.83l1,.12,3.08.26c.28,0,.34-.05.36-.28l.07-.89c.07-.75-.15-.89-1.19-1.41l.14-.34A9.9,9.9,0,0,0,12,56l-.37,4.29Z"/><path class="cls-3" d="M11.76,55.1c.09-.84.08-.87-.14-.94L10.76,54l-3.54-.61-.13.89c-.06.27.14.41,1,.87l-.13.35a9.73,9.73,0,0,0-1.41-.4l.12-.44c0-.15.07-.29.1-.44l.45-2.64a5,5,0,0,0,.08-.91,9.74,9.74,0,0,0,1.46.11l0,.36c-.95.16-1.19.22-1.24.48l-.15.89,3.53.61a7.86,7.86,0,0,0,.88.12c.21,0,.25,0,.44-.84l.33.05-.48,2.73Z"/><path class="cls-3" d="M12.36,51.39c.16-.77.16-.83,0-.91s-.85-.27-2-.61-1.76-.49-2-.54-.25,0-.53.76L7.46,50l.73-2.58.32.09c-.16.78-.15.83.05.91s.6.2.95.31l.5.14c.21.06.25,0,.31-.15l.56-2c0-.2,0-.23-.19-.3l-.51-.14c-.34-.11-.8-.21-1-.25s-.25,0-.52.76l-.31-.09.73-2.59.32.09c-.16.79-.16.83,0,.91s.85.27,2,.6,1.75.49,2,.54.24,0,.52-.75l.31.08-.72,2.6-.34-.09c.17-.77.16-.83,0-.91s-.81-.27-1.68-.51c-.22-.07-.26,0-.32.13l-.56,2c0,.19,0,.23.2.29.87.24,1.48.41,1.7.45s.24,0,.52-.75l.31.09-.74,2.59Z"/><path class="cls-3" d="M15.88,41A1.49,1.49,0,0,0,16,40a13.42,13.42,0,0,1-2.64.29A1.15,1.15,0,0,0,14,41.44,1.47,1.47,0,0,0,15.88,41M13,39.52a.9.9,0,0,0-.56-.87.58.58,0,0,0-.83.19c-.11.23,0,.52.33.69a1.4,1.4,0,0,0,1.06,0m4.45-1.64a2.31,2.31,0,0,1-.12,1.28c-.17.35-.45.53-1,.73a2.3,2.3,0,0,1-.12,1.66,1.55,1.55,0,0,1-2.14.81c-.68-.32-1-.92-1-2a2.7,2.7,0,0,1-1.37-.08c-.47-.23-.75-.72-.39-1.51s.83-1,1.42-.69a1.37,1.37,0,0,1,.65,1.43c.84-.06,1.63-.13,2.42-.24a2.07,2.07,0,0,0-.75-1c-.21-.11-.36,0-.54.26l-.29-.15.76-1.62.31.14A1,1,0,0,0,15.41,38a5.2,5.2,0,0,1,.67,1.15c.65-.15.82-.22,1-.52a1.6,1.6,0,0,0,.08-.91Z"/><path class="cls-3" d="M18.76,35.56c.42-.68.42-.74.26-.88s-.7-.53-1.7-1.22-1.49-1.05-1.71-1.17-.25-.09-.75.53l-.27-.19,1.55-2.2.27.19c-.42.68-.42.74-.27.88s.51.38.82.59l.41.3c.18.12.23.12.35,0l1.17-1.68c.11-.17.11-.2-.09-.34l-.43-.3c-.29-.21-.68-.45-.83-.54s-.23-.08-.73.54l-.27-.19,1.54-2.2.28.18c-.41.68-.41.74-.26.87a20.4,20.4,0,0,0,1.7,1.23c1,.7,1.48,1.05,1.72,1.18s.23.08.73-.55l.28.19L21,33l-.28-.19c.41-.68.42-.74.27-.87s-.7-.52-1.45-1c-.18-.14-.22-.13-.33,0L18,32.57c-.11.16-.1.2.1.33.74.53,1.26.88,1.45,1s.24.08.75-.55l.25.2L19,35.75Z"/><path class="cls-3" d="M18.67,26.91l1.81-2,.24.22c-.49.62-.5.67-.37.84s.64.61,2.1,1.93a1.37,1.37,0,0,0,2.11,0c.92-1,.53-1.61-.65-2.69-.95-.85-1.42-1.26-1.64-1.42s-.21-.11-.81.49l-.25-.24,1.5-1.65.25.21c-.5.63-.51.69-.37.85s.65.61,1.89,1.74c.91.82,1.64,1.7.32,3.17a1.91,1.91,0,0,1-3,.15c-1.44-1.3-1.9-1.72-2.11-1.87s-.22-.11-.8.44Z"/><path class="cls-3" d="M26.39,25.9c.61-.59.62-.64.51-.82s-.55-.7-1.34-1.6a20.78,20.78,0,0,0-1.4-1.56c-.15-.15-.2-.14-.87.36L23.07,22l1.6-1.38a.74.74,0,0,0,.18.15L28.55,23h0L27,18.69l1.56-1.34.22.25c-.6.59-.63.65-.5.82s.55.69,1.33,1.61,1.2,1.38,1.4,1.56.2.14.88-.38l.21.26-2,1.76L29.78,23c.58-.58.59-.64.48-.79l-2.82-3.28,0,0L29.1,23.3a2.71,2.71,0,0,0,.17.39l-.45.38a1.66,1.66,0,0,0-.29-.18l-4.1-2.37h0l2.36,2.72a6,6,0,0,0,.51.51c.17.14.2.13.81-.31l.22.24-1.68,1.45Z"/><path class="cls-3" d="M33.94,17.61c.06-.05.07-.08.06-.1a1.5,1.5,0,0,0-.13-.11l-1.69-1.23.43,2.1a.83.83,0,0,0,0,.12s.07,0,.1,0ZM32.18,21c.49-.37.47-.58.34-1.28l-.73-3.55a7.83,7.83,0,0,0-.24-1l.34-.2a5.53,5.53,0,0,0,.74.6L36,17.84c.44.31.54.36,1.08,0l.18.27L35,19.56l-.19-.29c.65-.44.66-.53.54-.7a6.85,6.85,0,0,0-.92-.73.17.17,0,0,0-.12,0c-.16.09-.51.28-1.17.71-.41.26-.4.32-.38.49a5.23,5.23,0,0,0,.27,1c.13.2.23.2.88-.17l.18.29-1.75,1.13Z"/><path class="cls-3" d="M37.3,17.71c.65-.38.68-.43.59-.63s-.36-.8-.9-1.88-.8-1.63-1-1.86-.17-.18-.85.1L35,13.15l1.44-.71.36.21,3.77,2.11h0l-.54-1.09c-.53-1.07-.81-1.63-1-1.86s-.16-.18-.94.15L38,11.67l2-1,.15.29c-.65.32-.69.4-.52.79s.36.81.55,1.19c.67,1.35,1.24,2.48,1.57,3l-.51.25a10.15,10.15,0,0,0-1.65-1L36.67,13.6h0l.7,1.41c.53,1.07.81,1.64,1,1.86s.17.18,1-.19l.14.29-2.06,1Z"/><path class="cls-3" d="M45.45,12.48c.51.81,1.1,1.29,1.88,1s1.09-.85,1-1.31-.58-.54-1.17-.57h-.63c-1.46,0-1.75-.44-1.93-1A1.78,1.78,0,0,1,46,8.4a5.83,5.83,0,0,1,1.51-.26,3.4,3.4,0,0,0,.09.33c.11.35.24.71.39,1.06l-.35.11c-.41-.88-1-1.06-1.67-.84A1.09,1.09,0,0,0,45.1,10c.11.33.34.5.95.53l1.37,0A1.42,1.42,0,0,1,49,11.67c.31,1-.32,1.85-1.53,2.23-.54.17-1.17.12-1.7.27-.13-.37-.4-1-.6-1.51Z"/><path class="cls-3" d="M49.75,12.7c.69-.2.71-.23.71-.43s-.17-.88-.41-2.06-.36-1.79-.45-2S49.49,8,48.78,8l-.07-.31,2.86-.6a7.89,7.89,0,0,0,1.16-.34,10.27,10.27,0,0,0,.45,1.41l-.32.12c-.42-.94-.6-1-1.66-.78l-.69.14c-.09,0-.13.07-.11.19l.37,1.72c0,.11,0,.13.26.09l.22,0c.84-.17.85-.3.82-.87l.33-.06c.05.24.09.49.15.85l.21.86-.34.07c-.16-.53-.28-.65-.89-.51l-.52.09c-.09,0-.13.07-.1.17l.39,1.94a.13.13,0,0,0,.18.11L52.77,12c.62-.13.73-.32.79-.86l0-.56.37,0a13.33,13.33,0,0,0,.1,1.51L49.81,13Z"/><path class="cls-3" d="M56.18,8.74c0,.15,0,.18.54.13,1.21-.11,1.37-.79,1.33-1.22-.07-.65-.6-1-1.45-1C56,6.75,56,6.78,56,7Zm-1.51,2.93c.78-.13.83-.16.83-.37s0-.89-.18-2.09-.18-1.81-.23-2.08-.09-.22-.89-.2l0-.32,3-.3a2,2,0,0,1,1.28.18,1.14,1.14,0,0,1,.6,1C59.16,8.58,57.9,8.91,57.9,9s0,.08.12.19l1.45,1.53c.35.39.45.45.83.42l0,.32L59,11.57,57,9.31c-.07-.07-.13-.08-.46-.05s-.34.05-.34.13c.15,1.39.18,1.61.22,1.82s.09.23.89.2l0,.33L54.7,12Z"/><path class="cls-3" d="M59.29,6.1l2.67,0v.33h-.37c-.36,0-.43.12-.43.24s.41,1.17.82,2.21l.59,1.47.6-1.58a18.41,18.41,0,0,0,.72-2.15c0-.21-.13-.22-.82-.21V6l2.1,0v.33h-.23c-.36,0-.49.16-.85,1.09a24.58,24.58,0,0,0-1.45,4.18h-.51a43.91,43.91,0,0,0-1.84-4.5c-.33-.66-.37-.67-1-.67Z"/><path class="cls-3" d="M65.33,11.2c.84,0,.89,0,.93-.22s.11-.88.19-2.08.16-1.81.15-2.08-.06-.24-.89-.37l0-.33,2.78.23,0,.33c-.84,0-.89,0-.92.21A18.74,18.74,0,0,0,67.36,9c-.09,1.2-.16,1.82-.14,2.08s.06.24.88.37l0,.33-2.78-.22Z"/><path class="cls-3" d="M73.64,11.35a2.79,2.79,0,0,1-2.58,1A2.59,2.59,0,0,1,69,9.1a2.71,2.71,0,0,1,3.24-2.37,7.05,7.05,0,0,1,1.59.52,12.78,12.78,0,0,0,0,1.49l-.38,0c-.12-1-.51-1.53-1.39-1.67s-1.77.66-2,2.13.45,2.49,1.34,2.63a2.2,2.2,0,0,0,2-.77Z"/><path class="cls-3" d="M73.7,12.29c.71.14.76.13.83-.07s.27-.84.58-2,.47-1.76.52-2,0-.24-.69-.49L75,7.37l2.82.77a7.38,7.38,0,0,0,1.2.22c-.09.37-.24,1.25-.26,1.47l-.32,0c0-1-.08-1.18-1.12-1.46l-.68-.18c-.1,0-.16,0-.18.12L76,10c0,.09,0,.15.19.2l.23.06c.8.22.9.11,1.11-.41l.33.1a8.33,8.33,0,0,0-.25.84c-.08.3-.16.64-.21.86l-.34-.09c.11-.56,0-.72-.55-.87L76,10.51a.13.13,0,0,0-.18.11l-.51,1.92c0,.1,0,.15.09.17l1.29.35a.8.8,0,0,0,1.09-.41l.29-.48.32.2a11.89,11.89,0,0,0-.59,1.38l-4.21-1.13Z"/><path class="cls-3" d="M79.6,12.44c-.1,1,.07,1.69.85,2s1.38,0,1.55-.48-.12-.78-.57-1.15l-.51-.4c-1.13-.91-1.11-1.42-.9-2a1.8,1.8,0,0,1,2.5-.86,6.73,6.73,0,0,1,1.35.69,2.26,2.26,0,0,1-.13.33c-.13.35-.23.71-.34,1.08l-.35-.12c.22-.95-.1-1.42-.79-1.68a1.07,1.07,0,0,0-1.44.44c-.12.33,0,.61.43,1l1,.88a1.42,1.42,0,0,1,.57,1.77c-.37,1-1.4,1.29-2.58.84-.53-.19-1-.64-1.52-.82.13-.39.34-1.07.45-1.57Z"/><path class="cls-3" d="M85.88,13.52a.54.54,0,0,1-.47,1,.53.53,0,0,1-.25-.72.55.55,0,0,1,.72-.26"/><path class="cls-3" d="M88.39,12.2l2.32,1.35-.17.28c-.72-.34-.75-.34-.89-.17s-.47.75-1.47,2.44a1.37,1.37,0,0,0,.41,2.07c1.17.68,1.67.2,2.48-1.19.64-1.09,1-1.63,1.07-1.87s0-.24-.65-.72l.17-.28,1.94,1.13-.17.29c-.71-.36-.76-.36-.89-.19s-.48.74-1.33,2.2c-.61,1.05-1.34,1.94-3,1a1.91,1.91,0,0,1-.76-2.87c1-1.68,1.29-2.21,1.39-2.46s.07-.23-.58-.69Z"/><path class="cls-3" d="M92.6,19c-.36.89-.39,1.65.27,2.14s1.34.37,1.63,0,.09-.79-.25-1.26l-.36-.52c-.85-1.2-.69-1.67-.31-2.17A1.77,1.77,0,0,1,96.2,17a7.15,7.15,0,0,1,1.11,1.05l-.21.27c-.22.31-.43.62-.63.95l-.3-.22a1.23,1.23,0,0,0-.31-1.83,1.08,1.08,0,0,0-1.5,0c-.19.28-.19.58.14,1.07l.77,1.14a1.41,1.41,0,0,1,.06,1.86c-.61.83-1.68.85-2.7.11-.46-.36-.79-.89-1.24-1.22.22-.33.61-.93.86-1.39Z"/><path class="cls-3" d="M98.68,23.36c0,.05.08.05.11,0a.56.56,0,0,0,.07-.16l.76-1.94-1.91.95-.11.06a.07.07,0,0,0,0,.1ZM95,22.53c.47.38.67.3,1.31,0l3.26-1.6a10.27,10.27,0,0,0,.94-.5l.3.27a5.35,5.35,0,0,0-.4.87L99,25.4c-.18.51-.2.6.29,1l-.22.24-2-1.78.21-.25c.6.51.71.51.83.35a6.68,6.68,0,0,0,.47-1.08.13.13,0,0,0,0-.12c-.13-.15-.42-.42-1-.94-.37-.33-.41-.32-.56-.25a5.59,5.59,0,0,0-.89.51c-.16.18-.13.27.38.81l-.23.25-1.54-1.41Z"/></svg>