<?xml version="1.0" encoding="utf-8"?>
<!-- Generator: Adobe Illustrator 25.0.0, SVG Export Plug-In . SVG Version: 6.00 Build 0)  -->
<svg version="1.1" id="Layer_1" xmlns="http://www.w3.org/2000/svg" xmlns:xlink="http://www.w3.org/1999/xlink" x="0px" y="0px"
	 viewBox="0 0 521.4 150.3" style="enable-background:new 0 0 521.4 150.3;" xml:space="preserve">
<style type="text/css">
	.st0{fill:#007CBA;}
	.st1{fill:#FFFFFF;}
</style>
<rect x="-31" y="-34.9" class="st0" width="583.3" height="223.7"/>
<rect x="18" y="18" class="st1" width="84.3" height="101.2"/>
<polygon class="st0" points="77.3,59.2 83.9,59.2 82.6,54.4 78.8,54.4 82.2,44.5 89.2,65.6 95.1,65.6 84.7,37.9 79.2,37.9 
	68.8,65.6 75.1,65.6 "/>
<path class="st0" d="M32.2,54.2H40v-5h-7.8v-6.3h23.4c1,0,2,0.2,3,0.6c0.9,0.4,1.7,1,2.4,1.7c0.6,0.8,1,1.8,1.2,2.8
	c0.3,1.2,0.4,2.4,0.4,3.7c0,1.3-0.1,2.5-0.5,3.7c-0.3,1-0.8,2-1.5,2.8C60,59,59.1,59.6,58.2,60c-1.2,0.5-2.5,0.7-3.8,0.6h-3.7V49.2
	h-5.8v16.4h9.4c2,0,4.1-0.3,6-0.9c3.4-1.1,6.2-3.7,7.4-7c0.7-1.9,1-4,1-6.1c0-4.5-1.2-7.9-3.6-10.2c-2.4-2.2-5.6-3.4-8.9-3.4l0,0
	H26.4v27.7h5.8V54.2z"/>
<path class="st1" d="M148.1,99.9h0.6c4.4,0,7.3-1.5,7.3-5.8c0-4-2.4-6.1-6.5-6.1h-1.4V99.9z M145.1,85.4h4.8c4.4,0,9.3,2.3,9.3,8.5
	s-4.8,8.6-9.5,8.6h-4.6V85.4z"/>
<polygon class="st1" points="176.7,102.5 174.6,102.5 169.3,89.1 169.3,102.5 166.2,102.5 166.2,85.4 170.8,85.4 175.6,97.9 
	180.6,85.4 185.1,85.4 185.1,102.5 182.1,102.5 182.1,89.2 "/>
<rect x="192.9" y="85.4" class="st1" width="3" height="17.1"/>
<polygon class="st1" points="215.2,102.5 206.8,90.9 206.8,102.5 203.8,102.5 203.8,85.4 206.4,85.4 214.9,96.9 214.9,85.4 
	217.9,85.4 217.9,102.5 "/>
<rect x="225.8" y="85.4" class="st1" width="3" height="17.1"/>
<path class="st1" d="M242.3,87.7c-1.4,0-2.5,0.7-2.5,2s1.7,1.9,3.1,2.3c2.5,0.9,5.4,2,5.4,5.4c0,3.8-3.4,5.3-6.2,5.3
	c-2.4,0-4.8-1-6.4-2.7l2.1-2c1.5,1.4,2.6,2.1,4.4,2.1c1.5,0,3-0.7,3-2.5c0-1.6-1.7-2.2-3.5-2.9c-2.3-0.8-4.7-2-4.7-4.9
	c0-3.2,2.6-4.8,5.4-4.8c2,0,4,0.7,5.5,2l-1.8,2.2C244.9,88.3,243.6,87.8,242.3,87.7"/>
<polygon class="st1" points="260.6,88 260.6,102.5 257.5,102.5 257.5,88 253.4,88 253.4,85.4 264.7,85.4 264.7,88 "/>
<path class="st1" d="M275.5,92.9c2,0,3.4-0.7,3.4-2.4c0-1.5-1.2-2.5-3-2.5h-2.2v4.9H275.5z M276.1,85.4c2.7,0,6.1,1.4,6.1,5
	c0,2.3-1.6,4.3-3.9,4.8l5.3,7.3h-3.8l-4.9-7h-1.1v7h-3V85.4H276.1z"/>
<polygon class="st1" points="314.8,88 314.8,102.5 311.7,102.5 311.7,88 307.6,88 307.6,85.4 318.9,85.4 318.9,88 "/>
<rect x="325" y="85.4" class="st1" width="3" height="17.1"/>
<path class="st1" d="M343.9,87.7c-3.3,0-5.7,2.7-5.7,6.2s2.4,6.2,5.7,6.2s5.7-2.7,5.7-6.2S347.2,87.7,343.9,87.7 M343.9,102.7
	c-4.9,0-8.8-4-8.8-8.9s4-8.8,8.9-8.8c4.9,0,8.8,4,8.8,8.8c0,4.8-3.9,8.8-8.7,8.8C344.1,102.7,344,102.7,343.9,102.7"/>
<polygon class="st1" points="371.3,102.5 362.9,90.9 362.9,102.5 359.9,102.5 359.9,85.4 362.5,85.4 371,96.9 371,85.4 374,85.4 
	374,102.5 "/>
<polygon class="st1" points="135.4,102.5 138.9,102.5 132.4,85.4 129.9,85.4 123.1,102.5 126.4,102.5 127.7,99.1 132.3,99.1 
	131.4,96.6 128.6,96.6 131,90 131,90 "/>
<polygon class="st1" points="300.8,102.5 304.3,102.5 297.8,85.4 295.3,85.4 288.5,102.5 291.8,102.5 293,99.1 297.7,99.1 
	296.8,96.6 293.9,96.6 296.3,90 296.4,90 "/>
<rect x="192.8" y="62" class="st1" width="6.4" height="6.5"/>
<path class="st1" d="M142.4,56.3c0.1,1.5-0.4,3.1-1.4,4.2c-1,1-2.4,1.6-3.8,1.5c-1.4,0.1-2.8-0.5-3.7-1.5c-1.1-1.1-1.6-2.6-1.5-4.2
	V34.9h-6.7v21.9c-0.1,3.2,1.2,6.4,3.5,8.6c2.2,2.2,5.3,3.4,8.4,3.3l0,0c6.4,0.2,11.7-4.9,11.9-11.3c0-0.2,0-0.5,0-0.7V34.9h-6.7
	L142.4,56.3z"/>
<rect x="152.5" y="62" class="st1" width="6.4" height="6.5"/>
<path class="st1" d="M179.9,48.5c-1.4-0.2-2.6-0.3-3.4-0.5c-1-0.1-2-0.6-2.8-1.3c-0.5-0.5-0.7-1.1-0.8-1.8c-0.1-1,0.4-2,1.1-2.7
	c0.9-0.6,1.9-0.9,2.9-0.9c2.5,0.1,4.9,0.8,7,2.3l0.8,0.6l3.7-5.6l-0.8-0.6c-3.1-2.2-6.7-3.5-10.5-3.5c-3.4,0-6.1,1-8,2.8
	c-2,1.9-3.1,4.6-3,7.4c-0.1,2.4,0.8,4.7,2.4,6.5c1.8,1.8,4.1,3,6.6,3.3l4,0.6c2.8,0.5,3.2,2,3.2,3.2c0,1.4-0.6,3.3-5,3.4
	c-2.9,0-5.8-1-8-2.9l-0.8-0.7l-4.3,5.1l0.7,0.6c3.4,3,7.8,4.7,12.4,4.6l0,0c9.5-0.1,11.6-5.6,11.7-10.2c0-2.4-0.8-4.7-2.3-6.5
	C185.2,49.9,182.6,48.7,179.9,48.5"/>
<rect x="192.8" y="62" class="st1" width="6.4" height="6.5"/>
<polygon class="st1" points="218.2,68.4 224.8,68.4 224.8,54.9 234.7,54.9 234.7,48.7 224.8,48.7 224.8,41.3 239.7,41.3 239.7,34.8 
	218.2,34.8 "/>
<path class="st1" d="M259.9,57.7c-0.2,0.8-0.5,1.6-1.1,2.3c-0.4,0.5-0.9,1-1.5,1.3c-1.5,0.8-3.3,0.8-4.7,0c-0.6-0.3-1.2-0.8-1.6-1.3
	c-0.5-0.6-0.9-1.4-1-2.2c-0.3-2-0.4-4.1-0.3-6.1c-0.1-2.1,0-4.1,0.3-6.2c0.1-0.8,0.5-1.6,1-2.2c0.4-0.6,1-1,1.6-1.3
	c0.7-0.4,1.5-0.6,2.3-0.5c0.8,0,1.6,0.2,2.4,0.5c0.6,0.4,1.2,0.8,1.6,1.4c0.5,0.6,0.9,1.4,1,2.1c0.3,2,0.4,4.1,0.3,6.2
	C260.2,53.7,260.1,55.7,259.9,57.7 M265.3,40.7c-0.9-1.7-2.2-3.2-3.8-4.3c-2-1.3-4.3-2-6.7-2c-2.3,0-4.6,0.7-6.6,2
	c-1.6,1.1-2.9,2.5-3.9,4.2c-0.6,1-1,2.2-1.2,3.4c-0.3,2.5-0.4,5-0.3,7.5c-0.1,2.5,0,5,0.3,7.5c0.1,0.7,0.3,1.3,0.5,1.9
	c0.2,0.5,0.4,0.9,0.6,1.4c0.9,1.7,2.2,3.2,3.9,4.2c1.9,1.3,4.2,2,6.6,2l0,0c2.4,0,4.7-0.7,6.6-2c1.6-1,2.9-2.5,3.7-4.1
	c0.7-1.1,1.1-2.2,1.2-3.5c0.2-2.5,0.3-5,0.3-7.5c0.1-2.5,0-5-0.3-7.5C266.4,42.9,266,41.8,265.3,40.7"/>
<path class="st1" d="M289,57.7c-0.2,0.8-0.5,1.6-1.1,2.3c-0.4,0.5-0.9,1-1.5,1.3c-1.5,0.8-3.3,0.8-4.7,0c-0.7-0.3-1.2-0.8-1.6-1.4
	c-0.5-0.6-0.9-1.4-1-2.2c-0.3-2-0.4-4.1-0.3-6.1c-0.1-2.1,0-4.1,0.3-6.2c0.1-0.8,0.5-1.6,1-2.2c0.4-0.6,1-1,1.6-1.3
	c0.7-0.4,1.5-0.6,2.3-0.5c0.8,0,1.6,0.2,2.4,0.5c0.7,0.3,1.2,0.8,1.7,1.4c0.5,0.6,0.9,1.4,1,2.1c0.2,2.1,0.3,4.1,0.3,6.2
	C289.3,53.7,289.2,55.7,289,57.7 M294.5,40.7c-2-3.9-6.1-6.3-10.5-6.2c-2.3,0-4.6,0.7-6.6,2c-1.6,1.1-2.9,2.5-3.9,4.2
	c-0.6,1-1,2.2-1.2,3.4c-0.3,2.5-0.4,5-0.3,7.5c-0.1,2.5,0,5,0.3,7.5c0.1,0.7,0.3,1.3,0.5,1.9c0.2,0.5,0.4,0.9,0.6,1.4
	c2.1,3.8,6.1,6.2,10.5,6.2h0c2.4,0,4.7-0.7,6.6-2c1.6-1,2.9-2.5,3.7-4.1c0.7-1.1,1.1-2.2,1.2-3.5c0.2-2.5,0.3-5,0.3-7.5
	c0.1-2.5,0-5-0.3-7.5C295.5,42.9,295.1,41.8,294.5,40.7"/>
<path class="st1" d="M319.1,57.4c-0.1,0.8-0.4,1.5-0.8,2.2c-1.1,1.6-2.9,2.5-4.8,2.3h-4.5V41.3h4.8c1.8-0.1,3.5,0.8,4.5,2.3
	c0.6,0.7,0.9,1.5,1,2.3c0.1,1.1,0.2,3.1,0.2,5.8S319.2,56.5,319.1,57.4 M324.2,40.6c-2-3.7-6-6-10.2-5.8h-11.8v33.6h11.4
	c2.2,0.1,4.5-0.5,6.4-1.7c1.7-1,3.1-2.4,4.1-4c0.3-0.6,0.7-1.2,0.9-1.8c0.3-0.6,0.5-1.3,0.6-2c0.3-2.4,0.4-4.8,0.4-7.3
	c0-2.3,0-4.6-0.2-6.9C325.5,43.3,325,41.9,324.2,40.6"/>
<path class="st1" d="M408.3,57.4c-0.1,0.8-0.4,1.5-0.8,2.2c-1.1,1.6-2.9,2.5-4.8,2.3h-4.5V41.3h4.8c1.8-0.1,3.5,0.8,4.5,2.3
	c0.6,0.7,0.9,1.5,1,2.3c0.1,1.1,0.2,3.1,0.2,5.8S408.5,56.5,408.3,57.4 M413.4,40.6c-2-3.7-6-6-10.2-5.8h-11.8v33.6h11.4
	c2.2,0.1,4.4-0.5,6.3-1.7c1.7-1,3.1-2.4,4.1-4c0.3-0.6,0.7-1.2,0.9-1.8c0.3-0.6,0.5-1.3,0.6-2c0.3-2.4,0.4-4.8,0.4-7.3
	c0-2.3,0-4.6-0.2-6.9C414.7,43.3,414.2,41.9,413.4,40.6"/>
<path class="st1" d="M437.3,47.5c-0.8,0.8-2,1.3-3.1,1.2h-6v-7.6h6.3c1-0.1,2,0.2,2.8,0.8c0.8,0.7,1.2,1.7,1.1,2.8
	C438.4,45.7,438,46.7,437.3,47.5 M444.8,44.6c0.1-2.9-1.2-5.6-3.4-7.5c-1.9-1.6-4.4-2.4-6.9-2.3h-13v33.6h6.6V54.9h4.3l6.3,13.5h7.8
	l-7.4-14.5C442.8,52.1,444.7,49,444.8,44.6"/>
<path class="st1" d="M467.1,56.2c0.1,1.6-0.4,3.1-1.5,4.2c-1,1-2.4,1.5-3.8,1.5c-1.4,0.1-2.8-0.5-3.7-1.5c-1.1-1.1-1.6-2.6-1.5-4.2
	V34.8H450v21.9c-0.1,3.2,1.2,6.4,3.5,8.6c2.2,2.2,5.3,3.4,8.4,3.3l0,0c6.4,0.2,11.7-4.9,11.9-11.3c0-0.2,0-0.5,0-0.7V34.8h-6.7
	L467.1,56.2z"/>
<path class="st1" d="M358,62.5c-1.5,0.8-3.3,1-5,0.5c-2-0.6-3.4-2.4-3.4-4.5c0-1.2,0.4-2.4,1.2-3.3c0.6-0.7,1.4-1.3,2.1-1.9l6.7,7.9
	C359.2,61.8,358.6,62.2,358,62.5 M353.6,40.2c1.3-0.9,3.1-0.6,4,0.7c0.2,0.3,0.4,0.6,0.4,1c0.2,0.9-0.1,1.9-0.8,2.5
	c-0.8,0.7-1.6,1.4-2.5,1.9c-0.8-0.8-1.5-1.8-2-2.8C352.3,42.4,352.6,41,353.6,40.2 M367.9,61.2c1-1.2,1.8-2.6,2.3-4.1
	c0.5-1.4,0.8-2.9,0.9-4.3c0.1-0.6,0.1-1.2,0.2-1.9h-5.8c-0.1,1-0.3,2-0.5,3c-0.2,1-0.7,2-1.3,2.8c-1.9-2.3-3.8-4.5-5.7-6.8l0.4-0.3
	c1.1-0.8,2.2-1.6,3.2-2.5c0.8-0.7,1.4-1.5,1.8-2.4c0.6-1.5,0.6-3.1,0.2-4.6c-0.3-1.4-1.1-2.7-2.2-3.7c-1.3-1.1-2.9-1.8-4.5-2
	c-2-0.3-4-0.1-5.9,0.6c-3.6,1.4-5.5,5.2-4.6,8.9c0.4,1.6,1.2,3.1,2.3,4.3c0.3,0.3,0.6,0.7,0.9,1l-0.3,0.2c-1.3,0.8-2.4,1.8-3.4,2.9
	c-1.1,1.2-1.8,2.6-2.2,4.1c-0.3,1.4-0.3,2.8,0,4.2c0.4,3.6,3.1,6.6,6.7,7.4c2,0.5,4.2,0.7,6.3,0.4c1.9-0.2,3.7-0.9,5.3-2
	c0.5-0.3,1-0.7,1.5-1.1c0,0.1,0.1,0.1,0.1,0.2c0.7,0.9,1.5,1.7,2.2,2.6c0.1,0.1,0.2,0.2,0.4,0.2h7.3c0.1,0,0.1,0,0.2-0.1l-6-7.1
	C367.8,61.3,367.8,61.2,367.9,61.2"/>
<path class="st1" d="M497.3,49h-6.8v6.5h6.2v0.6c0.1,1.5-0.5,3-1.5,4.1c-1,1.1-2.3,1.6-3.7,1.6c-0.8,0-1.7-0.2-2.4-0.6
	c-0.6-0.3-1.2-0.8-1.6-1.3c-0.5-0.6-0.9-1.4-1-2.2c-0.3-2-0.4-4.1-0.3-6.1c-0.1-2.1,0-4.1,0.3-6.2c0.1-0.8,0.5-1.6,1-2.2
	c0.4-0.6,1-1,1.6-1.3c0.7-0.4,1.5-0.5,2.3-0.5c1.1,0,2.2,0.4,3.1,1.1c0.8,0.7,1.5,1.7,1.8,2.8l0.2,0.7h6.9l-0.2-1.2
	c-0.5-2.7-1.8-5.3-3.8-7.2c-4.1-3.6-10-4-14.5-1c-1.6,1.1-2.9,2.5-3.8,4.2c-0.6,1-1,2.2-1.2,3.4c-0.3,2.5-0.4,5-0.3,7.5
	c-0.1,2.5,0,5,0.3,7.5c0.1,0.7,0.3,1.3,0.5,1.9c0.2,0.4,0.4,0.9,0.6,1.4c0.9,1.7,2.2,3.2,3.9,4.2c1.9,1.3,4.2,2,6.6,2l0,0
	c2,0,4-0.5,5.8-1.5v1.3h6.1V49H497.3L497.3,49z"/>
</svg>
