<?xml version="1.0" encoding="utf-8"?>
<!-- Generator: Adobe Illustrator 25.0.0, SVG Export Plug-In . SVG Version: 6.00 Build 0)  -->
<svg version="1.1" id="Layer_1" xmlns="http://www.w3.org/2000/svg" xmlns:xlink="http://www.w3.org/1999/xlink" x="0px" y="0px"
	 viewBox="0 0 669.1 153.8" style="enable-background:new 0 0 669.1 153.8;" xml:space="preserve">
<style type="text/css">
	.st0{fill:#007CBA;}
	.st1{fill:#FFFFFF;}
</style>
<rect x="-28.3" y="-34.9" class="st0" width="725.8" height="223.7"/>
<rect x="165.7" y="25.1" class="st1" width="84.3" height="101.2"/>
<polygon class="st0" points="225,66.3 231.6,66.3 230.3,61.5 226.5,61.5 229.9,51.5 236.9,72.7 242.9,72.7 232.4,45 226.9,45 
	216.6,72.7 222.8,72.7 "/>
<path class="st0" d="M179.9,61.2h7.8v-5h-7.8v-6.3h23.4c1,0,2,0.2,3,0.6c0.9,0.4,1.7,1,2.3,1.8c0.6,0.8,1.1,1.7,1.3,2.7
	c0.3,1.2,0.4,2.4,0.4,3.7c0,1.2-0.1,2.5-0.5,3.7c-0.3,1-0.8,2-1.4,2.9c-0.7,0.8-1.6,1.5-2.6,1.8c-1.2,0.5-2.5,0.7-3.8,0.6h-3.8V56.3
	h-5.8v16.4h9.4c2.1,0,4.1-0.3,6.1-0.9c1.7-0.5,3.2-1.5,4.5-2.7c1.3-1.2,2.2-2.7,2.9-4.4c0.7-1.9,1-4,1-6.1c0-4.5-1.2-7.9-3.6-10.2
	c-2.4-2.2-5.6-3.4-8.9-3.4l0,0h-29.8v27.7h5.8V61.2z"/>
<path class="st1" d="M295.8,107h0.6c4.4,0,7.3-1.5,7.3-5.8c0-4-2.4-6.1-6.5-6.1h-1.4V107z M292.8,92.5h4.8c4.4,0,9.3,2.3,9.3,8.5
	s-4.8,8.6-9.5,8.6h-4.6V92.5z"/>
<polygon class="st1" points="324.4,109.6 322.3,109.6 317,96.2 317,109.6 314,109.6 314,92.5 318.5,92.5 323.4,105 328.3,92.5 
	332.8,92.5 332.8,109.6 329.8,109.6 329.8,96.3 "/>
<rect x="340.6" y="92.4" class="st1" width="3" height="17.1"/>
<polygon class="st1" points="363,109.6 354.5,98 354.5,109.6 351.5,109.6 351.5,92.5 354.1,92.5 362.6,104 362.6,92.5 365.7,92.5 
	365.7,109.6 "/>
<rect x="373.5" y="92.4" class="st1" width="3" height="17.1"/>
<path class="st1" d="M390,94.8c-1.4,0-2.5,0.7-2.5,2s1.7,1.9,3,2.3c2.5,0.9,5.4,2,5.4,5.4c0,3.8-3.4,5.3-6.2,5.3
	c-2.4,0-4.8-1-6.4-2.7l2-2c1.5,1.4,2.6,2.1,4.4,2.1c1.5,0,3-0.7,3-2.5c0-1.6-1.7-2.2-3.5-2.9c-2.3-0.8-4.7-2-4.7-4.9
	c0-3.2,2.6-4.8,5.4-4.8c2,0,3.9,0.7,5.5,1.9l-1.8,2.2C392.5,95.4,391.3,94.9,390,94.8"/>
<polygon class="st1" points="408.3,95 408.3,109.6 405.2,109.6 405.2,95 401.1,95 401.1,92.5 412.4,92.5 412.4,95 "/>
<path class="st1" d="M423.2,100c2,0,3.4-0.7,3.4-2.4c0-1.5-1.2-2.5-3-2.5h-2.2v4.9H423.2z M423.8,92.5c2.7,0,6.1,1.4,6.1,5
	c0,2.3-1.6,4.3-3.9,4.8l5.3,7.3h-3.8l-4.9-7h-1.1v7h-3V92.5L423.8,92.5z"/>
<polygon class="st1" points="462.5,95 462.5,109.6 459.4,109.6 459.4,95 455.3,95 455.3,92.5 466.6,92.5 466.6,95 "/>
<rect x="472.7" y="92.4" class="st1" width="3" height="17.1"/>
<path class="st1" d="M491.6,94.8c-3.3,0-5.7,2.7-5.7,6.2s2.4,6.2,5.7,6.2s5.7-2.7,5.7-6.2S494.9,94.8,491.6,94.8 M491.6,109.8
	c-4.9,0-8.8-4-8.8-8.9c0-4.9,4-8.8,8.9-8.8c4.9,0,8.8,4,8.8,8.8c0,4.8-3.9,8.8-8.7,8.8C491.8,109.8,491.7,109.8,491.6,109.8"/>
<polygon class="st1" points="519,109.6 510.6,98 510.6,109.6 507.6,109.6 507.6,92.5 510.2,92.5 518.7,104 518.7,92.5 521.8,92.5 
	521.8,109.6 "/>
<polygon class="st1" points="283.1,109.6 286.6,109.6 280.1,92.5 277.6,92.5 270.8,109.6 274.1,109.6 275.4,106.2 280,106.2 
	279.1,103.6 276.3,103.6 278.7,97.1 278.7,97.1 "/>
<polygon class="st1" points="448.5,109.6 452,109.6 445.5,92.5 443,92.5 436.2,109.6 439.5,109.6 440.7,106.2 445.4,106.2 
	444.5,103.6 441.6,103.6 444,97.1 444.1,97.1 "/>
<rect x="340.5" y="69.1" class="st1" width="6.4" height="6.5"/>
<path class="st1" d="M120.3,37c0.2,3.9-3,6.4-5.3,8.7L90.7,66.1c-2.2,2-5.3,3.7-6.6,6.8c-1.6,4-2.2,8.5-2.9,12.9
	c-0.4,3.2-3.4,6-6.2,7.2c-2.2,0.8-4.8,0.4-7.1,0.6h-8.5c-0.7,0.1-1.3,0.5-1.7,1.1l-0.3,0.8c-0.9,0.1-0.6-0.7-0.7-1.2
	c0-1.9,0.4-3.8,1.8-4.9c0.8-0.7,1.8-1,2.8-1.1l12.3-0.2c0.6-0.1,1.2-0.4,1.7-0.8l0.5-1c1-6.1,1.6-12.5,4.6-17.7
	c2.8-3.3,6.4-5.6,9.6-8.5c7.3-6.1,14.9-12.4,22.1-18.7c2-1.9,4.2-4.5,4.7-7.5l0.3-0.8C118.9,33.6,120.1,35.2,120.3,37"/>
<path class="st1" d="M127.4,43.9c0.4,3.8-2.6,5.7-5,8l-9.9,8.5l-17.6,15c-2.5,2.8-2.6,6.8-3.3,10.4c0.1,1.2,1.3,1.7,1.1,2.9
	l-2.4,4.4c0.1,1.8,2.3,0.7,3,1.8c0,0.6-0.4,1.4,0.1,1.9c0.3,0.6,1.8-0.2,1,0.8c-0.2,0.2-0.1,0.5-0.1,0.8c0.3,0.4,0.8,0.4,0.9,1
	c-0.3,0.8-0.2,1.7,0.2,2.4c3.1,3.3,8.3-0.8,11.5,2.3c0.7,0.8,0.9,2,0.6,3c-1.7,5-11.8,5.3-8.3,12.4c0.7,1.2,1.9,1.9,3.3,2
	c1,0.1,2.1-0.1,3-0.6c0.3,0,0.3,0.3,0.4,0.4v0.2c-2.9,2.1-6.7,5.1-10.5,2.9c-2-1.4-3-3.8-2.4-6.2c1.2-3.9,5.7-4.9,7.9-8.2
	c0.5-1,0.4-2.2-0.1-3.2c-0.7-1.3-2.4-1.6-3.8-1.9c-2.4-0.1-6.1,1.5-7.2-1.4c-0.3-1.1,0.8-3-0.9-3.2c-0.2-0.3-0.8-0.6-0.5-1.1
	c0.1-0.3,0.6-0.3,0.3-0.7c-0.3-0.1-0.8,0-1.1-0.3c-1-1.1,1.7-2.2-0.1-3c-0.9-0.1-2.2,0.6-2.8-0.5c-0.3-1,0.4-1.7,0.8-2.5
	c0.6-1.4,2.4-2.3,2-4.1l-0.9-1.5c0.3-3.5,0.8-7,1.8-10.4c1.2-3.7,4.8-5.8,7.6-8.4l14.7-12.4l10.4-9.2c1.8-1.7,3.4-3.6,3.3-6.1
	c0.6-0.2,0.9,0.5,1.4,0.7C126.5,41.8,127.1,42.8,127.4,43.9"/>
<path class="st1" d="M123.4,62.5c-2,3.1-5.2,5.4-8.1,7.9L104,79.9c-2,2-2.7,5-1.7,7.7c0.1,1.3-0.9,2.1-1.2,3.2
	c0,0.3,0.1,0.8,0.4,0.9s1.2-0.1,1.4,0.6c0.1,0.7-0.2,1.4,0.5,1.6c0.3,0.2,0.7-0.3,0.8,0.2c-0.2,0.3-0.3,0.6-0.3,0.9
	c0.4,0.7,1.2,0.3,1.5,0.8c0.1,0.8,0.1,1.8,1,2.1c2.9,0.5,5.2-1.5,7.8-2.1c4.2-1.3,8.3,0.3,12,1.4c1.9,0.3,3.9,0.3,5.8,0l0.1,0.1
	c-2.4,2.9-5.3,5.8-9.5,5.5c-4.4-0.2-7.2-4.2-11.9-3.5c-3.2,0.6-6.4,2.5-9.8,1.2c-0.9-0.8-1.3-2-0.9-3.2c-0.2-0.8-2-0.9-0.8-1.9
	c-0.3-0.2-0.9,0-1.1-0.5s0.5-1.5-0.3-1.9c-0.7-0.1-1.6,0.3-2.1-0.3c-0.2-0.4-0.3-0.9-0.1-1.3c0.5-1.2,1.9-2.2,1.6-3.6
	c-0.9-0.9-0.6-2.3-0.5-3.5c0.5-2.8,0.7-5.7,3.3-7.6L114,65c2.9-2.8,6.6-4.6,8.7-8.3C123.9,58.4,124.2,60.5,123.4,62.5"/>
<path class="st1" d="M80.8,103.8c4,1.5,8,3.4,11.7,5.7c1,0.7,1.6,1.9,1.5,3.1c-1.2,5-8.2,5.6-7.2,11.5c0.2,2.2,1.8,4.1,3.9,4.7
	c1.1,0.3,2.2,0.3,3.2,0c0.2,0.4,0.8,0.8,0.1,1c-2.9,1.8-6.5,3.9-10,2.1c-1.6-0.9-2.8-2.5-3.2-4.4c-0.7-5.4,4.3-7,6.8-10.6
	c0.4-0.7,0.5-1.6,0.4-2.4c-0.5-0.9-1.2-1.7-2.2-2.2c-9.4-5.3-19.6-8.8-30.1-11.5c-1.7-0.2-4.4-1.2-5.6,0.8v0.1
	c-0.9,0.2-0.6-0.9-0.6-1.4c0.2-1.7,1.3-3.1,2.9-3.8c2.7-0.8,5.6,0.2,8.3,0.6C67.6,98.9,74.2,101.1,80.8,103.8"/>
<path class="st1" d="M76.7,126.2c0-0.3-0.1-0.3-0.6-0.3c-1.5,0-2.1,0.7-2.1,2.4s0.7,2.3,2.2,2.3c0.5,0,0.6,0,0.6-0.2L76.7,126.2z
	 M78.5,125.7c-0.8,0.1-0.9,0.1-0.9,0.3s0,0.9,0,2.1c0,1.2,0,1.8,0.1,2.1s0.1,0.2,0.9,0.3v0.3H76c-0.8,0.1-1.5-0.1-2.1-0.7
	c-0.5-0.5-0.8-1.2-0.8-2c0-1.5,1.2-2.7,2.6-2.7c0.1,0,0.2,0,0.3,0h2.5L78.5,125.7z"/>
<path class="st1" d="M72.6,125.8c-0.7,0-0.8,0-0.8,0.2s-0.1,0.9-0.2,2.1s-0.2,1.8-0.2,2.1s0,0.2,0.8,0.4v0.3l-2.9-0.2
	c-0.4,0-0.8,0-1.2,0c0-0.5,0-1,0-1.5h0.3c0.1,1,0.3,1.1,1.4,1.2l0.7,0.1c0.1,0,0.1,0,0.2-0.1l0.2-1.8c0-0.1,0-0.1-0.2-0.2h-0.2
	c-0.8-0.1-0.9,0-1,0.6h-0.3c0-0.2,0.1-0.5,0.1-0.9s0-0.7,0-0.9h0.3c0,0.6,0.1,0.7,0.7,0.8h0.5c0.1,0,0.1,0,0.1-0.1l0.2-2
	c0-0.1,0-0.2-0.1-0.2l-1.3-0.1c-0.6-0.1-0.8,0.1-1,0.6l-0.2,0.5l-0.3-0.1c0.2-0.5,0.3-1,0.3-1.5l4.3,0.4L72.6,125.8z"/>
<path class="st1" d="M65.3,127.5l-0.4-0.1c-0.8-0.1-1.5-0.1-1.7,0.9s0.4,1.2,1.2,1.4c0.4,0.1,0.4,0,0.4-0.1L65.3,127.5z M67.6,125.4
	c-0.8-0.1-0.8-0.1-0.9,0.1s-0.2,0.9-0.4,2c-0.2,1.1-0.3,1.8-0.3,2.1s0,0.2,0.8,0.4l-0.1,0.3l-2.8-0.5c-0.5-0.1-0.9-0.3-1.3-0.7
	c-0.2-0.3-0.3-0.6-0.3-1c0.2-1.1,1.2-1.4,2.6-1.1c0.2,0,0.4,0.1,0.5,0.1l0.3-1.8c0-0.2,0-0.2-0.9-0.5l0.1-0.3l2.7,0.5L67.6,125.4z"
	/>
<path class="st1" d="M59.7,125.6C59.6,125.6,59.6,125.6,59.7,125.6c-0.1,0.1-0.1,0.1-0.1,0.2l0.2,2.1l1.3-1.7c0,0,0.1-0.1,0.1-0.1
	c0,0,0-0.1-0.1-0.1L59.7,125.6z M63.4,124.7c-0.6-0.1-0.8,0-1.2,0.6l-2.2,2.9c-0.2,0.3-0.4,0.6-0.6,0.9l-0.4-0.1c0-0.3,0-0.7,0-1
	l-0.5-4c0-0.6-0.1-0.7-0.7-0.8l0.1-0.3l2.6,0.7l-0.1,0.3c-0.8-0.2-0.8-0.1-0.9,0.1c0,0.4,0,0.8,0.1,1.2c0,0,0,0.1,0.1,0.1
	c0.4,0.2,0.9,0.3,1.3,0.4c0.5,0.1,0.5,0.1,0.6,0c0.2-0.3,0.4-0.6,0.6-0.8c0.1-0.2,0-0.3-0.7-0.6l0.1-0.3l2,0.6L63.4,124.7z"/>
<path class="st1" d="M55,124.9c0-0.1,0-0.2-0.4-0.4c-1.1-0.4-1.5,0.1-1.7,0.5c-0.2,0.6,0,1.2,0.8,1.5c0.5,0.2,0.5,0.2,0.6,0
	L55,124.9z M57.6,123c-0.7-0.2-0.8-0.2-0.9,0c-0.3,0.6-0.6,1.3-0.8,1.9c-0.5,1.1-0.7,1.7-0.8,2s0,0.2,0.7,0.6l-0.1,0.3l-2.7-1.2
	c-0.4-0.1-0.8-0.4-1-0.7c-0.2-0.3-0.2-0.8-0.1-1.1c0.4-1.1,1.7-0.8,1.7-0.8c0-0.1,0-0.1,0-0.2l-0.5-2c-0.1-0.5-0.2-0.6-0.5-0.8
	l0.1-0.3l1.2,0.5l0.6,2.9c0,0.1,0.1,0.1,0.4,0.2s0.3,0.1,0.3,0c0.5-1.3,0.6-1.5,0.7-1.7s0-0.2-0.7-0.6l0.1-0.3l2.4,1L57.6,123z"/>
<path class="st1" d="M52.2,120.7c-0.8-0.3-0.8-0.3-1-0.2s-0.2,0.4-0.4,0.8l-1.6,3.2l0.8,0.4c0.2,0.1,0.4,0,1.1-0.7l0.3,0.2
	c-0.3,0.4-0.6,0.8-0.8,1.2l-0.4-0.3c-0.1-0.1-0.2-0.2-0.4-0.2l-2.4-1.2c-0.3-0.1-0.6-0.3-0.8-0.4c0.2-0.4,0.4-0.9,0.5-1.4l0.3,0.1
	c-0.1,1-0.1,1.2,0.1,1.3l0.8,0.4l1.7-3.2c0.2-0.4,0.3-0.7,0.4-0.8s0-0.2-0.7-0.7l0.2-0.3l2.5,1.3L52.2,120.7z"/>
<path class="st1" d="M48.6,118.9c-0.7-0.4-0.8-0.4-0.9-0.3s-0.5,0.7-1.2,1.7s-1,1.5-1.2,1.7s-0.1,0.2,0.6,0.8l-0.2,0.3l-1.7-1.2
	c0,0,0.1-0.1,0.1-0.2l1.1-4.1l0,0l-3.7,2.7l-1.7-1.2l0.2-0.3c0.7,0.4,0.8,0.4,0.9,0.3s0.5-0.7,1.2-1.7s1-1.5,1.2-1.7
	s0.1-0.2-0.6-0.8l0.2-0.3l2.2,1.5l-0.2,0.3c-0.7-0.4-0.8-0.4-0.9-0.2l-2.4,3.6l3.8-2.8l0.3-0.2l0.5,0.3c0,0.1-0.1,0.2-0.1,0.3
	l-1.2,4.6l0,0l2-3c0.1-0.2,0.2-0.4,0.3-0.6c0.1-0.2,0.1-0.2-0.5-0.7l0.2-0.3l1.8,1.2L48.6,118.9z"/>
<path class="st1" d="M42.6,114.7c-0.6-0.4-0.6-0.4-0.8-0.3s-0.6,0.7-1.4,1.6s-1.2,1.4-1.3,1.6s-0.1,0.2,0.4,0.7l-0.2,0.2l-2.2-1.9
	c-0.3-0.3-0.7-0.5-1-0.7c0.3-0.4,0.6-0.8,0.9-1.2l0.3,0.2c-0.5,0.9-0.4,1.1,0.4,1.8l0.5,0.5c0.1,0.1,0.1,0,0.2,0l1.2-1.3
	c0.1-0.1,0.1-0.1-0.1-0.3l-0.2-0.1c-0.6-0.6-0.8-0.5-1.2-0.1l-0.2-0.2c0.2-0.2,0.3-0.3,0.6-0.6s0.4-0.5,0.6-0.7l0.3,0.2
	c-0.3,0.4-0.4,0.6,0.1,1l0.4,0.4c0.1,0,0.1,0.1,0.2,0l1.3-1.5c0.1,0,0.1-0.1,0-0.2c0,0,0,0,0,0l-1-0.9c-0.3-0.3-0.8-0.4-1.1-0.1
	c0,0,0,0-0.1,0l-0.5,0.3l-0.2-0.3c0.4-0.3,0.8-0.6,1.2-1l3.3,2.9L42.6,114.7z"/>
<path class="st1" d="M38.9,111.4c-0.5-0.5-0.6-0.5-0.8-0.4s-0.7,0.6-1.5,1.4s-1.3,1.2-1.5,1.4s-0.1,0.2,0.3,0.8l-0.2,0.2l-1.1-1.2
	c0-0.1,0.1-0.3,0.1-0.4l1-4.2l0,0l-0.9,0.8c-0.9,0.8-1.3,1.2-1.5,1.4s-0.1,0.2,0.4,0.9l-0.2,0.2l-1.5-1.6l0.2-0.2
	c0.5,0.5,0.6,0.5,0.9,0.3s0.7-0.6,1-0.9c1.1-1,2-1.9,2.5-2.4l0.4,0.4c-0.2,0.6-0.4,1.2-0.5,1.9l-0.7,3.2l0,0l1.2-1.1
	c0.9-0.8,1.3-1.2,1.5-1.4s0.1-0.2-0.5-0.9l0.2-0.2l1.6,1.7L38.9,111.4z"/>
<path class="st1" d="M34.3,106.3c-0.6-0.7-0.6-0.7-0.8-0.6c-0.3,0.2-0.5,0.3-0.7,0.5l-2.9,2.2l0.5,0.7c0.2,0.2,0.4,0.2,1.3-0.1
	l0.1,0.3c-0.4,0.2-0.9,0.5-1.3,0.8c-0.1-0.1-0.1-0.3-0.2-0.4s-0.2-0.3-0.3-0.4l-1.6-2.1c-0.2-0.2-0.4-0.5-0.6-0.7
	c0.4-0.3,0.8-0.6,1.1-1l0.3,0.2c-0.5,0.8-0.6,1-0.5,1.2l0.5,0.7l2.9-2.2c0.4-0.3,0.6-0.5,0.7-0.6s0.2-0.2-0.3-0.9l0.3-0.2l1.7,2.2
	L34.3,106.3z"/>
<path class="st1" d="M29.2,98.4c-0.4-0.7-1.4-1-2.9-0.2s-1.8,1.8-1.5,2.5s1.4,1,2.9,0.2S29.6,99.1,29.2,98.4 M24.6,100.9
	c-0.7-1.3-0.1-2.8,1.1-3.5c0.1,0,0.1-0.1,0.2-0.1c1.2-0.8,2.8-0.4,3.5,0.8c0.8,1.2,0.4,2.8-0.8,3.5c-0.1,0.1-0.3,0.2-0.4,0.2
	c-1.2,0.8-2.8,0.4-3.6-0.8C24.6,101,24.6,100.9,24.6,100.9"/>
<path class="st1" d="M27.8,95.7c-0.3-0.7-0.4-0.7-0.6-0.6c-0.7,0.2-1.3,0.5-1.9,0.8c-0.7,0.2-1.3,0.5-1.9,0.8
	c-0.2,0.1-0.2,0.1,0,0.8L23,97.6l-1-2.7c-0.2-0.4-0.3-0.7-0.5-1.1c0.5-0.2,0.9-0.4,1.3-0.7l0.2,0.3c-0.9,0.6-0.9,0.8-0.5,1.8
	l0.2,0.7c0,0.1,0.1,0.1,0.2,0.1l1.6-0.7c0.1,0,0.1-0.1,0-0.3l-0.1-0.2c-0.3-0.8-0.5-0.8-1-0.6l-0.1-0.3c0.2-0.1,0.5-0.2,0.8-0.3
	s0.6-0.2,0.8-0.3l0.1,0.3c-0.5,0.2-0.6,0.4-0.4,1L25,95c0,0.1,0.1,0.1,0.2,0.1l1.7-0.7c0.2-0.1,0.2-0.1-0.1-1l0.3-0.1l1,2.4
	L27.8,95.7z"/>
<path class="st1" d="M25.3,89.2c-0.2-0.8-0.3-0.8-0.5-0.8s-0.9,0.2-2,0.4s-1.8,0.4-2,0.5s-0.2,0.1-0.1,0.9l-0.3,0.1l-0.6-2.6
	l0.3-0.1c0.2,0.8,0.3,0.8,0.5,0.8s0.6-0.1,1-0.2l0.5-0.1c0.2,0,0.2-0.1,0.2-0.3l-0.5-2c0-0.2-0.1-0.2-0.3-0.2L21,85.8L20,86
	c-0.2,0.1-0.2,0.1-0.1,0.9L19.6,87L19,84.4l0.3-0.1c0.2,0.8,0.3,0.8,0.5,0.8s0.9-0.2,2-0.4s1.8-0.4,2-0.5s0.2-0.1,0.1-0.9l0.3-0.1
	l0.6,2.6l-0.3,0.1c-0.2-0.8-0.3-0.8-0.5-0.8s-0.8,0.2-1.7,0.4c-0.2,0-0.2,0.1-0.2,0.3l0.5,2c0,0.2,0.1,0.2,0.3,0.2
	c0.9-0.2,1.5-0.4,1.7-0.4s0.2-0.1,0.1-0.9l0.3-0.1l0.6,2.6L25.3,89.2z"/>
<path class="st1" d="M23.9,83c-0.1-0.7-0.2-0.8-0.4-0.8s-0.9,0.1-2.1,0.2s-1.8,0.2-2.1,0.3s-0.2,0.1-0.2,0.8h-0.3l-0.4-2.9
	c0-0.4-0.1-0.8-0.2-1.2c0.4-0.1,1.2-0.2,1.5-0.3l0.1,0.3c-1,0.3-1.1,0.5-0.9,1.6l0.1,0.7c0,0.1,0.1,0.1,0.2,0.1l1.8-0.2
	c0.1,0,0.1,0,0.1-0.3v-0.2c-0.1-0.8-0.2-0.9-0.8-0.9V80c0.3,0,0.5,0,0.9-0.1s0.7-0.1,0.9-0.1v0.3c-0.5,0.1-0.7,0.2-0.6,0.8l0.1,0.5
	c0,0.1,0,0.1,0.2,0.1l2-0.2c0.1,0,0.1,0,0.1-0.2l-0.2-1.3c-0.1-0.6-0.3-0.8-0.8-0.8l-0.5-0.1l0-0.4c0.5,0,1,0,1.5,0l0.5,4.4H23.9z"
	/>
<path class="st1" d="M21.4,74.9C21.4,74.9,21.4,74.8,21.4,74.9c-0.1-0.1-0.1-0.1-0.2-0.1l-1.9,0.8l2,0.7h0.1c0,0,0,0,0-0.1
	L21.4,74.9z M23.4,78.2c0-0.6-0.2-0.7-0.9-1L19,76c-0.3-0.1-0.7-0.3-1-0.3v-0.4c0.3-0.1,0.6-0.2,0.9-0.3l3.7-1.6
	c0.5-0.2,0.6-0.3,0.6-0.9h0.3l0,2.7h-0.3c0-0.8-0.1-0.8-0.3-0.8c-0.4,0.1-0.7,0.2-1.1,0.4c0,0-0.1,0.1-0.1,0.1c0,0.2,0,0.6,0,1.4
	c0,0.5,0,0.5,0.2,0.6c0.3,0.1,0.7,0.2,1,0.3c0.2,0,0.3-0.1,0.3-0.8h0.3v2.1L23.4,78.2z"/>
<path class="st1" d="M23.2,72.2c0-0.8,0-0.8-0.2-0.8s-0.9-0.1-2.1-0.2S19.1,71,18.9,71s-0.2,0-0.4,0.8h-0.3l0.2-2.5h0.3
	c0,0.8,0,0.8,0.2,0.8l1,0.1l3.1,0.3c0.3,0,0.3,0,0.4-0.3l0.1-0.9c0.1-0.8-0.1-0.9-1.2-1.4l0.1-0.3c0.5,0.2,1.1,0.3,1.6,0.4l-0.4,4.3
	L23.2,72.2z"/>
<path class="st1" d="M23.8,67.1c0.1-0.8,0.1-0.9-0.1-1s-0.4-0.1-0.9-0.2l-3.5-0.6l-0.1,0.9c-0.1,0.3,0.1,0.4,1,0.9L20,67.4
	c-0.5-0.2-0.9-0.3-1.4-0.4l0.1-0.4c0-0.1,0.1-0.3,0.1-0.4l0.5-2.6c0.1-0.3,0.1-0.6,0.1-0.9c0.5,0.1,1,0.1,1.5,0.1v0.4
	c-1,0.2-1.2,0.2-1.2,0.5l-0.2,0.9l3.5,0.6c0.3,0.1,0.6,0.1,0.9,0.1c0.2,0,0.2,0,0.4-0.8h0.3l-0.5,2.7L23.8,67.1z"/>
<path class="st1" d="M24.4,63.4c0.2-0.8,0.2-0.8,0-0.9s-0.9-0.3-2-0.6s-1.8-0.5-2-0.5s-0.2,0-0.5,0.8L19.5,62l0.7-2.6l0.3,0.1
	c-0.2,0.8-0.1,0.8,0,0.9s0.6,0.2,1,0.3l0.5,0.1c0.2,0.1,0.2,0,0.3-0.2l0.6-2c0-0.2,0-0.2-0.2-0.3l-0.5-0.2c-0.3-0.1-0.8-0.2-1-0.2
	s-0.2,0-0.5,0.8l-0.3-0.1l0.7-2.6l0.3,0.1c-0.2,0.8-0.2,0.8,0,0.9s0.9,0.3,2,0.6s1.8,0.5,2,0.5s0.2,0,0.5-0.8l0.3,0.1l-0.7,2.6
	l-0.3-0.1c0.2-0.8,0.2-0.8,0-0.9s-0.8-0.3-1.7-0.5c-0.2-0.1-0.3,0-0.3,0.1l-0.6,2c0,0.2,0,0.2,0.2,0.3c0.9,0.2,1.5,0.4,1.7,0.5
	s0.2,0,0.5-0.8l0.3,0.1l-0.7,2.6L24.4,63.4z"/>
<path class="st1" d="M27.9,53c0.2-0.3,0.2-0.7,0.1-1c-0.9,0.2-1.8,0.3-2.6,0.3c0,0.5,0.2,0.9,0.6,1.1C26.6,53.8,27.4,53.6,27.9,53
	 M25,51.5c0-0.4-0.2-0.7-0.6-0.9c-0.3-0.2-0.6-0.1-0.8,0.2c0,0,0,0,0,0c-0.1,0.2,0,0.5,0.3,0.7C24.3,51.7,24.7,51.7,25,51.5
	 M29.5,49.9c0.1,0.4,0,0.9-0.1,1.3c-0.2,0.3-0.5,0.5-1,0.7c0.2,0.5,0.1,1.1-0.1,1.7c-0.3,0.8-1.2,1.2-2,0.9c0,0-0.1,0-0.1-0.1
	c-0.7-0.3-1-0.9-1-2c-0.5,0.1-0.9,0.1-1.4-0.1c-0.5-0.2-0.8-0.7-0.4-1.5s0.8-1,1.4-0.7c0.5,0.3,0.8,0.9,0.6,1.4
	c0.8-0.1,1.6-0.1,2.4-0.2c-0.1-0.4-0.4-0.7-0.8-1c-0.2-0.1-0.4,0-0.5,0.3l-0.3-0.1l0.8-1.6l0.3,0.1c-0.2,0.4-0.1,0.8,0.2,1.1
	c0.3,0.4,0.5,0.7,0.7,1.2c0.6-0.1,0.8-0.2,1-0.5c0.1-0.3,0.1-0.6,0.1-0.9L29.5,49.9z"/>
<path class="st1" d="M30.8,47.6c0.4-0.7,0.4-0.7,0.3-0.9s-0.7-0.5-1.7-1.2s-1.5-1-1.7-1.2s-0.2-0.1-0.8,0.5l-0.3-0.2l1.5-2.2
	l0.3,0.2c-0.4,0.7-0.4,0.7-0.3,0.9l0.8,0.6l0.4,0.3c0.2,0.1,0.2,0.1,0.4,0l1.2-1.7c0.1-0.2,0.1-0.2-0.1-0.3L30.4,42
	c-0.3-0.2-0.7-0.5-0.8-0.5s-0.2-0.1-0.7,0.5l-0.3-0.2l1.5-2.2l0.3,0.2c-0.4,0.7-0.4,0.7-0.3,0.9s0.7,0.5,1.7,1.2
	c1,0.7,1.5,1,1.7,1.2s0.2,0.1,0.7-0.5l0.3,0.2L33,45l-0.3-0.2c0.4-0.7,0.4-0.7,0.3-0.9s-0.7-0.5-1.5-1c-0.2-0.1-0.2-0.1-0.3,0
	L30,44.6c-0.1,0.2-0.1,0.2,0.1,0.3c0.8,0.5,1.3,0.9,1.5,1s0.2,0.1,0.8-0.5l0.2,0.2L31,47.8L30.8,47.6z"/>
<path class="st1" d="M30.7,38.9l1.8-2l0.2,0.2c-0.5,0.6-0.5,0.7-0.4,0.8s0.6,0.6,2.1,1.9c0.5,0.6,1.3,0.7,1.9,0.2
	c0.1-0.1,0.1-0.1,0.2-0.2c0.9-1,0.5-1.6-0.7-2.7c-1-0.9-1.4-1.3-1.6-1.4s-0.2-0.1-0.8,0.5L33.2,36l1.5-1.7l0.2,0.2
	c-0.5,0.6-0.5,0.7-0.4,0.9l1.9,1.7c0.9,0.8,1.6,1.7,0.3,3.2c-0.6,0.9-1.8,1.1-2.6,0.5c-0.1-0.1-0.3-0.2-0.4-0.3
	c-1.4-1.3-1.9-1.7-2.1-1.9s-0.2-0.1-0.8,0.4L30.7,38.9z"/>
<path class="st1" d="M38.4,37.9c0.6-0.6,0.6-0.6,0.5-0.8s-0.5-0.7-1.3-1.6s-1.2-1.4-1.4-1.6s-0.2-0.1-0.9,0.4L35.1,34l1.6-1.4
	c0.1,0.1,0.1,0.1,0.2,0.2l3.7,2.2l0,0L39,30.7l1.6-1.4l0.2,0.3c-0.6,0.6-0.6,0.6-0.5,0.8s0.5,0.7,1.3,1.6s1.2,1.4,1.4,1.6
	s0.2,0.1,0.9-0.4l0.2,0.3l-2,1.8L41.8,35c0.6-0.6,0.6-0.6,0.5-0.8l-2.8-3.3l0,0l1.7,4.4c0,0.1,0.1,0.3,0.2,0.4l-0.5,0.4
	c-0.1-0.1-0.2-0.1-0.3-0.2l-4.1-2.4l0,0l2.4,2.7c0.2,0.2,0.3,0.3,0.5,0.5c0.2,0.1,0.2,0.1,0.8-0.3l0.2,0.2l-1.7,1.5L38.4,37.9z"/>
<path class="st1" d="M45.9,29.6c0.1,0,0.1-0.1,0.1-0.1c0,0-0.1-0.1-0.1-0.1l-1.7-1.2l0.4,2.1c0,0,0,0.1,0,0.1c0,0,0.1,0,0.1,0
	L45.9,29.6z M44.2,33c0.5-0.4,0.5-0.6,0.3-1.3l-0.7-3.6c-0.1-0.4-0.1-0.7-0.2-1l0.3-0.2c0.2,0.2,0.5,0.4,0.7,0.6l3.4,2.3
	c0.4,0.3,0.5,0.4,1.1,0l0.2,0.3L47,31.6l-0.2-0.3c0.7-0.5,0.7-0.5,0.5-0.7c-0.3-0.3-0.6-0.5-0.9-0.7c0,0-0.1,0-0.1,0
	c-0.2,0.1-0.5,0.3-1.2,0.7c-0.4,0.3-0.4,0.3-0.4,0.5c0.1,0.3,0.1,0.7,0.3,1c0.1,0.2,0.2,0.2,0.9-0.2l0.2,0.3l-1.8,1.1L44.2,33z"/>
<path class="st1" d="M49.3,29.7c0.7-0.4,0.7-0.4,0.6-0.6s-0.4-0.8-0.9-1.9s-0.8-1.6-1-1.9s-0.2-0.2-0.8,0.1L47,25.1l1.4-0.7l0.4,0.2
	l3.8,2.1l0,0L52,25.7c-0.5-1.1-0.8-1.6-1-1.9s-0.2-0.2-0.9,0.1L50,23.7l2-1l0.2,0.3c-0.7,0.3-0.7,0.4-0.5,0.8s0.4,0.8,0.5,1.2
	c0.7,1.4,1.2,2.5,1.6,3l-0.5,0.2c-0.5-0.4-1.1-0.7-1.7-1l-2.9-1.6l0,0l0.7,1.4c0.5,1.1,0.8,1.6,1,1.9s0.2,0.2,1-0.2l0.1,0.3l-2.1,1
	L49.3,29.7z"/>
<path class="st1" d="M57.5,24.5c0.5,0.8,1.1,1.3,1.9,1s1.1-0.8,1-1.3s-0.6-0.5-1.2-0.6h-0.6c-1.5,0-1.8-0.4-1.9-1
	c-0.3-0.9,0.3-1.9,1.3-2.2c0,0,0.1,0,0.1,0c0.5-0.2,1-0.2,1.5-0.3c0,0.1,0.1,0.2,0.1,0.3c0.1,0.4,0.2,0.7,0.4,1.1l-0.3,0.1
	c-0.4-0.9-1-1.1-1.7-0.8c-0.6,0.1-0.9,0.6-0.9,1.2c0.1,0.3,0.3,0.5,1,0.5l1.4,0c0.7-0.1,1.4,0.4,1.6,1.1c0.3,1-0.3,1.9-1.5,2.2
	c-0.5,0.2-1.2,0.1-1.7,0.3c-0.1-0.4-0.4-1-0.6-1.5L57.5,24.5z"/>
<path class="st1" d="M61.8,24.7c0.7-0.2,0.7-0.2,0.7-0.4s-0.2-0.9-0.4-2.1s-0.4-1.8-0.5-2s-0.1-0.2-0.8-0.1l-0.1-0.3l2.9-0.6
	c0.4-0.1,0.8-0.2,1.2-0.3c0.1,0.5,0.3,1,0.4,1.4l-0.3,0.1c-0.4-0.9-0.6-1-1.7-0.8l-0.7,0.1c-0.1,0-0.1,0.1-0.1,0.2l0.4,1.7
	c0,0.1,0,0.1,0.3,0.1h0.2c0.8-0.2,0.8-0.3,0.8-0.9l0.3-0.1c0,0.2,0.1,0.5,0.2,0.9l0.2,0.9l-0.3,0.1c-0.2-0.5-0.3-0.6-0.9-0.5
	L63,22.1c-0.1,0-0.1,0.1-0.1,0.2l0.4,1.9c0,0.1,0.1,0.1,0.1,0.1c0,0,0,0,0,0l1.3-0.4c0.6-0.1,0.7-0.3,0.8-0.9l0.1-0.6H66
	c0,0.5,0,1,0.1,1.5L61.8,25L61.8,24.7z"/>
<path class="st1" d="M68.2,20.7c0,0.1,0,0.2,0.5,0.1c1.2-0.1,1.4-0.8,1.3-1.2c-0.1-0.6-0.6-1-1.4-1C68,18.7,68,18.8,68,19L68.2,20.7
	z M66.7,23.7c0.8-0.1,0.8-0.2,0.8-0.4s-0.1-0.9-0.2-2.1s-0.2-1.8-0.2-2.1s-0.1-0.2-0.9-0.2v-0.3l3-0.3c0.4-0.1,0.9,0,1.3,0.2
	c0.4,0.2,0.6,0.6,0.6,1c0.1,1.1-1.1,1.5-1.1,1.5s0,0.1,0.1,0.2l1.4,1.5c0.3,0.4,0.4,0.5,0.8,0.4v0.3L71,23.6l-2-2.3
	c-0.1-0.1-0.1-0.1-0.5,0s-0.3,0-0.3,0.1c0.2,1.4,0.2,1.6,0.2,1.8s0.1,0.2,0.9,0.2v0.3L66.7,24L66.7,23.7z"/>
<path class="st1" d="M71.3,18.1H74v0.3h-0.4c-0.4,0-0.4,0.1-0.4,0.2c0.2,0.7,0.5,1.5,0.8,2.2l0.6,1.5l0.6-1.6
	c0.3-0.7,0.5-1.4,0.7-2.1c0-0.2-0.1-0.2-0.8-0.2V18h2.1v0.3h-0.2c-0.4,0-0.5,0.2-0.8,1.1c-0.6,1.3-1.1,2.7-1.4,4.2h-0.5
	c-0.5-1.5-1.1-3-1.8-4.5c-0.3-0.7-0.4-0.7-1-0.7L71.3,18.1z"/>
<path class="st1" d="M77.3,23.2c0.8,0,0.9,0,0.9-0.2s0.1-0.9,0.2-2.1s0.2-1.8,0.1-2.1s0-0.2-0.9-0.4v-0.3l2.8,0.2v0.3
	c-0.8,0-0.9,0-0.9,0.2c-0.1,0.7-0.2,1.4-0.2,2.1c-0.1,1.2-0.2,1.8-0.1,2.1s0,0.2,0.9,0.4v0.3l-2.8-0.2L77.3,23.2z"/>
<path class="st1" d="M85.6,23.4c-0.6,0.8-1.6,1.1-2.6,1c-1.4-0.2-2.4-1.6-2.1-3c0-0.1,0-0.2,0.1-0.3c0.2-1.5,1.5-2.6,3-2.4
	c0.1,0,0.2,0,0.3,0c0.5,0.1,1.1,0.3,1.6,0.5c0,0.5,0,1,0,1.5h-0.4c-0.1-0.9-0.5-1.5-1.4-1.7s-1.8,0.7-2,2.1s0.4,2.5,1.3,2.6
	c0.8,0.1,1.5-0.2,2-0.8L85.6,23.4z"/>
<path class="st1" d="M85.7,24.3c0.7,0.1,0.8,0.1,0.8-0.1s0.3-0.8,0.6-2s0.5-1.8,0.5-2s0-0.2-0.7-0.5l0.1-0.3l2.8,0.8
	c0.4,0.1,0.8,0.2,1.2,0.2c-0.1,0.5-0.2,1-0.2,1.5h-0.3c0-1-0.1-1.2-1.1-1.5l-0.7-0.2c-0.1,0-0.2,0-0.2,0.1L88,22
	c0,0.1,0,0.1,0.2,0.2l0.2,0.1c0.8,0.2,0.9,0.1,1.1-0.4l0.3,0.1c-0.1,0.3-0.2,0.6-0.2,0.8c-0.1,0.3-0.2,0.6-0.2,0.9l-0.3-0.1
	c0.1-0.6,0-0.7-0.6-0.9L88,22.5c-0.1,0-0.1,0-0.2,0.1c0,0,0,0,0,0l-0.5,1.9c0,0.1,0,0.1,0.1,0.2l1.3,0.4c0.4,0.2,0.9,0,1.1-0.4
	c0,0,0,0,0,0l0.3-0.5l0.3,0.2c-0.2,0.4-0.4,0.9-0.6,1.4l-4.2-1.1L85.7,24.3z"/>
<path class="st1" d="M91.6,24.4c-0.1,1,0.1,1.7,0.8,2s1.4,0,1.6-0.5s-0.1-0.8-0.6-1.1l-0.5-0.4c-1.1-0.9-1.1-1.4-0.9-2
	c0.4-0.9,1.5-1.3,2.4-0.9c0,0,0.1,0,0.1,0.1c0.5,0.2,0.9,0.4,1.3,0.7c0,0.1-0.1,0.2-0.1,0.3c-0.1,0.3-0.2,0.7-0.3,1.1l-0.3-0.1
	c0.2-1-0.1-1.4-0.8-1.7c-0.5-0.3-1.1-0.1-1.4,0.4c0,0,0,0,0,0c-0.1,0.3,0,0.6,0.4,1l1,0.9c0.6,0.4,0.8,1.1,0.6,1.8
	c-0.4,1-1.4,1.3-2.6,0.8c-0.5-0.2-1-0.6-1.5-0.8c0.1-0.4,0.3-1.1,0.4-1.6L91.6,24.4z"/>
<path class="st1" d="M97.9,25.5c0.3,0.1,0.4,0.5,0.3,0.7s-0.5,0.4-0.7,0.3c-0.3-0.1-0.4-0.4-0.3-0.7c0,0,0,0,0,0
	C97.3,25.6,97.6,25.4,97.9,25.5C97.9,25.6,97.9,25.6,97.9,25.5"/>
<path class="st1" d="M100.4,24.2l2.3,1.4l-0.2,0.3c-0.7-0.3-0.8-0.3-0.9-0.2s-0.5,0.8-1.5,2.5c-0.5,0.6-0.4,1.4,0.2,1.9
	c0.1,0.1,0.1,0.1,0.2,0.1c1.2,0.7,1.7,0.2,2.5-1.2c0.6-1.1,1-1.6,1.1-1.9s0-0.2-0.7-0.7l0.2-0.3l1.9,1.1l-0.2,0.3
	c-0.7-0.4-0.8-0.4-0.9-0.2s-0.5,0.7-1.3,2.2c-0.6,1-1.3,1.9-3,1c-1-0.4-1.4-1.5-1-2.5c0.1-0.1,0.1-0.3,0.2-0.4
	c1-1.7,1.3-2.2,1.4-2.5s0.1-0.2-0.6-0.7L100.4,24.2z"/>
<path class="st1" d="M104.6,31c-0.4,0.9-0.4,1.7,0.3,2.1s1.3,0.4,1.6,0s0.1-0.8-0.2-1.3l-0.4-0.5c-0.8-1.2-0.7-1.7-0.3-2.2
	c0.6-0.8,1.7-0.9,2.5-0.3c0,0,0.1,0.1,0.1,0.1c0.4,0.3,0.8,0.7,1.1,1l-0.2,0.3c-0.2,0.3-0.4,0.6-0.6,1l-0.3-0.2
	c0.4-0.5,0.4-1.3-0.2-1.7c0,0-0.1-0.1-0.1-0.1c-0.4-0.4-1.1-0.4-1.5,0c-0.2,0.3-0.2,0.6,0.1,1.1l0.8,1.1c0.5,0.5,0.5,1.3,0.1,1.9
	c-0.6,0.8-1.7,0.8-2.7,0.1c-0.5-0.3-0.8-0.9-1.2-1.2c0.2-0.3,0.6-0.9,0.9-1.4L104.6,31z"/>
<path class="st1" d="M110.7,35.4C110.7,35.4,110.8,35.4,110.7,35.4c0.1,0,0.2-0.1,0.2-0.2l0.8-1.9l-1.9,1l-0.1,0.1c0,0,0,0.1,0,0.1
	c0,0,0,0,0,0L110.7,35.4z M107,34.5c0.5,0.4,0.7,0.3,1.3,0l3.3-1.6c0.3-0.2,0.6-0.3,0.9-0.5l0.3,0.3c-0.2,0.3-0.3,0.6-0.4,0.9
	l-1.4,3.8c-0.2,0.5-0.2,0.6,0.3,1l-0.2,0.2l-2-1.8l0.2-0.2c0.6,0.5,0.7,0.5,0.8,0.3c0.2-0.3,0.3-0.7,0.5-1.1c0,0,0-0.1,0-0.1
	c-0.1-0.2-0.4-0.4-1-0.9c-0.4-0.3-0.4-0.3-0.6-0.2c-0.3,0.1-0.6,0.3-0.9,0.5c-0.2,0.2-0.1,0.3,0.4,0.8l-0.2,0.2l-1.5-1.4L107,34.5z"
	/>
<path class="st1" d="M290.1,63.3c0.1,1.5-0.4,3.1-1.5,4.2c-1,1-2.4,1.5-3.8,1.5c-1.4,0.1-2.8-0.5-3.7-1.5c-1.1-1.1-1.6-2.6-1.5-4.2
	V42H273v21.9c-0.1,3.2,1.2,6.4,3.5,8.6c2.2,2.2,5.3,3.4,8.4,3.3l0,0c6.4,0.2,11.7-4.9,11.9-11.3c0-0.2,0-0.5,0-0.7V42h-6.7
	L290.1,63.3z"/>
<rect x="300.2" y="69.1" class="st1" width="6.4" height="6.5"/>
<path class="st1" d="M327.6,55.5c-1.4-0.2-2.6-0.3-3.4-0.5c-1-0.1-2-0.6-2.8-1.2c-0.5-0.5-0.7-1.1-0.8-1.8c-0.1-1,0.4-2,1.1-2.6
	c0.8-0.6,1.9-0.9,2.9-0.9c2.5,0.1,4.9,0.8,7,2.3l0.8,0.6l3.7-5.6l-0.8-0.6c-3.1-2.2-6.7-3.5-10.5-3.5c-3.4,0-6.1,1-8,2.8
	c-2,1.9-3.1,4.6-3,7.4c-0.1,2.4,0.8,4.7,2.4,6.5c1.8,1.8,4.1,3,6.6,3.3l4,0.6c2.8,0.5,3.2,2,3.2,3.2c0,1.4-0.6,3.3-5,3.4
	c-2.9,0.1-5.8-1-8-2.9l-0.8-0.7l-4.3,5.1l0.7,0.7c3.4,3,7.8,4.7,12.4,4.6l0,0c9.5-0.1,11.6-5.6,11.7-10.2c0-2.4-0.8-4.7-2.3-6.5
	C332.8,57,330.3,55.8,327.6,55.5"/>
<rect x="340.5" y="69.1" class="st1" width="6.4" height="6.5"/>
<polygon class="st1" points="365.9,75.5 372.5,75.5 372.5,62 382.5,62 382.5,55.7 372.5,55.7 372.5,48.4 387.4,48.4 387.4,41.9 
	365.9,41.9 "/>
<path class="st1" d="M407.6,64.8c-0.2,0.8-0.5,1.6-1.1,2.3c-0.4,0.5-0.9,1-1.5,1.3c-1.5,0.8-3.3,0.8-4.7,0c-0.7-0.3-1.2-0.8-1.6-1.4
	c-0.5-0.6-0.9-1.4-1-2.2c-0.3-2-0.4-4.1-0.3-6.1c-0.1-2.1,0-4.1,0.3-6.2c0.1-0.8,0.5-1.6,1-2.2c0.5-0.5,1-1,1.6-1.3
	c0.7-0.4,1.5-0.6,2.3-0.5c0.8,0,1.6,0.2,2.4,0.5c0.6,0.4,1.2,0.8,1.6,1.4c0.5,0.6,0.9,1.4,1,2.1c0.3,2,0.4,4.1,0.3,6.2
	C407.9,60.8,407.8,62.8,407.6,64.8 M413.1,47.9c-3.2-5.8-10.4-8-16.3-4.8c-0.3,0.2-0.6,0.3-0.8,0.5c-1.6,1.1-2.9,2.5-3.9,4.2
	c-0.6,1-1,2.2-1.1,3.4c-0.3,2.5-0.4,5-0.3,7.5c-0.1,2.5,0,5,0.3,7.5c0.1,0.7,0.3,1.3,0.5,1.9c0.2,0.4,0.4,0.9,0.6,1.4
	c2.1,3.8,6.1,6.2,10.5,6.2l0,0c2.4,0,4.7-0.7,6.6-2c1.6-1,2.9-2.5,3.8-4.1c0.7-1.1,1.1-2.2,1.2-3.5c0.2-2.5,0.3-5,0.3-7.5
	c0.1-2.5,0-5-0.3-7.5C414.1,50,413.7,48.9,413.1,47.9"/>
<path class="st1" d="M436.7,64.8c-0.2,0.8-0.5,1.6-1.1,2.3c-0.4,0.5-0.9,1-1.5,1.3c-1.5,0.8-3.3,0.8-4.7,0c-0.7-0.3-1.2-0.8-1.6-1.4
	c-0.5-0.6-0.9-1.4-1-2.2c-0.3-2-0.4-4.1-0.3-6.1c-0.1-2.1,0-4.1,0.3-6.2c0.1-0.8,0.5-1.6,1-2.2c0.5-0.5,1-1,1.6-1.3
	c0.7-0.4,1.5-0.6,2.3-0.5c0.8,0,1.6,0.2,2.4,0.5c0.6,0.3,1.2,0.8,1.6,1.4c0.5,0.6,0.9,1.4,1,2.1c0.2,2.1,0.3,4.1,0.3,6.2
	C437,60.8,436.9,62.8,436.7,64.8 M442.2,47.9c-0.9-1.7-2.2-3.2-3.8-4.3c-2-1.3-4.3-2-6.7-2c-2.3,0-4.6,0.7-6.6,2
	c-1.6,1.1-2.9,2.5-3.9,4.2c-0.6,1-1,2.2-1.2,3.4c-0.3,2.5-0.4,5-0.3,7.5c-0.1,2.5,0,5,0.3,7.5c0.1,0.7,0.3,1.3,0.5,1.9
	c0.2,0.4,0.4,0.9,0.6,1.4c2.1,3.8,6.1,6.2,10.5,6.2h0c2.4,0,4.7-0.7,6.6-2c1.6-1,2.9-2.5,3.7-4.1c0.7-1.1,1.1-2.2,1.2-3.5
	c0.2-2.5,0.3-5,0.3-7.5c0.1-2.5,0-5-0.3-7.5C443.2,50.1,442.8,48.9,442.2,47.9"/>
<path class="st1" d="M466.8,64.5c-0.1,0.8-0.4,1.5-0.9,2.2c-1.1,1.6-2.9,2.5-4.8,2.3h-4.5V48.4h4.8c1.8-0.1,3.5,0.8,4.5,2.3
	c0.6,0.7,0.9,1.5,1,2.3c0.1,1.1,0.2,3.1,0.2,5.8S466.9,63.5,466.8,64.5 M471.8,47.7c-2-3.7-6-6-10.2-5.8h-11.7v33.6h11.4
	c2.2,0.1,4.4-0.5,6.3-1.7c1.7-1,3.1-2.4,4.1-4c0.3-0.6,0.7-1.2,0.9-1.8c0.3-0.6,0.5-1.3,0.6-2c0.3-2.4,0.4-4.8,0.4-7.3
	c0-2.3,0-4.6-0.2-6.9C473.1,50.4,472.6,49,471.8,47.7"/>
<path class="st1" d="M556,64.5c-0.1,0.8-0.4,1.5-0.8,2.2c-1.1,1.6-2.9,2.5-4.8,2.3h-4.5V48.4h4.8c1.8-0.1,3.5,0.8,4.5,2.3
	c0.6,0.7,0.9,1.5,1,2.3c0.1,1.1,0.2,3.1,0.2,5.8S556.2,63.5,556,64.5 M561.1,47.7c-2-3.7-6-6-10.2-5.8h-11.8v33.6h11.4
	c2.2,0.1,4.4-0.5,6.3-1.7c1.7-1,3.1-2.4,4.1-4c0.3-0.6,0.7-1.2,0.9-1.8c0.3-0.6,0.5-1.3,0.6-2c0.3-2.4,0.4-4.8,0.4-7.3
	c0-2.3,0-4.6-0.2-6.9C562.4,50.4,561.9,49,561.1,47.7"/>
<path class="st1" d="M585,54.5c-0.8,0.8-2,1.3-3.2,1.2h-6v-7.6h6.3c1-0.1,2,0.2,2.8,0.8c0.8,0.7,1.2,1.7,1.1,2.8
	C586,52.7,585.7,53.8,585,54.5 M592.4,51.7c0-2.9-1.2-5.6-3.4-7.5c-1.9-1.6-4.4-2.4-6.9-2.3h-13v33.6h6.7V62h4.3l6.3,13.5h7.8
	L586.9,61C590.5,59.2,592.4,56.1,592.4,51.7"/>
<path class="st1" d="M614.8,63.3c0.1,1.6-0.4,3.1-1.5,4.2c-1,1-2.4,1.6-3.8,1.5c-1.4,0.1-2.8-0.5-3.7-1.5c-1.1-1.1-1.6-2.6-1.5-4.2
	V41.9h-6.7v21.9c-0.1,3.2,1.2,6.4,3.5,8.6c2.2,2.2,5.3,3.4,8.4,3.3l0,0c6.4,0.2,11.7-4.9,11.9-11.3c0-0.2,0-0.5,0-0.7V41.9h-6.7
	L614.8,63.3z"/>
<path class="st1" d="M505.7,69.6c-1.5,0.8-3.3,1-5,0.5c-2-0.6-3.4-2.4-3.4-4.5c0-1.2,0.4-2.4,1.2-3.3c0.7-0.7,1.4-1.3,2.2-1.9
	l6.8,7.9C506.9,68.9,506.4,69.3,505.7,69.6 M501.3,47.3c1.3-0.9,3.1-0.6,4,0.7c0.2,0.3,0.4,0.6,0.5,1c0.2,0.9-0.1,1.9-0.8,2.5
	c-0.8,0.7-1.6,1.4-2.5,1.9c-0.8-0.8-1.5-1.8-2-2.8C499.9,49.5,500.3,48.1,501.3,47.3 M515.6,68.4c1-1.2,1.8-2.6,2.3-4.1
	c0.5-1.4,0.8-2.9,0.9-4.3c0.1-0.6,0.1-1.2,0.2-1.9h-5.8c-0.1,1-0.2,2.1-0.5,3.1c-0.2,1-0.7,2-1.3,2.8c-1.9-2.3-3.8-4.5-5.7-6.8
	l0.4-0.3c1.1-0.8,2.2-1.6,3.2-2.5c0.8-0.7,1.4-1.5,1.8-2.5c0.6-1.5,0.6-3.1,0.2-4.6c-0.3-1.4-1.1-2.7-2.2-3.7
	c-1.3-1.1-2.9-1.8-4.6-2c-2-0.3-4-0.1-5.9,0.6c-3.6,1.4-5.5,5.2-4.6,8.9c0.4,1.6,1.2,3.1,2.3,4.3c0.3,0.3,0.6,0.7,0.9,1l-0.3,0.2
	c-1.3,0.8-2.4,1.8-3.4,2.9c-1.1,1.2-1.8,2.6-2.2,4.1c-0.3,1.4-0.3,2.8,0,4.2c0.4,3.6,3.1,6.6,6.7,7.4c2,0.5,4.2,0.7,6.3,0.4
	c1.9-0.2,3.7-0.9,5.3-2c0.5-0.4,1-0.7,1.5-1.1c0,0.1,0.1,0.1,0.1,0.2c0.7,0.9,1.5,1.7,2.2,2.6c0.1,0.1,0.2,0.2,0.4,0.2h7.3
	c0.1,0,0.2,0,0.2-0.1l-6-7.1C515.5,68.4,515.6,68.4,515.6,68.4"/>
<path class="st1" d="M645,56.1h-6.8v6.5h6.2v0.6c0.1,1.5-0.5,3-1.5,4.1c-1,1.1-2.3,1.7-3.8,1.6c-0.8,0-1.7-0.2-2.4-0.6
	c-0.6-0.3-1.2-0.8-1.6-1.4c-0.5-0.6-0.9-1.4-1-2.2c-0.3-2-0.4-4.1-0.3-6.1c-0.1-2.1,0-4.1,0.3-6.2c0.1-0.8,0.5-1.6,1-2.2
	c0.5-0.5,1-1,1.7-1.3c0.7-0.4,1.5-0.5,2.3-0.5c1.1,0,2.2,0.4,3.1,1.1c0.8,0.7,1.5,1.7,1.8,2.8l0.2,0.7h6.9l-0.2-1.2
	c-0.5-2.7-1.8-5.3-3.8-7.2c-4.1-3.6-10-4-14.5-1c-1.6,1.1-2.9,2.5-3.9,4.2c-0.6,1-1,2.2-1.2,3.4c-0.3,2.5-0.4,5-0.3,7.5
	c-0.1,2.5,0.1,5,0.3,7.5c0.1,0.7,0.3,1.3,0.5,1.9c0.2,0.4,0.4,0.9,0.6,1.4c2.1,3.8,6.1,6.2,10.5,6.2l0,0c2.1,0,4.1-0.6,5.9-1.6v1.3
	h6.1V56.1H645z"/>
<path class="st1" d="M120.3,37c0.2,3.9-3,6.4-5.3,8.7L90.7,66.1c-2.2,2-5.3,3.7-6.6,6.8c-1.6,4-2.2,8.5-2.9,12.9
	c-0.4,3.2-3.4,6-6.2,7.2c-2.2,0.8-4.8,0.4-7.1,0.6h-8.5c-0.7,0.1-1.3,0.5-1.7,1.1l-0.3,0.8c-0.9,0.1-0.6-0.7-0.7-1.2
	c0-1.9,0.4-3.8,1.8-4.9c0.8-0.7,1.8-1,2.8-1.1l12.3-0.2c0.6-0.1,1.2-0.4,1.7-0.8l0.5-1c1-6.1,1.6-12.5,4.6-17.7
	c2.8-3.3,6.4-5.6,9.6-8.5c7.3-6.1,14.9-12.4,22.1-18.7c2-1.9,4.2-4.5,4.7-7.5l0.3-0.8C118.9,33.6,120.1,35.2,120.3,37"/>
<path class="st1" d="M127.4,43.9c0.4,3.8-2.6,5.7-5,8l-9.9,8.5l-17.6,15c-2.5,2.8-2.6,6.8-3.3,10.4c0.1,1.2,1.3,1.7,1.1,2.9
	l-2.4,4.4c0.1,1.8,2.3,0.7,3,1.8c0,0.6-0.4,1.4,0.1,1.9c0.3,0.6,1.8-0.2,1,0.8c-0.2,0.2-0.1,0.5-0.1,0.8c0.3,0.4,0.8,0.4,0.9,1
	c-0.3,0.8-0.2,1.7,0.2,2.4c3.1,3.3,8.3-0.8,11.5,2.3c0.7,0.8,0.9,2,0.6,3c-1.7,5-11.8,5.3-8.3,12.4c0.7,1.2,1.9,1.9,3.3,2
	c1,0.1,2-0.2,2.9-0.6c0.3,0,0.3,0.3,0.4,0.4v0.2c-2.9,2.1-6.7,5.1-10.5,2.9c-2-1.4-3-3.8-2.4-6.2c1.2-3.9,5.7-4.9,7.9-8.2
	c0.5-1,0.4-2.2-0.1-3.2c-0.7-1.3-2.4-1.6-3.8-1.9c-2.4-0.1-6.1,1.5-7.2-1.4c-0.3-1.1,0.8-3-0.9-3.2c-0.2-0.3-0.8-0.6-0.5-1.1
	c0.1-0.3,0.6-0.3,0.3-0.7c-0.3-0.1-0.8,0-1.1-0.3c-1-1.1,1.7-2.2-0.1-3c-0.9-0.1-2.2,0.6-2.8-0.5c-0.3-1,0.4-1.7,0.8-2.5
	c0.6-1.4,2.4-2.3,2-4.1l-0.9-1.5c0.3-3.5,0.8-7,1.8-10.4c1.2-3.7,4.8-5.8,7.6-8.4l14.7-12.4l10.4-9.2c1.8-1.7,3.4-3.6,3.3-6.1
	c0.6-0.2,0.9,0.5,1.4,0.7C126.5,41.8,127.1,42.8,127.4,43.9"/>
<path class="st1" d="M123.4,62.5c-1.9,3.1-5.2,5.4-8.1,7.9L104,79.9c-2,2-2.7,5-1.7,7.7c0.1,1.3-0.9,2.1-1.2,3.2
	c0,0.3,0.1,0.8,0.4,0.9s1.2-0.1,1.4,0.6c0.1,0.7-0.2,1.4,0.5,1.6c0.3,0.2,0.7-0.3,0.8,0.2c-0.2,0.3-0.3,0.6-0.3,0.9
	c0.4,0.7,1.2,0.3,1.5,0.8c0.1,0.8,0.1,1.8,1,2.1c2.9,0.5,5.2-1.5,7.8-2.1c4.2-1.3,8.3,0.3,12,1.4c1.9,0.3,3.9,0.3,5.8,0l0.1,0.1
	c-2.4,2.9-5.3,5.8-9.5,5.5c-4.4-0.2-7.2-4.2-11.9-3.5c-3.2,0.6-6.4,2.5-9.8,1.2c-0.9-0.8-1.3-2-0.9-3.2c-0.2-0.8-2-0.9-0.8-1.9
	c-0.3-0.2-0.9,0-1.1-0.5s0.5-1.5-0.3-1.9c-0.7-0.1-1.6,0.3-2.2-0.3c-0.2-0.4-0.3-0.9-0.1-1.3c0.5-1.2,1.9-2.2,1.6-3.6
	c-0.9-0.9-0.6-2.3-0.5-3.5c0.5-2.8,0.7-5.7,3.3-7.6L114,65c2.9-2.8,6.6-4.6,8.7-8.3C123.9,58.4,124.2,60.5,123.4,62.5"/>
<path class="st1" d="M80.8,103.8c4,1.5,7.9,3.4,11.7,5.7c1,0.7,1.6,1.9,1.5,3.1c-1.2,5-8.2,5.6-7.2,11.5c0.2,2.2,1.8,4.1,3.9,4.7
	c1.1,0.3,2.2,0.3,3.2,0c0.2,0.4,0.8,0.8,0.1,1c-2.9,1.8-6.5,3.9-10,2.1c-1.6-0.9-2.8-2.5-3.2-4.4c-0.7-5.4,4.3-7,6.8-10.6
	c0.4-0.7,0.5-1.6,0.4-2.4c-0.5-0.9-1.2-1.7-2.2-2.2c-9.4-5.3-19.6-8.8-30.1-11.5c-1.7-0.2-4.4-1.2-5.6,0.8v0.1
	c-0.9,0.2-0.6-0.9-0.6-1.4c0.2-1.7,1.3-3.1,2.9-3.8c2.7-0.8,5.6,0.2,8.3,0.6C67.6,98.9,74.2,101.1,80.8,103.8"/>
<path class="st1" d="M76.7,126.2c0-0.3-0.1-0.3-0.6-0.3c-1.5,0-2.1,0.7-2.1,2.4s0.7,2.3,2.2,2.3c0.5,0,0.6,0,0.6-0.2L76.7,126.2z
	 M78.5,125.7c-0.8,0.1-0.9,0.1-0.9,0.3c0,0.7,0,1.4,0,2.1c0,1.2,0,1.8,0.1,2.1s0.1,0.2,0.9,0.3v0.3H76c-0.8,0.1-1.5-0.1-2.1-0.7
	c-0.5-0.5-0.8-1.2-0.8-2c0-1.5,1.2-2.7,2.6-2.7c0.1,0,0.2,0,0.3,0h2.5L78.5,125.7z"/>
<path class="st1" d="M72.6,125.8c-0.7,0-0.8,0-0.8,0.2s-0.1,0.9-0.2,2.1s-0.2,1.8-0.2,2.1s0,0.2,0.8,0.4v0.3l-2.9-0.2
	c-0.4,0-0.8,0-1.2,0c0-0.5,0-1,0-1.5h0.3c0.1,1,0.3,1.1,1.4,1.2l0.7,0.1c0.1,0,0.1,0,0.2-0.1l0.2-1.8c0-0.1,0-0.1-0.2-0.2h-0.2
	c-0.8-0.1-0.9,0-1,0.6h-0.3c0-0.2,0.1-0.5,0.1-0.9s0-0.7,0-0.9h0.4c0,0.6,0.1,0.7,0.7,0.8h0.5c0.1,0,0.2,0,0.2-0.1l0.2-2
	c0-0.1,0-0.2-0.1-0.2l-1.3-0.1c-0.6-0.1-0.8,0.1-1,0.6l-0.2,0.5l-0.3-0.1c0.2-0.5,0.3-1,0.3-1.5l4.3,0.4L72.6,125.8z"/>
<path class="st1" d="M65.3,127.5l-0.4-0.1c-0.8-0.1-1.5-0.1-1.7,0.9s0.4,1.2,1.2,1.4c0.4,0.1,0.4,0,0.4-0.1L65.3,127.5z M67.6,125.4
	c-0.8-0.1-0.8-0.1-0.9,0.1s-0.2,0.9-0.4,2c-0.2,1.1-0.3,1.8-0.3,2.1s0,0.2,0.8,0.4l-0.1,0.3l-2.8-0.5c-0.5-0.1-0.9-0.3-1.3-0.7
	c-0.2-0.3-0.3-0.6-0.3-1c0.2-1.1,1.2-1.4,2.6-1.1c0.2,0,0.4,0.1,0.5,0.1l0.3-1.8c0-0.2,0-0.2-0.9-0.5l0.1-0.3l2.7,0.5L67.6,125.4z"
	/>
<path class="st1" d="M59.7,125.6C59.6,125.6,59.6,125.6,59.7,125.6c-0.1,0.1-0.1,0.1-0.1,0.2l0.2,2.1l1.3-1.7c0,0,0.1-0.1,0.1-0.1
	c0,0,0-0.1-0.1-0.1L59.7,125.6z M63.4,124.7c-0.6-0.1-0.8,0-1.2,0.6l-2.2,2.9c-0.2,0.3-0.4,0.6-0.6,0.9l-0.4-0.1c0-0.3,0-0.7,0-1
	l-0.5-4c0-0.6-0.1-0.7-0.7-0.8l0.1-0.3l2.6,0.7l-0.1,0.3c-0.8-0.2-0.8-0.1-0.9,0.1c0,0.4,0,0.8,0.1,1.2c0,0,0,0.1,0.1,0.1
	c0.4,0.2,0.9,0.3,1.3,0.4c0.5,0.1,0.5,0.1,0.6,0c0.2-0.3,0.4-0.6,0.6-0.8c0.1-0.2,0-0.3-0.7-0.6l0.1-0.3l2,0.6L63.4,124.7z"/>
<path class="st1" d="M55,124.9c0-0.1,0-0.2-0.4-0.4c-1-0.4-1.5,0.1-1.7,0.5c-0.2,0.6,0,1.2,0.8,1.5c0.5,0.2,0.5,0.2,0.6,0L55,124.9z
	 M57.6,123c-0.7-0.2-0.8-0.2-0.9,0c-0.3,0.6-0.6,1.3-0.8,1.9c-0.5,1.1-0.7,1.7-0.8,2s0,0.2,0.7,0.6l-0.1,0.3l-2.7-1.2
	c-0.4-0.1-0.8-0.4-1-0.7c-0.2-0.3-0.2-0.8-0.1-1.1c0.4-1.1,1.7-0.8,1.7-0.8c0-0.1,0-0.1,0-0.2l-0.5-2c-0.1-0.5-0.2-0.6-0.5-0.8
	l0.1-0.3l1.2,0.5l0.6,2.9c0,0.1,0.1,0.1,0.4,0.2s0.3,0.1,0.3,0c0.3-0.6,0.5-1.1,0.7-1.7c0.1-0.2,0-0.2-0.7-0.6l0.1-0.3l2.4,1
	L57.6,123z"/>
<path class="st1" d="M52.2,120.7c-0.8-0.3-0.8-0.3-1-0.2s-0.2,0.4-0.4,0.8l-1.6,3.2l0.8,0.4c0.2,0.1,0.4,0,1.1-0.7l0.3,0.2
	c-0.3,0.4-0.6,0.8-0.8,1.2l-0.4-0.3c-0.1-0.1-0.2-0.2-0.4-0.2l-2.4-1.2c-0.3-0.1-0.6-0.3-0.8-0.4c0.2-0.4,0.4-0.9,0.5-1.4l0.3,0.1
	c-0.1,1-0.1,1.2,0.1,1.3l0.8,0.4l1.7-3.2l0.4-0.8c0.1-0.2,0-0.2-0.7-0.7l0.2-0.3l2.5,1.3L52.2,120.7z"/>
<path class="st1" d="M48.6,118.9c-0.7-0.4-0.8-0.4-0.9-0.3s-0.5,0.7-1.2,1.7s-1,1.5-1.2,1.7s-0.1,0.2,0.6,0.8l-0.2,0.3l-1.7-1.2
	c0,0,0.1-0.1,0.1-0.2l1.1-4.1l0,0l-3.7,2.7l-1.7-1.2l0.2-0.3c0.7,0.4,0.8,0.4,0.9,0.3s0.5-0.7,1.2-1.7s1-1.5,1.2-1.7
	s0.1-0.2-0.6-0.8l0.2-0.3l2.2,1.5l-0.2,0.3c-0.7-0.4-0.8-0.4-0.9-0.2l-2.4,3.6l3.8-2.8l0.3-0.2l0.5,0.3c0,0.1-0.1,0.2-0.1,0.3
	l-1.2,4.6l0,0l2-3c0.1-0.2,0.3-0.4,0.3-0.6c0.1-0.2,0.1-0.2-0.5-0.7l0.2-0.3l1.8,1.2L48.6,118.9z"/>
<path class="st1" d="M42.6,114.7c-0.6-0.4-0.6-0.4-0.8-0.3s-0.6,0.7-1.4,1.6s-1.2,1.4-1.3,1.6s-0.1,0.2,0.4,0.7l-0.2,0.2l-2.2-1.9
	c-0.3-0.3-0.7-0.5-1-0.7c0.3-0.4,0.6-0.8,0.9-1.2l0.3,0.2c-0.5,0.9-0.4,1.1,0.4,1.8l0.5,0.5c0.1,0.1,0.1,0,0.2,0l1.2-1.3
	c0.1-0.1,0.1-0.1-0.1-0.3l-0.1-0.1c-0.6-0.6-0.8-0.5-1.2-0.1l-0.2-0.2c0.2-0.2,0.3-0.3,0.6-0.6s0.4-0.5,0.6-0.7l0.3,0.2
	c-0.3,0.4-0.4,0.6,0.1,1l0.4,0.4c0,0.1,0.1,0.1,0.2,0c0,0,0,0,0,0l1.3-1.5c0.1,0,0.1-0.1,0-0.2c0,0,0,0,0,0l-1-0.9
	c-0.3-0.3-0.8-0.4-1.1-0.1c0,0,0,0-0.1,0l-0.5,0.3l-0.2-0.3c0.4-0.3,0.8-0.6,1.2-1l3.3,2.9L42.6,114.7z"/>
<path class="st1" d="M38.9,111.4c-0.5-0.5-0.6-0.5-0.8-0.4s-0.7,0.6-1.5,1.4s-1.3,1.2-1.5,1.4s-0.1,0.2,0.3,0.8l-0.2,0.2l-1.1-1.2
	c0-0.1,0.1-0.3,0.1-0.4l1-4.2l0,0l-0.9,0.8c-0.9,0.8-1.3,1.2-1.5,1.4s-0.1,0.2,0.4,0.9l-0.2,0.2l-1.5-1.6l0.2-0.2
	c0.5,0.5,0.6,0.5,0.9,0.3s0.7-0.6,1-0.9c1.1-1,2-1.9,2.5-2.4l0.4,0.4c-0.2,0.6-0.4,1.2-0.5,1.9l-0.7,3.2l0,0l1.2-1.1
	c0.9-0.8,1.3-1.2,1.5-1.4s0.1-0.2-0.5-0.9l0.2-0.2l1.6,1.7L38.9,111.4z"/>
<path class="st1" d="M34.3,106.3c-0.6-0.7-0.6-0.7-0.8-0.6c-0.3,0.2-0.5,0.3-0.7,0.5l-2.9,2.2l0.5,0.7c0.2,0.2,0.4,0.2,1.3-0.1
	l0.1,0.3c-0.4,0.2-0.9,0.5-1.3,0.8c-0.1-0.1-0.1-0.3-0.2-0.4s-0.2-0.3-0.3-0.4l-1.6-2.1c-0.2-0.2-0.4-0.5-0.6-0.7
	c0.4-0.3,0.8-0.6,1.1-1l0.3,0.2c-0.5,0.8-0.6,1-0.5,1.2l0.5,0.7l2.9-2.2c0.4-0.3,0.6-0.5,0.7-0.6s0.2-0.2-0.3-0.9l0.3-0.2l1.7,2.2
	L34.3,106.3z"/>
<path class="st1" d="M29.2,98.4c-0.4-0.7-1.4-1-2.9-0.2s-1.8,1.8-1.5,2.5s1.4,1,2.9,0.2S29.6,99.1,29.2,98.4 M24.6,100.9
	c-0.7-1.3-0.1-2.8,1.1-3.5c0.1,0,0.1-0.1,0.2-0.1c1.2-0.8,2.8-0.4,3.5,0.8c0.8,1.2,0.4,2.8-0.8,3.5c-0.1,0.1-0.3,0.2-0.4,0.2
	c-1.2,0.8-2.8,0.4-3.6-0.8C24.6,101,24.6,100.9,24.6,100.9"/>
<path class="st1" d="M27.8,95.7c-0.3-0.7-0.4-0.7-0.6-0.6c-0.7,0.2-1.3,0.5-1.9,0.8c-0.7,0.2-1.3,0.5-1.9,0.8
	c-0.2,0.1-0.2,0.1,0,0.8L23,97.6l-1-2.7c-0.2-0.4-0.3-0.7-0.5-1.1c0.5-0.2,0.9-0.4,1.3-0.7l0.2,0.3c-0.9,0.6-0.9,0.8-0.5,1.8
	l0.2,0.7c0,0.1,0.1,0.1,0.2,0.1l1.6-0.7c0.1,0,0.1-0.1,0-0.3l-0.1-0.2c-0.3-0.8-0.5-0.8-1-0.6l-0.1-0.3c0.2-0.1,0.5-0.2,0.8-0.3
	s0.6-0.2,0.8-0.3l0.1,0.3c-0.5,0.2-0.6,0.4-0.4,1l0.2,0.5c0,0.1,0.1,0.1,0.2,0.1l1.7-0.7c0.2-0.1,0.2-0.1-0.1-1l0.3-0.1l1,2.4
	L27.8,95.7z"/>
<path class="st1" d="M25.3,89.2c-0.2-0.8-0.3-0.8-0.5-0.8s-0.9,0.2-2,0.4s-1.8,0.4-2,0.5s-0.2,0.1-0.1,0.9l-0.4,0.1l-0.6-2.6
	l0.3-0.1c0.2,0.8,0.3,0.8,0.5,0.8s0.6-0.1,1-0.2l0.5-0.1c0.2,0,0.2-0.1,0.2-0.3l-0.5-2c0-0.2-0.1-0.2-0.3-0.2L21,85.8L20,86
	c-0.2,0.1-0.2,0.1-0.1,0.9L19.6,87L19,84.4l0.3-0.1c0.2,0.8,0.3,0.8,0.5,0.8s0.9-0.2,2-0.4s1.8-0.4,2-0.5s0.2-0.1,0.1-0.9l0.3-0.1
	l0.6,2.6l-0.3,0.1c-0.2-0.8-0.3-0.8-0.5-0.8s-0.8,0.2-1.7,0.4c-0.2,0-0.2,0.1-0.2,0.3l0.5,2c0,0.2,0.1,0.2,0.3,0.2
	c0.9-0.2,1.5-0.4,1.7-0.4s0.2-0.1,0.1-0.9l0.3-0.1l0.6,2.6L25.3,89.2z"/>
<path class="st1" d="M23.9,83c-0.1-0.7-0.2-0.8-0.4-0.8s-0.9,0.1-2.1,0.2s-1.8,0.2-2.1,0.3s-0.2,0.1-0.2,0.8h-0.3l-0.4-2.9
	c0-0.4-0.1-0.8-0.2-1.2c0.4-0.1,1.2-0.2,1.5-0.3l0.1,0.3c-1,0.3-1.1,0.5-0.9,1.6l0.1,0.7c0,0.1,0.1,0.1,0.2,0.1l1.8-0.2
	c0.1,0,0.1,0,0.1-0.3v-0.2c-0.1-0.8-0.2-0.9-0.8-0.9V80c0.3,0,0.5,0,0.9-0.1s0.7-0.1,0.9-0.1v0.3c-0.5,0.1-0.7,0.2-0.6,0.8l0.1,0.5
	c0,0.1,0,0.1,0.2,0.1l2-0.2c0.1,0,0.1,0,0.1-0.2l-0.2-1.3c-0.1-0.6-0.3-0.8-0.8-0.8l-0.5-0.1l0-0.4c0.5,0,1,0,1.5,0l0.5,4.4H23.9z"
	/>
<path class="st1" d="M21.4,74.9C21.4,74.9,21.4,74.8,21.4,74.9c-0.1-0.1-0.1-0.1-0.2-0.1l-1.9,0.8l2,0.7h0.1c0,0,0,0,0-0.1
	L21.4,74.9z M23.4,78.2c0-0.6-0.2-0.7-0.9-1L19,76c-0.3-0.1-0.7-0.3-1-0.3v-0.4c0.3-0.1,0.6-0.2,0.9-0.3l3.7-1.6
	c0.5-0.2,0.6-0.3,0.6-0.9h0.3l0,2.7h-0.3c0-0.8-0.1-0.8-0.3-0.8c-0.4,0.1-0.7,0.2-1.1,0.4c0,0-0.1,0.1-0.1,0.1c0,0.2,0,0.6,0,1.4
	c0,0.5,0,0.5,0.2,0.6c0.3,0.1,0.7,0.2,1,0.3c0.2,0,0.3-0.1,0.3-0.8h0.3v2.1L23.4,78.2z"/>
<path class="st1" d="M23.2,72.2c0-0.8,0-0.8-0.2-0.8s-0.9-0.1-2.1-0.2S19.1,71,18.9,71s-0.2,0-0.4,0.8h-0.3l0.2-2.5h0.3
	c0,0.8,0,0.8,0.2,0.8l1,0.1l3.1,0.3c0.3,0,0.3,0,0.4-0.3l0.1-0.9c0.1-0.8-0.1-0.9-1.2-1.4l0.1-0.3c0.5,0.2,1.1,0.3,1.6,0.4l-0.4,4.3
	L23.2,72.2z"/>
<path class="st1" d="M23.8,67.1c0.1-0.8,0.1-0.9-0.1-1s-0.4-0.1-0.9-0.2l-3.5-0.6l-0.1,0.9c-0.1,0.3,0.1,0.4,1,0.9L20,67.4
	c-0.5-0.2-0.9-0.3-1.4-0.4c0-0.2,0.1-0.3,0.1-0.4s0.1-0.3,0.1-0.4l0.5-2.6c0.1-0.3,0.1-0.6,0.1-0.9c0.5,0.1,1,0.1,1.5,0.1v0.4
	c-1,0.2-1.2,0.2-1.2,0.5l-0.2,0.9l3.5,0.6c0.3,0.1,0.6,0.1,0.9,0.1c0.2,0,0.2,0,0.4-0.8h0.3l-0.5,2.7L23.8,67.1z"/>
<path class="st1" d="M24.4,63.4c0.2-0.8,0.1-0.8,0-0.9s-0.9-0.3-2-0.6s-1.8-0.5-2-0.5s-0.2,0-0.5,0.8L19.5,62l0.7-2.6l0.3,0.1
	c-0.2,0.8-0.1,0.8,0,0.9s0.6,0.2,1,0.3l0.5,0.1c0.2,0.1,0.2,0,0.3-0.2l0.6-2c0-0.2,0-0.2-0.2-0.3l-0.5-0.2c-0.3-0.1-0.8-0.2-1-0.2
	s-0.2,0-0.5,0.8l-0.3-0.1l0.7-2.6l0.3,0.1c-0.2,0.8-0.2,0.8,0,0.9s0.9,0.3,2,0.6s1.8,0.5,2,0.5s0.2,0,0.5-0.8l0.3,0.1l-0.7,2.6
	l-0.3-0.1c0.2-0.8,0.2-0.8,0-0.9s-0.8-0.3-1.7-0.5c-0.2-0.1-0.3,0-0.3,0.1l-0.6,2c0,0.2,0,0.2,0.2,0.3c0.9,0.2,1.5,0.4,1.7,0.5
	s0.2,0,0.5-0.8l0.3,0.1l-0.7,2.6L24.4,63.4z"/>
<path class="st1" d="M27.9,53c0.1-0.3,0.2-0.7,0.1-1c-0.9,0.2-1.8,0.3-2.6,0.3c0,0.5,0.2,0.9,0.6,1.1C26.6,53.8,27.4,53.6,27.9,53
	 M25,51.5c0-0.4-0.2-0.7-0.6-0.9c-0.3-0.2-0.6-0.1-0.8,0.2c0,0,0,0,0,0c-0.1,0.2,0,0.5,0.3,0.7C24.3,51.7,24.7,51.7,25,51.5
	 M29.5,49.9c0.1,0.4,0,0.9-0.1,1.3c-0.2,0.3-0.5,0.5-1,0.7c0.2,0.5,0.1,1.1-0.1,1.7c-0.3,0.8-1.2,1.2-2,0.9c0,0-0.1,0-0.1-0.1
	c-0.7-0.3-1-0.9-1-2c-0.5,0.1-0.9,0.1-1.4-0.1c-0.5-0.2-0.8-0.7-0.4-1.5s0.8-1,1.4-0.7c0.5,0.3,0.8,0.9,0.6,1.4
	c0.8-0.1,1.6-0.1,2.4-0.2c-0.1-0.4-0.4-0.7-0.8-1c-0.2-0.1-0.4,0-0.5,0.3l-0.3-0.1l0.8-1.6l0.3,0.1c-0.2,0.4-0.1,0.8,0.1,1.1
	c0.3,0.4,0.5,0.7,0.7,1.2c0.6-0.1,0.8-0.2,1-0.5c0.1-0.3,0.1-0.6,0.1-0.9L29.5,49.9z"/>
<path class="st1" d="M30.8,47.6c0.4-0.7,0.4-0.7,0.3-0.9s-0.7-0.5-1.7-1.2s-1.5-1-1.7-1.2s-0.2-0.1-0.8,0.5l-0.3-0.2l1.5-2.2
	l0.3,0.2c-0.4,0.7-0.4,0.7-0.3,0.9l0.8,0.6l0.4,0.3c0.2,0.1,0.2,0.1,0.3,0l1.2-1.7c0.1-0.2,0.1-0.2-0.1-0.3L30.4,42
	c-0.3-0.2-0.7-0.5-0.8-0.5s-0.2-0.1-0.7,0.5l-0.3-0.2l1.5-2.2l0.3,0.2c-0.4,0.7-0.4,0.7-0.3,0.9s0.7,0.5,1.7,1.2
	c1,0.7,1.5,1,1.7,1.2s0.2,0.1,0.7-0.5l0.3,0.2L33,45l-0.3-0.2c0.4-0.7,0.4-0.7,0.3-0.9s-0.7-0.5-1.5-1c-0.2-0.1-0.2-0.1-0.3,0
	L30,44.6c-0.1,0.2-0.1,0.2,0.1,0.3c0.8,0.5,1.3,0.9,1.5,1s0.2,0.1,0.7-0.5l0.3,0.2L31,47.8L30.8,47.6z"/>
<path class="st1" d="M30.7,38.9l1.8-2l0.2,0.2c-0.5,0.6-0.5,0.7-0.4,0.8s0.6,0.6,2.1,1.9c0.5,0.6,1.3,0.7,1.9,0.2
	c0.1-0.1,0.1-0.1,0.2-0.2c0.9-1,0.5-1.6-0.7-2.7c-1-0.9-1.4-1.3-1.6-1.4s-0.2-0.1-0.8,0.5L33.2,36l1.5-1.7l0.2,0.2
	c-0.5,0.6-0.5,0.7-0.4,0.9l1.9,1.7c0.9,0.8,1.6,1.7,0.3,3.2c-0.6,0.9-1.8,1.1-2.6,0.5c-0.1-0.1-0.3-0.2-0.4-0.3
	c-1.4-1.3-1.9-1.7-2.1-1.9s-0.2-0.1-0.8,0.4L30.7,38.9z"/>
<path class="st1" d="M38.4,37.9c0.6-0.6,0.6-0.6,0.5-0.8c-0.4-0.6-0.9-1.1-1.3-1.6c-0.8-0.9-1.2-1.4-1.4-1.6s-0.2-0.1-0.9,0.4
	L35.1,34l1.6-1.4c0.1,0.1,0.1,0.1,0.2,0.2l3.7,2.2l0,0L39,30.7l1.6-1.4l0.2,0.3c-0.6,0.6-0.6,0.6-0.5,0.8s0.5,0.7,1.3,1.6
	s1.2,1.4,1.4,1.6s0.2,0.1,0.9-0.4l0.2,0.3l-2,1.8L41.8,35c0.6-0.6,0.6-0.6,0.5-0.8l-2.8-3.3l0,0l1.7,4.4c0,0.1,0.1,0.3,0.2,0.4
	l-0.5,0.4c-0.1-0.1-0.2-0.1-0.3-0.2l-4.1-2.4l0,0l2.4,2.7c0.2,0.2,0.3,0.3,0.5,0.5c0.2,0.1,0.2,0.1,0.8-0.3l0.2,0.2l-1.7,1.5
	L38.4,37.9z"/>
<path class="st1" d="M45.9,29.6c0.1,0,0.1-0.1,0.1-0.1c0,0-0.1-0.1-0.1-0.1l-1.7-1.2l0.4,2.1c0,0,0,0.1,0,0.1c0,0,0.1,0,0.1,0
	L45.9,29.6z M44.2,33c0.5-0.4,0.5-0.6,0.3-1.3l-0.7-3.6c-0.1-0.4-0.1-0.7-0.2-1l0.3-0.2c0.2,0.2,0.5,0.4,0.7,0.6l3.4,2.3
	c0.4,0.3,0.5,0.4,1.1,0l0.2,0.3L47,31.6l-0.2-0.3c0.7-0.5,0.7-0.5,0.5-0.7c-0.3-0.3-0.6-0.5-0.9-0.7c0,0-0.1,0-0.1,0
	c-0.2,0.1-0.5,0.3-1.2,0.7c-0.4,0.3-0.4,0.3-0.4,0.5c0.1,0.3,0.1,0.7,0.3,1c0.1,0.2,0.2,0.2,0.9-0.2l0.2,0.3l-1.8,1.1L44.2,33z"/>
<path class="st1" d="M49.3,29.7c0.7-0.4,0.7-0.4,0.6-0.6s-0.4-0.8-0.9-1.9s-0.8-1.6-1-1.9s-0.2-0.2-0.8,0.1L47,25.1l1.4-0.7l0.4,0.2
	l3.8,2.1l0,0L52,25.7c-0.5-1.1-0.8-1.6-1-1.9s-0.2-0.2-0.9,0.1L50,23.7l2-1l0.2,0.3c-0.7,0.3-0.7,0.4-0.5,0.8s0.4,0.8,0.5,1.2
	c0.7,1.4,1.2,2.5,1.6,3l-0.5,0.2c-0.5-0.4-1.1-0.7-1.7-1l-2.9-1.6l0,0l0.7,1.4c0.5,1.1,0.8,1.6,1,1.9s0.2,0.2,1-0.2l0.2,0.3l-2.1,1
	L49.3,29.7z"/>
<path class="st1" d="M57.4,24.5c0.5,0.8,1.1,1.3,1.9,1s1.1-0.8,1-1.3s-0.6-0.5-1.2-0.6h-0.6c-1.5,0-1.8-0.4-1.9-1
	c-0.2-1,0.3-1.9,1.3-2.2c0,0,0.1,0,0.1,0c0.5-0.2,1-0.2,1.5-0.3c0,0.1,0.1,0.2,0.1,0.3c0.1,0.4,0.2,0.7,0.4,1.1l-0.3,0.1
	c-0.4-0.9-1-1.1-1.7-0.8c-0.6,0.1-0.9,0.6-0.9,1.2c0.1,0.3,0.3,0.5,1,0.5l1.4,0c0.7-0.1,1.4,0.4,1.6,1.1c0.3,1-0.3,1.9-1.5,2.2
	c-0.5,0.2-1.2,0.1-1.7,0.3c-0.1-0.4-0.4-1-0.6-1.5L57.4,24.5z"/>
<path class="st1" d="M61.8,24.7c0.7-0.2,0.7-0.2,0.7-0.4s-0.2-0.9-0.4-2.1s-0.4-1.8-0.5-2s-0.1-0.2-0.8-0.1l-0.1-0.3l2.9-0.6
	c0.4-0.1,0.8-0.2,1.2-0.3c0.1,0.5,0.3,1,0.4,1.4l-0.3,0.1c-0.4-0.9-0.6-1-1.7-0.8l-0.7,0.1c-0.1,0-0.1,0.1-0.1,0.2l0.4,1.7
	c0,0.1,0,0.1,0.3,0.1h0.2c0.8-0.2,0.8-0.3,0.8-0.9l0.3-0.1c0,0.2,0.1,0.5,0.2,0.9s0.2,0.6,0.2,0.9l-0.3,0.1
	c-0.2-0.5-0.3-0.6-0.9-0.5L63,22.1c-0.1,0-0.1,0.1-0.1,0.2l0.4,1.9c0,0.1,0.1,0.1,0.1,0.1c0,0,0,0,0,0l1.3-0.4
	c0.6-0.1,0.7-0.3,0.8-0.9l0.1-0.6H66c0,0.5,0,1,0.1,1.5L61.8,25L61.8,24.7z"/>
<path class="st1" d="M68.2,20.7c0,0.1,0,0.2,0.5,0.1c1.2-0.1,1.4-0.8,1.3-1.2c-0.1-0.6-0.6-1-1.5-1C68,18.7,68,18.8,68,19L68.2,20.7
	z M66.7,23.7c0.8-0.1,0.8-0.2,0.8-0.4s0-0.9-0.2-2.1s-0.2-1.8-0.2-2.1s-0.1-0.2-0.9-0.2v-0.3l3-0.3c0.4-0.1,0.9,0,1.3,0.2
	c0.4,0.2,0.6,0.6,0.6,1c0.1,1.1-1.1,1.5-1.1,1.5s0,0.1,0.1,0.2l1.4,1.5c0.3,0.4,0.4,0.5,0.8,0.4v0.3L71,23.6l-2-2.3
	c-0.1-0.1-0.1-0.1-0.5,0s-0.3,0-0.3,0.1c0.1,1.4,0.2,1.6,0.2,1.8s0.1,0.2,0.9,0.2v0.3L66.7,24L66.7,23.7z"/>
<path class="st1" d="M71.3,18.1H74v0.3h-0.4c-0.4,0-0.4,0.1-0.4,0.2c0.2,0.7,0.5,1.5,0.8,2.2l0.6,1.5l0.6-1.6
	c0.3-0.7,0.5-1.4,0.7-2.1c0-0.2-0.1-0.2-0.8-0.2V18h2.1v0.3H77c-0.4,0-0.5,0.2-0.8,1.1c-0.6,1.3-1.1,2.7-1.4,4.2h-0.5
	c-0.5-1.5-1.1-3-1.8-4.5c-0.3-0.7-0.4-0.7-1-0.7L71.3,18.1z"/>
<path class="st1" d="M77.3,23.2c0.8,0,0.9,0,0.9-0.2s0.1-0.9,0.2-2.1s0.2-1.8,0.1-2.1s0-0.2-0.9-0.4v-0.3l2.8,0.2v0.3
	c-0.8,0-0.9,0-0.9,0.2c-0.1,0.7-0.2,1.4-0.2,2.1c-0.1,1.2-0.2,1.8-0.1,2.1s0,0.2,0.9,0.4v0.3l-2.8-0.2L77.3,23.2z"/>
<path class="st1" d="M85.6,23.4c-0.6,0.8-1.6,1.1-2.6,1c-1.4-0.2-2.4-1.6-2.1-3c0-0.1,0-0.2,0.1-0.3c0.2-1.5,1.5-2.6,3-2.4
	c0.1,0,0.2,0,0.3,0c0.5,0.1,1.1,0.3,1.6,0.5c0,0.5,0,1,0,1.5h-0.4c-0.1-0.9-0.5-1.5-1.4-1.7s-1.8,0.7-2,2.1s0.4,2.5,1.3,2.6
	c0.8,0.1,1.5-0.2,2-0.8L85.6,23.4z"/>
<path class="st1" d="M85.7,24.3c0.7,0.1,0.8,0.1,0.8-0.1s0.3-0.8,0.6-2s0.5-1.8,0.5-2s0-0.2-0.7-0.5l0.1-0.3l2.8,0.8
	c0.4,0.1,0.8,0.2,1.2,0.2c-0.1,0.4-0.2,1.2-0.3,1.5h-0.3c0-1-0.1-1.2-1.1-1.5l-0.7-0.2c-0.1,0-0.2,0-0.2,0.1L88,22
	c0,0.1,0,0.1,0.2,0.2l0.2,0.1c0.8,0.2,0.9,0.1,1.1-0.4l0.3,0.1c-0.1,0.3-0.2,0.6-0.2,0.8c-0.1,0.3-0.2,0.6-0.2,0.9l-0.3-0.1
	c0.1-0.6,0-0.7-0.6-0.9L88,22.5c-0.1,0-0.1,0-0.2,0.1c0,0,0,0,0,0l-0.5,1.9c0,0.1,0,0.1,0.1,0.2l1.3,0.4c0.4,0.2,0.9,0,1.1-0.4
	c0,0,0,0,0,0l0.3-0.5l0.3,0.2c-0.2,0.4-0.4,0.9-0.6,1.4l-4.2-1.1L85.7,24.3z"/>
<path class="st1" d="M91.6,24.4c-0.1,1,0.1,1.7,0.8,2s1.4,0,1.6-0.5s-0.1-0.8-0.6-1.1l-0.5-0.4c-1.1-0.9-1.1-1.4-0.9-2
	c0.4-0.9,1.5-1.3,2.4-0.9c0,0,0.1,0,0.1,0.1c0.5,0.2,0.9,0.4,1.3,0.7c0,0.1-0.1,0.2-0.1,0.3c-0.1,0.3-0.2,0.7-0.3,1.1l-0.3-0.1
	c0.2-1-0.1-1.4-0.8-1.7c-0.5-0.3-1.1-0.1-1.4,0.3c0,0,0,0.1-0.1,0.1c-0.1,0.3,0,0.6,0.4,1l1,0.9c0.6,0.4,0.8,1.1,0.6,1.8
	c-0.4,1-1.4,1.3-2.6,0.8c-0.5-0.2-1-0.6-1.5-0.8c0.1-0.4,0.3-1.1,0.4-1.6L91.6,24.4z"/>
<path class="st1" d="M97.9,25.5c0.3,0.1,0.4,0.5,0.3,0.7s-0.5,0.4-0.7,0.3c-0.3-0.1-0.4-0.4-0.3-0.7c0,0,0,0,0,0
	C97.3,25.6,97.6,25.4,97.9,25.5C97.9,25.6,97.9,25.6,97.9,25.5"/>
<path class="st1" d="M100.4,24.2l2.3,1.4l-0.2,0.3c-0.7-0.3-0.8-0.3-0.9-0.2s-0.5,0.8-1.5,2.5c-0.5,0.6-0.4,1.4,0.2,1.9
	c0.1,0.1,0.1,0.1,0.2,0.1c1.2,0.7,1.7,0.2,2.5-1.2c0.6-1.1,1-1.6,1.1-1.9s0-0.2-0.7-0.7l0.2-0.3l1.9,1.1l-0.2,0.3
	c-0.7-0.4-0.8-0.4-0.9-0.2s-0.5,0.7-1.3,2.2c-0.6,1-1.3,1.9-3,1c-1-0.4-1.4-1.5-1-2.5c0.1-0.1,0.1-0.3,0.2-0.4
	c1-1.7,1.3-2.2,1.4-2.5s0.1-0.2-0.6-0.7L100.4,24.2z"/>
<path class="st1" d="M104.6,31c-0.4,0.9-0.4,1.7,0.3,2.1s1.3,0.4,1.6,0s0.1-0.8-0.2-1.3l-0.4-0.5c-0.8-1.2-0.7-1.7-0.3-2.2
	c0.6-0.8,1.7-0.9,2.5-0.3c0,0,0.1,0.1,0.1,0.1c0.4,0.3,0.8,0.7,1.1,1l-0.2,0.3c-0.2,0.3-0.4,0.6-0.6,1l-0.3-0.2
	c0.4-0.5,0.4-1.3-0.2-1.7c0,0-0.1-0.1-0.1-0.1c-0.4-0.4-1.1-0.4-1.5,0c-0.2,0.3-0.2,0.6,0.1,1.1l0.8,1.1c0.5,0.5,0.5,1.3,0.1,1.9
	c-0.6,0.8-1.7,0.8-2.7,0.1c-0.5-0.3-0.8-0.9-1.2-1.2c0.2-0.3,0.6-0.9,0.9-1.4L104.6,31z"/>
<path class="st1" d="M110.7,35.4C110.7,35.4,110.8,35.4,110.7,35.4c0.1-0.1,0.2-0.1,0.2-0.2l0.8-1.9l-1.9,1l-0.1,0.1
	c0,0,0,0.1,0,0.1c0,0,0,0,0,0L110.7,35.4z M107,34.5c0.5,0.4,0.7,0.3,1.3,0l3.2-1.6c0.3-0.1,0.6-0.3,0.9-0.5l0.3,0.3
	c-0.2,0.3-0.3,0.6-0.4,0.9l-1.4,3.8c-0.2,0.5-0.2,0.6,0.3,1l-0.2,0.2l-2-1.8l0.2-0.2c0.6,0.5,0.7,0.5,0.8,0.3
	c0.2-0.3,0.3-0.7,0.5-1.1c0,0,0-0.1,0-0.1c-0.1-0.2-0.4-0.4-1-0.9c-0.4-0.3-0.4-0.3-0.6-0.2c-0.3,0.1-0.6,0.3-0.9,0.5
	c-0.2,0.2-0.1,0.3,0.4,0.8l-0.2,0.2l-1.5-1.4L107,34.5z"/>
</svg>
