<svg id="Layer_1" data-name="Layer 1" xmlns="http://www.w3.org/2000/svg" viewBox="0 0 84.35 101.22"><defs><style>.cls-1{fill:#fff;}</style></defs><rect width="84.35" height="101.22"/><polygon class="cls-1" points="59.26 41.18 65.94 41.18 64.57 36.41 60.77 36.41 64.15 26.47 71.17 47.58 77.14 47.58 66.74 19.88 61.24 19.88 50.84 47.58 57.05 47.58 59.26 41.18"/><path class="cls-1" d="M14.21,36.15H22v-5h-7.8V24.84H37.64a8.29,8.29,0,0,1,3,.59A6,6,0,0,1,43,27.17,7.23,7.23,0,0,1,44.25,30a15.31,15.31,0,0,1,.4,3.66,13.7,13.7,0,0,1-.46,3.71,7.69,7.69,0,0,1-1.45,2.85A6.47,6.47,0,0,1,40.15,42a10.4,10.4,0,0,1-3.83.64H32.59V31.23H26.81V47.57H36.2a18.91,18.91,0,0,0,6-.89,11.43,11.43,0,0,0,7.39-7.06,16.9,16.9,0,0,0,1-6q0-6.78-3.55-10.24a13.09,13.09,0,0,0-8.88-3.41v0H8.43V47.57h5.78Z"/></svg>