<svg id="Layer_1" data-name="Layer 1" xmlns="http://www.w3.org/2000/svg" viewBox="0 0 521.4 150.3"><defs><style>.cls-1{fill:#007cba;}.cls-2{fill:#fff;}</style></defs><rect class="cls-1" x="18" y="18" width="84.35" height="101.22"/><polygon class="cls-2" points="77.26 59.18 83.94 59.18 82.57 54.41 78.77 54.41 82.15 44.47 89.16 65.58 95.14 65.58 84.74 37.88 79.23 37.88 68.84 65.58 75.05 65.58 77.26 59.18"/><path class="cls-2" d="M32.21,54.15H40v-5h-7.8V42.84H55.64a8.5,8.5,0,0,1,3,.59A6,6,0,0,1,61,45.17,7.23,7.23,0,0,1,62.25,48a15.31,15.31,0,0,1,.4,3.66,13.7,13.7,0,0,1-.46,3.71,7.7,7.7,0,0,1-1.46,2.85A6.37,6.37,0,0,1,58.15,60a10.42,10.42,0,0,1-3.84.64H50.59V49.23H44.81V65.58H54.2a18.9,18.9,0,0,0,6-.9,11.45,11.45,0,0,0,7.39-7.05,17,17,0,0,0,1-6.06q0-6.78-3.55-10.24a13.13,13.13,0,0,0-8.88-3.41v0H26.43v27.7h5.78Z"/><path class="cls-1" d="M148.11,99.88h.56c4.35,0,7.32-1.49,7.32-5.81,0-4-2.41-6.1-6.49-6.1h-1.39Zm-3-14.51h4.84c4.37,0,9.27,2.3,9.27,8.48s-4.83,8.62-9.52,8.62h-4.59Z"/><polygon class="cls-1" points="176.7 102.47 174.55 102.47 169.27 89.14 169.27 102.47 166.25 102.47 166.25 85.38 170.82 85.38 175.65 97.9 180.6 85.38 185.12 85.38 185.12 102.47 182.09 102.47 182.09 89.19 176.7 102.47"/><rect class="cls-1" x="192.93" y="85.37" width="3.03" height="17.09"/><polygon class="cls-1" points="215.25 102.47 206.8 90.92 206.8 102.47 203.77 102.47 203.77 85.38 206.43 85.38 214.93 96.95 214.93 85.38 217.95 85.38 217.95 102.47 215.25 102.47"/><rect class="cls-1" x="225.77" y="85.37" width="3.03" height="17.09"/><path class="cls-1" d="M242.3,87.69c-1.42,0-2.54.71-2.54,2s1.68,1.88,3.05,2.34c2.51.86,5.35,2,5.35,5.42,0,3.76-3.42,5.3-6.25,5.3a8.54,8.54,0,0,1-6.4-2.74l2.05-2c1.49,1.44,2.61,2.1,4.37,2.1,1.51,0,3-.74,3-2.52,0-1.63-1.74-2.25-3.52-2.88-2.29-.83-4.71-2-4.71-4.91,0-3.25,2.58-4.76,5.4-4.76A8.76,8.76,0,0,1,247.64,87l-1.78,2.17a5.73,5.73,0,0,0-3.56-1.47"/><polygon class="cls-1" points="260.56 87.96 260.56 102.47 257.53 102.47 257.53 87.96 253.38 87.96 253.38 85.38 264.71 85.38 264.71 87.96 260.56 87.96"/><path class="cls-1" d="M275.5,92.89c2,0,3.44-.7,3.44-2.41,0-1.52-1.2-2.52-3-2.52h-2.17v4.93Zm.56-7.52c2.71,0,6.08,1.4,6.08,5a4.87,4.87,0,0,1-3.91,4.78l5.3,7.28h-3.76l-4.88-7h-1.08v7h-3V85.37Z"/><polygon class="cls-1" points="314.75 87.96 314.75 102.47 311.73 102.47 311.73 87.96 307.57 87.96 307.57 85.38 318.9 85.38 318.9 87.96 314.75 87.96"/><rect class="cls-1" x="324.98" y="85.37" width="3.03" height="17.09"/><path class="cls-1" d="M343.93,87.74c-3.27,0-5.66,2.71-5.66,6.18s2.39,6.18,5.66,6.18,5.69-2.71,5.69-6.18-2.4-6.18-5.69-6.18m0,15a8.84,8.84,0,1,1,8.88-8.84,8.77,8.77,0,0,1-8.88,8.84"/><polygon class="cls-1" points="371.34 102.47 362.89 90.92 362.89 102.47 359.87 102.47 359.87 85.38 362.53 85.38 371.02 96.95 371.02 85.38 374.05 85.38 374.05 102.47 371.34 102.47"/><polygon class="cls-1" points="135.44 102.47 138.91 102.47 132.43 85.38 129.92 85.38 123.11 102.47 126.43 102.47 127.65 99.1 132.34 99.1 131.44 96.56 128.58 96.56 130.97 89.99 131 89.99 135.44 102.47"/><polygon class="cls-1" points="300.79 102.47 304.26 102.47 297.78 85.38 295.27 85.38 288.46 102.47 291.78 102.47 293 99.1 297.69 99.1 296.79 96.56 293.93 96.56 296.32 89.99 296.35 89.99 300.79 102.47"/><rect class="cls-1" x="192.84" y="61.97" width="6.39" height="6.53"/><path class="cls-1" d="M142.43,56.27A5.75,5.75,0,0,1,141,60.49,5,5,0,0,1,137.2,62a4.91,4.91,0,0,1-3.74-1.5,5.62,5.62,0,0,1-1.5-4.19V34.88h-6.65V56.8a11.36,11.36,0,0,0,3.5,8.62,11.69,11.69,0,0,0,8.38,3.34h0a11.59,11.59,0,0,0,11.88-12V34.88h-6.66Z"/><rect class="cls-1" x="152.47" y="61.97" width="6.39" height="6.53"/><path class="cls-1" d="M179.91,48.46c-1.43-.19-2.56-.35-3.38-.49a5,5,0,0,1-2.75-1.26,2.53,2.53,0,0,1-.76-1.77,3.22,3.22,0,0,1,1.14-2.65,4.68,4.68,0,0,1,2.94-.89,12.82,12.82,0,0,1,7,2.26l.84.58,3.67-5.59-.76-.57a17.8,17.8,0,0,0-10.53-3.46c-3.42,0-6.11,1-8,2.83a9.82,9.82,0,0,0-3,7.42,9.6,9.6,0,0,0,2.37,6.52,11,11,0,0,0,6.62,3.35l4,.58c2.83.51,3.18,2,3.17,3.24,0,1.43-.59,3.35-5,3.41a12,12,0,0,1-8-2.9l-.78-.66-4.33,5.13.74.65a18.12,18.12,0,0,0,12.36,4.57h0c9.49-.12,11.62-5.6,11.74-10.21A10.18,10.18,0,0,0,186.94,52a10.44,10.44,0,0,0-7-3.56"/><rect class="cls-1" x="192.84" y="61.97" width="6.39" height="6.53"/><polygon class="cls-1" points="218.16 68.43 224.81 68.43 224.81 54.92 234.74 54.92 234.74 48.66 224.81 48.66 224.81 41.33 239.73 41.33 239.73 34.8 218.16 34.8 218.16 68.43"/><path class="cls-1" d="M259.9,57.74A5,5,0,0,1,258.83,60a4.3,4.3,0,0,1-1.54,1.29,4.93,4.93,0,0,1-4.74,0,4.62,4.62,0,0,1-1.63-1.35,4.48,4.48,0,0,1-1-2.2,39.35,39.35,0,0,1-.31-6.13,38.82,38.82,0,0,1,.32-6.18,4.39,4.39,0,0,1,1-2.2,4.84,4.84,0,0,1,1.6-1.35,5.21,5.21,0,0,1,2.34-.55,5.63,5.63,0,0,1,2.4.54,4.87,4.87,0,0,1,1.58,1.42,4.54,4.54,0,0,1,1,2.14,42.17,42.17,0,0,1,.3,6.18,41,41,0,0,1-.3,6.13m5.5-17a11.51,11.51,0,0,0-3.8-4.29,11.68,11.68,0,0,0-6.69-2,11.44,11.44,0,0,0-6.58,2,11.57,11.57,0,0,0-3.85,4.2,9.92,9.92,0,0,0-1.17,3.37,57.11,57.11,0,0,0-.32,7.55,56.85,56.85,0,0,0,.32,7.49A9.74,9.74,0,0,0,243.8,61c.19.45.4.92.64,1.44a11.38,11.38,0,0,0,3.88,4.22,11.57,11.57,0,0,0,6.59,2h0a11.81,11.81,0,0,0,6.64-2,10.93,10.93,0,0,0,3.74-4.13,8.44,8.44,0,0,0,1.24-3.48,63.15,63.15,0,0,0,.28-7.47,63.37,63.37,0,0,0-.28-7.52,8.14,8.14,0,0,0-1.17-3.3"/><path class="cls-1" d="M289,57.74A4.88,4.88,0,0,1,287.92,60a4.3,4.3,0,0,1-1.54,1.29,4.91,4.91,0,0,1-4.73,0A4.45,4.45,0,0,1,280,59.94a4.31,4.31,0,0,1-1-2.2,37.71,37.71,0,0,1-.32-6.13,38.82,38.82,0,0,1,.32-6.18,4.39,4.39,0,0,1,1-2.2,5,5,0,0,1,1.61-1.35,5.15,5.15,0,0,1,2.34-.55,5.62,5.62,0,0,1,2.39.54A4.9,4.9,0,0,1,288,43.29a4.74,4.74,0,0,1,1,2.14,42.64,42.64,0,0,1,.29,6.18,41.42,41.42,0,0,1-.29,6.13m5.5-17A11.48,11.48,0,0,0,284,34.54a11.41,11.41,0,0,0-6.58,2,11.6,11.6,0,0,0-3.86,4.2,9.71,9.71,0,0,0-1.16,3.37,54.81,54.81,0,0,0-.33,7.55,54.56,54.56,0,0,0,.33,7.49,9.78,9.78,0,0,0,.48,1.92c.19.45.4.92.64,1.44A12,12,0,0,0,284,68.69h.05a11.81,11.81,0,0,0,6.64-2,11.1,11.1,0,0,0,3.74-4.13,8.58,8.58,0,0,0,1.23-3.48,63.15,63.15,0,0,0,.28-7.47,63.37,63.37,0,0,0-.28-7.52,8.29,8.29,0,0,0-1.16-3.3"/><path class="cls-1" d="M319.07,57.43a4.37,4.37,0,0,1-.84,2.18,5.25,5.25,0,0,1-4.82,2.29h-4.55V41.33h4.76a5.12,5.12,0,0,1,4.49,2.32,4.46,4.46,0,0,1,1,2.34c.12,1.14.18,3.1.18,5.8s-.06,4.67-.18,5.64m5.06-16.8a11.22,11.22,0,0,0-10.2-5.83H302.21V68.43h11.41A11.34,11.34,0,0,0,320,66.72a11.93,11.93,0,0,0,4.08-4,18.68,18.68,0,0,0,.93-1.75,9.6,9.6,0,0,0,.57-2,48,48,0,0,0,.37-7.28,64.06,64.06,0,0,0-.25-6.9,10.56,10.56,0,0,0-1.53-4.09"/><path class="cls-1" d="M408.33,57.43a4.37,4.37,0,0,1-.84,2.18,5.25,5.25,0,0,1-4.82,2.29h-4.55V41.33h4.76a5.12,5.12,0,0,1,4.49,2.32,4.46,4.46,0,0,1,1,2.34c.12,1.14.18,3.1.18,5.8s-.06,4.67-.18,5.64m5.06-16.8a11.22,11.22,0,0,0-10.2-5.83H391.47V68.43h11.41a11.34,11.34,0,0,0,6.34-1.71,11.93,11.93,0,0,0,4.08-4,18.68,18.68,0,0,0,.93-1.75,9.05,9.05,0,0,0,.56-2,47.58,47.58,0,0,0,.38-7.28,64.06,64.06,0,0,0-.25-6.9,10.56,10.56,0,0,0-1.53-4.09"/><path class="cls-1" d="M437.28,47.45a4.07,4.07,0,0,1-3.15,1.21h-6V41.07h6.27a4.34,4.34,0,0,1,2.81.77,3.3,3.3,0,0,1,1.13,2.78,4,4,0,0,1-1,2.83m7.43-2.85a9.51,9.51,0,0,0-3.38-7.47,10.21,10.21,0,0,0-6.9-2.32h-13V68.43h6.65V54.92h4.29l6.33,13.51h7.79l-7.35-14.54c3.62-1.81,5.49-4.91,5.54-9.29"/><path class="cls-1" d="M467.11,56.19a5.78,5.78,0,0,1-1.47,4.23,5,5,0,0,1-3.76,1.48,4.91,4.91,0,0,1-3.74-1.5,5.63,5.63,0,0,1-1.5-4.19V34.8H450V56.73a11.41,11.41,0,0,0,3.49,8.62,11.81,11.81,0,0,0,8.39,3.34h0a11.59,11.59,0,0,0,11.88-12V34.8h-6.66Z"/><path class="cls-1" d="M358,62.53a6.67,6.67,0,0,1-5,.47,4.62,4.62,0,0,1-3.37-4.51,4.46,4.46,0,0,1,1.25-3.26A14.8,14.8,0,0,1,353,53.34l6.74,7.92A7.21,7.21,0,0,1,358,62.53m-4.38-22.31a2.89,2.89,0,0,1,4.48,1.65,2.66,2.66,0,0,1-.78,2.54,15,15,0,0,1-2.55,1.91,13.77,13.77,0,0,1-2-2.76,2.84,2.84,0,0,1,.85-3.34m14.29,21a11.78,11.78,0,0,0,2.34-4.06,21.45,21.45,0,0,0,.94-4.33c.08-.61.12-1.23.18-1.87h-5.84A17.6,17.6,0,0,1,365,54a7.72,7.72,0,0,1-1.27,2.82c-1.92-2.27-3.81-4.5-5.7-6.75l.4-.3a34,34,0,0,0,3.24-2.49,7.09,7.09,0,0,0,1.78-2.39,7.27,7.27,0,0,0,.21-4.56,7,7,0,0,0-2.19-3.73,8.23,8.23,0,0,0-4.55-2,11.45,11.45,0,0,0-5.88.64,7.51,7.51,0,0,0-4.58,8.9,10.72,10.72,0,0,0,2.28,4.35c.28.35.58.69.87,1l-.27.18a17.76,17.76,0,0,0-3.4,2.9,9.74,9.74,0,0,0-2.19,4.12,10.34,10.34,0,0,0,0,4.22,8.64,8.64,0,0,0,6.66,7.39,16.13,16.13,0,0,0,6.26.39,11.34,11.34,0,0,0,5.28-2c.5-.35,1-.73,1.53-1.13.05.06.08.13.13.18.72.86,1.45,1.72,2.17,2.59a.46.46,0,0,0,.4.19h7.31c.06,0,.15,0,.22-.06l-6-7.1c.07-.08.11-.15.16-.21"/><path class="cls-1" d="M497.27,49h-6.81v6.52h6.25v.63a5.76,5.76,0,0,1-1.54,4.13,4.81,4.81,0,0,1-3.74,1.59,4.43,4.43,0,0,1-2.37-.61,4.51,4.51,0,0,1-1.63-1.35,4.43,4.43,0,0,1-1-2.21,37.86,37.86,0,0,1-.31-6.12,37.7,37.7,0,0,1,.32-6.18,4.31,4.31,0,0,1,1-2.2,4.78,4.78,0,0,1,1.61-1.35,5.19,5.19,0,0,1,2.32-.55,4.85,4.85,0,0,1,3.12,1.07,5.83,5.83,0,0,1,1.76,2.8l.22.72h6.89l-.22-1.19a13.16,13.16,0,0,0-3.82-7.2,12,12,0,0,0-14.52-1A11.72,11.72,0,0,0,481,40.71a10.16,10.16,0,0,0-1.16,3.36,54.74,54.74,0,0,0-.33,7.54,54.84,54.84,0,0,0,.33,7.5,10.12,10.12,0,0,0,.49,1.92c.18.44.39.91.64,1.42a11.41,11.41,0,0,0,3.88,4.23,11.57,11.57,0,0,0,6.59,2h0a12.15,12.15,0,0,0,5.81-1.51v1.31h6.13V49h-6.13Z"/></svg>